<svg width="500" height="501" viewBox="0 0 500 501" fill="none" xmlns="http://www.w3.org/2000/svg">
<path opacity="0.998" fill-rule="evenodd" clip-rule="evenodd" d="M239.367 0.917358C245.577 0.917358 251.785 0.917358 257.995 0.917358C312.799 3.20426 361.816 21.0161 405.044 54.3531C450.207 90.4036 479.688 136.681 493.488 193.187C497.164 209.196 499.335 225.384 500 241.75C500 247.972 500 254.193 500 260.415C496.834 323.499 473.783 377.898 430.844 423.613C391.857 463.838 344.571 488.587 288.987 497.862C277.105 499.675 265.181 500.694 253.214 500.917C251.182 500.917 249.147 500.917 247.115 500.917C190.318 499.688 139.598 481.712 94.9555 446.986C53.8777 414.115 25.6053 372.407 10.1385 321.862C4.21748 301.666 0.837988 281.073 0 260.085C0 253.919 0 247.751 0 241.585C2.81205 183.017 23.0615 131.535 60.7484 87.1413C95.7331 47.1225 139.116 20.6111 190.9 7.60715C206.867 3.83188 223.023 1.60194 239.367 0.917358Z" fill="black"/>
<path d="M215.811 445.154C170.106 437.921 136.579 416.104 119.896 382.742C112.764 368.479 108.099 353.255 106.073 337.631L105 329.361L114.993 345.901C131.56 373.323 132.236 373.598 128.721 351.487C123.993 321.748 126.115 297.276 134.932 279.847C143.223 263.459 151.094 255.299 177.384 235.843C206.56 214.25 223.545 187.647 225.212 160.935C226.152 145.86 223.068 134.004 216.16 126.136L211.327 120.631L217.328 121.697C239.822 125.693 254.532 142.871 259.673 171.147C260.909 177.943 262.215 185.027 262.577 186.887C263.653 192.428 267.114 190.752 270.337 183.128C283.317 152.429 287.928 81.0953 278.518 56.5718C277.167 53.0514 295.327 66.5008 306.567 77.3452C325.946 96.0416 342.04 121.419 350.325 146.344C356.098 163.715 358.025 175.803 358.93 200.344L359.829 224.703L366.237 218.108C373.168 210.978 379.563 208.791 389.004 210.323C391.955 210.802 394.634 211.458 394.957 211.781C395.28 212.104 393.761 215.558 391.582 219.457C386.166 229.148 385.521 240.467 388.736 269.437C393.785 314.935 390.183 353.72 378.461 380.099C363.74 413.227 336.091 434.695 296.417 443.802C282.041 447.102 233.286 447.92 215.811 445.154Z" fill="#03E1FF"/>
<path d="M235.358 443.497C197.423 439.689 175.077 423.126 168.368 393.842C167.443 389.804 166.582 379.734 166.455 371.464C166.091 347.874 172.6 332.207 191.969 310.051C221.469 276.307 227.41 266.655 230.701 247.121L232.452 236.728L238.416 240.719C251.866 249.718 258.665 260.067 258.665 271.538V277.654L263.508 274.938C266.172 273.443 275.848 264.778 285.011 255.681C303.887 236.939 311.707 224.275 314.821 207.404L316.64 197.546L323.247 213.08C351.445 279.387 362.634 343.28 352.562 380.486C344.197 411.389 323.569 431.215 290.783 439.864C279.138 442.936 249.271 444.893 235.358 443.497ZM277.987 435.847C292.514 428.891 298.928 413.241 297.288 388.756C295.815 366.762 287.824 350.016 273.954 339.859C265.666 333.789 253.388 328.953 254.656 332.258C256.98 338.316 258.958 353.637 258.354 360.916C257.437 371.968 253.203 376.727 244.285 376.727C236.231 376.727 232.159 373.407 229.53 364.697L227.487 357.931L222.948 367.705C215.785 383.133 213.245 391.712 212.435 403.211C211.25 420.048 215.695 429.55 227.606 435.643C240.63 442.306 264.298 442.402 277.987 435.847ZM125.248 319.587C125.248 315.865 125.541 314.343 125.899 316.204C126.258 318.065 126.258 321.11 125.899 322.97C125.541 324.831 125.248 323.308 125.248 319.587ZM195.511 219.592C197.453 217.525 199.381 215.833 199.794 215.833C200.208 215.833 198.957 217.525 197.015 219.592C195.072 221.66 193.145 223.352 192.731 223.352C192.317 223.352 193.569 221.66 195.511 219.592Z" fill="#00FFA3"/>
<path d="M213.079 418.141C214.85 424.534 218.396 429.623 223.694 433.319C224.826 434.077 226.046 434.788 227.356 435.458C240.38 442.121 264.048 442.217 277.737 435.662C279.553 434.793 281.242 433.787 282.804 432.646C293.741 424.656 298.473 409.996 297.038 388.572C296.946 387.197 296.828 385.843 296.685 384.509C294.543 364.51 286.707 349.197 273.704 339.674C272.668 338.915 271.569 338.176 270.443 337.469C262.558 332.522 253.296 329.181 254.406 332.073C256.73 338.131 258.707 353.453 258.104 360.731C257.187 371.784 252.953 376.542 244.035 376.542C235.981 376.542 231.909 373.222 229.279 364.513L227.236 357.746L222.698 367.52C217.875 377.908 214.656 387.301 213.023 395.623C212.635 398.017 212.366 400.449 212.185 403.026C211.771 408.902 212.044 413.885 213.079 418.141Z" fill="#DC1FFF"/>
</svg>
