<svg viewBox="0 0 500 500" fill="none" xmlns="http://www.w3.org/2000/svg">
    <path d="M250.5 500C388.295 500 500 388.295 500 250.5C500 112.705 388.295 1 250.5 1C112.705 1 1 112.705 1 250.5C1 388.295 112.705 500 250.5 500Z" fill="#FDDE00"/>
    <path d="M209.774 129.365C203.962 129.365 194.663 129.946 194.663 196.785C194.663 246.118 138.96 178.088 134.218 178.768C113.876 181.674 121.431 248.803 121.431 266.53C121.431 275.248 100.508 303.727 100.508 359.523C100.508 385.334 113.294 409.506 134.218 409.506C153.979 409.506 169.671 437.811 204.259 437.811C224.886 437.811 266.733 430.43 274.288 386.839C281.844 343.249 238.254 129.365 209.774 129.365Z" fill="#3C2D0C"/>
    <path d="M135.892 168.027C117.032 178.012 130.348 233.483 132.562 244.578C134.782 255.673 117.172 274.126 110.383 339.762C108.64 356.617 119.101 374.053 131.452 381.039C150.353 391.733 173.613 387.694 173.613 387.694C173.613 387.694 197.564 416.475 244.642 420.544C281.577 423.734 295.207 385.671 306.743 367.724C319.268 348.236 340.029 292.283 337.809 267.873C335.589 243.462 299.856 185.155 260.334 180.506C256.824 180.093 253.493 182.534 250.163 182.441C246.833 182.348 223.718 121.804 209.188 129.36C190.619 139.019 208.764 194.763 205.782 195.757C199.127 197.977 185.161 206.201 183.592 204.632C179.151 200.191 154.747 158.036 135.886 168.021L135.892 168.027Z" fill="#E78C19"/>
    <path d="M147.876 184.29C137.996 188.358 143.227 232.53 151.945 238.342C159.134 243.137 181.447 228.793 178.099 217.419C175.193 207.538 156.373 180.791 147.876 184.29Z" fill="#EFB99D"/>
    <path d="M217.621 144.187C212.972 144.768 215.296 188.939 224.014 191.845C232.733 194.751 242.032 190.102 240.869 181.384C239.556 171.521 223.643 143.437 217.621 144.187Z" fill="#EFB99D"/>
    <path d="M208.322 241.248C202.51 241.248 191.467 252.43 191.467 262.171C191.467 263.915 192.629 272.401 198.796 272.401C206.009 272.401 215.407 261.66 215.877 251.71C216.04 248.228 214.715 241.248 208.322 241.248Z" fill="#FBFBFB"/>
    <path d="M270.802 225.845C270.802 230.204 278.067 233.11 285.041 233.11C296.084 233.11 301.67 229.042 301.67 225.845C301.67 221.486 295.503 214.029 286.523 214.029C278.125 214.029 270.796 220.324 270.796 225.845H270.802Z" fill="#FBFBFB"/>
    <path d="M236.801 272.342C230.733 272.342 227.501 279.026 221.108 279.026C215.162 279.026 224.014 284.838 231.57 284.838C239.126 284.838 245.519 281.35 246.972 278.444C248.274 275.846 241.16 272.342 236.801 272.342Z" fill="black"/>
    <path d="M271.673 267.402C268.424 268.018 278.648 271.47 286.203 271.47C290.272 271.47 298.99 268.564 300.152 264.496C300.949 261.7 296.084 258.684 290.853 258.684C280.973 258.684 283.879 265.077 271.673 267.402Z" fill="black"/>
    <path d="M228.083 303.435C218.784 303.435 201.476 284.837 175.194 284.837C160.082 284.837 156.746 300.529 156.746 304.598C156.746 318.338 163.569 370.855 254.819 370.855C335.606 370.855 339.675 344.701 346.649 295.88C349.608 275.166 339.675 266.238 319.914 266.238C287.947 266.238 242.613 303.435 228.083 303.435Z" fill="#FBFBFB"/>
    <path d="M315.264 272.633C307.127 272.633 283.588 279.026 283.588 292.684C283.588 301.112 301.896 309.539 312.648 309.539C323.401 309.539 329.213 289.011 329.213 282.513C329.213 272.633 319.605 272.633 315.264 272.633Z" fill="black"/>
    <path d="M271.964 161.332C278.062 161.332 283.007 156.388 283.007 150.289C283.007 144.19 278.062 139.246 271.964 139.246C265.865 139.246 260.921 144.19 260.921 150.289C260.921 156.388 265.865 161.332 271.964 161.332Z" fill="#E72D36"/>
    <path d="M264.989 65.4332C260.369 66.2062 253.946 68.3392 253.946 81.707C253.946 97.4983 262.083 134.015 270.801 134.015C278.706 134.015 280.682 96.2371 279.519 78.8009C278.903 69.5249 271.964 64.2708 264.989 65.4332Z" fill="#E72D36"/>
    <path d="M307.859 168.893C313.958 168.893 318.902 163.949 318.902 157.85C318.902 151.751 313.958 146.807 307.859 146.807C301.76 146.807 296.816 151.751 296.816 157.85C296.816 163.949 301.76 168.893 307.859 168.893Z" fill="#E72D36"/>
    <path d="M339.349 78.7423C334.868 77.3765 328.167 76.435 322.221 88.4078C315.2 102.549 306.244 138.88 314.055 142.756C321.134 146.273 339.704 113.312 346.417 97.1782C349.991 88.5938 346.108 80.8056 339.349 78.7423Z" fill="#E72D36"/>
    <path d="M329.422 192.722C335.521 192.722 340.465 187.778 340.465 181.68C340.465 175.581 335.521 170.637 329.422 170.637C323.323 170.637 318.379 175.581 318.379 181.68C318.379 187.778 323.323 192.722 329.422 192.722Z" fill="#E72D36"/>
    <path d="M397.586 130.661C394.476 127.157 389.251 122.85 377.929 129.958C364.556 138.351 337.948 164.656 342.586 172.043C346.788 178.739 379.836 160.332 393.988 150.074C401.52 144.616 402.276 135.95 397.586 130.661Z" fill="#E72D36"/>
</svg>
