<svg viewBox="0 0 500 500" fill="none" xmlns="http://www.w3.org/2000/svg">
    <rect width="500" height="500" fill="black"/>
    <path d="M218.196 146.347C203.164 135.766 188.122 125.185 172.228 114H283.666V146.832H376.761V196.873L375.78 197.656H306.625C308.518 199.013 309.35 199.766 310.321 200.271C331.616 211.397 352.95 222.463 374.185 233.698C375.493 234.391 376.87 236.472 376.88 237.918C377.019 287.087 376.999 336.256 376.999 386H314.354C314.067 385.723 313.779 385.445 313.492 385.178V296.965C313.779 296.648 314.067 296.331 314.354 296.014C326.879 295.905 339.394 295.796 351.919 295.687H355.199C353.564 294.884 352.771 294.498 351.979 294.102C334.222 284.819 316.465 275.526 298.688 266.272C294.06 263.865 289.353 261.596 284.686 259.268C284.438 259.04 284.191 258.822 283.933 258.594L283.903 259.367C283.854 295.449 283.804 331.541 283.755 367.622C283.755 373.557 283.755 379.481 283.755 385.99H221.189C220.902 385.713 220.614 385.435 220.337 385.168C220.277 362.054 220.218 338.931 220.148 315.818C220.089 296.331 220.03 276.853 219.97 257.366C219.792 257.049 219.623 256.722 219.445 256.405C218.999 256.692 218.563 256.98 218.117 257.267C209.219 261.765 200.271 266.183 191.412 270.76C178.461 277.458 165.569 284.254 152.678 291.05C151.013 291.932 149.497 293.101 147.911 294.141C146.96 294.438 146.009 294.746 145.058 295.043C145.137 295.33 145.206 295.617 145.285 295.905C146.177 295.825 147.059 295.746 147.951 295.667H186.378V385.931H123.307C123.228 384.692 123.079 383.434 123.079 382.176C123.069 334.483 123.099 286.77 123 239.048C123 235.679 123.951 234.035 127.112 232.43C148.228 221.651 169.176 210.545 190.174 199.518C190.798 199.191 191.323 198.656 192.631 197.656H124.08C123.803 197.388 123.515 197.121 123.238 196.853V146.951H218.058C218.305 146.981 218.563 147.001 218.811 147.03C218.613 146.802 218.404 146.575 218.206 146.347H218.196Z" fill="white"/>
</svg>
