<?xml version="1.0" encoding="UTF-8"?>
<svg id="Layer_2" data-name="Layer 2" xmlns="http://www.w3.org/2000/svg" viewBox="0 0 309.92 77.24">
  <defs>
    <style>
      .cls-1 {
        fill: #f7cc68;
      }

      .cls-1, .cls-2 {
        stroke-width: 0px;
      }

      .cls-2 {
        fill: #171717;
      }
    </style>
  </defs>
  <g>
    <polygon class="cls-2" points="26.01 27.86 24.5 27.85 24.66 7.12 24.67 5.62 26.17 5.63 26.18 5.63 26.02 26.35 26.01 27.86"/>
    <polygon class="cls-2" points="57.37 28.11 55.87 28.1 56.04 5.86 57.55 5.87 57.54 7.38 57.38 28.11 57.37 28.11"/>
    <path class="cls-2" d="M80.12,6.05l-.06,1.25-.02.32c-.46,9.16-.74,19.21-.85,29.85l-.02,2.07c0,.36,0,.73,0,1.09-.08,9.83.01,19.29.25,28.15v.28c.03.43.04.87.05,1.3.01.19.01.37.02.55.01.32.02.64.03.95h0c0,.17.01.33.01.49v.33s.06,1.24.06,1.24h-.11l-23.97-.19.02-2.06v-1.51s.17-20.72.17-20.72h-1.5s-26.85-.22-26.85-.22h-1.51s-.01,1.29-.01,1.29l-.16,20.93-.02,2.07-24.08-.19.09-1.76c0-.1,0-.21,0-.31.03-.51.06-1.01.08-1.51.02-.52.05-1.04.07-1.56.46-10.12.73-19.81.8-28.79v-1.5s.01-.42.01-.42c0-.56.01-1.11.01-1.66.02-9.02-.15-18.7-.48-28.8l-.06-1.58h.15l1.51.02c.02.51.03,1.01.05,1.51.28,9.76.4,18.98.34,27.64v1.22c0,.55,0,1.1,0,1.65v.24c-.01.56-.01,1.12-.02,1.69-.06,9.02-.33,18.63-.8,28.85l3.96.03,16.9.13.16-20.72h0s.03-3.58.03-3.58l32.88.25-.03,3.58-.16,20.72,3.95.03,16.9.14c-.25-9.04-.34-18.67-.25-28.86,0-.84,0-1.68.02-2.51,0-.36,0-.71,0-1.07.08-10.19.31-19.81.71-28.85.02-.5.04-1,.07-1.5h1.5s.15.01.15.01Z"/>
    <path class="cls-2" d="M27.7,4.13h-1.52s-1.49-.02-1.49-.02l-.02,1.51v1.5s-.17,20.73-.17,20.73h1.51s1.52.02,1.52.02v-1.51s.02-1.49.02-1.49l.14-17.72.02-3.02h0ZM56.04,4.35h-1.48s-.03,3.01-.03,3.01l-.15,19.22v1.51s2.99.02,2.99.02l.16-20.73h.01v-1.51s.03-1.5.03-1.5l-1.53-.02ZM81.55,4.57l-1.45-.02h-.14l-1.38-.02h-.05c-.02.5-.04,1-.06,1.51-.03.5-.05,1-.07,1.5h.13c-.44,9.02-.72,18.64-.84,28.85,0,.36,0,.71,0,1.07-.01.83-.02,1.67-.02,2.51-.09,10.19,0,19.82.25,28.86.02.51.03,1.01.05,1.51.01.51.03,1.01.05,1.51,0,.19.01.37.02.56l-21-.16v-.57l.02-1.51v-1.5s.01-.01.01-.01l.16-20.72h-1.51s-1.5-.02-1.5-.02l-26.85-.21h-1.51s-1.51-.02-1.51-.02l-.16,20.72v1.51s-.03,1.51-.03,1.51v.56l-20.99-.16c0-.19.02-.37.02-.56.03-.5.05-1.01.07-1.51.03-.51.05-1.01.07-1.51.47-10.22.74-19.83.8-28.85.01-.57.01-1.13.02-1.69v-.24c0-.55,0-1.1,0-1.65v-1.22c0-8.68-.17-17.89-.49-27.64h.15c-.02-.5-.03-1-.05-1.51-.01-.5-.03-1-.05-1.5h-1.51s-1.51-.03-1.51-.03h-.15s.11,3.14.11,3.14c.36,10.69.52,20.91.47,30.37v1.96c-.07,8.96-.34,18.63-.8,28.72-.05,1.04-.1,2.08-.15,3.12,0,.09,0,.18,0,.27v.18s-.16,3.14-.16,3.14l3.14.02,21,.17,3.01.02.02-3.02v-.56l.03-3.02.14-17.7,26.85.21-.14,17.71-.03,3.01v.56l-.02,3.02,3.01.02,21,.16h1.4s1.75.03,1.75.03l-.05-1.5-.05-1.48v-.16c-.01-.14-.02-.28-.02-.42h0c-.04-1-.07-1.99-.1-2.99v-.16c-.25-8.89-.34-18.39-.26-28.26v-.62c0-.4,0-.8.02-1.19,0-.4,0-.79,0-1.19.11-10.61.39-20.64.85-29.78v-.06s.01-.09.01-.09l.07-1.48v-.29s0-.03,0-.03l.06-1.18h-.16Z"/>
  </g>
  <g>
    <path class="cls-2" d="M154.01,6.63l-.12,15.62v1.5s-.03,2.07-.03,2.07l-4.74-.04h-2.05s-.12-.01-.12-.01l-39.91-.32h-1.51s-.03,3.51-.03,3.51c-.54,0-1.04-.02-1.5-.03l.04-5,.02-3.58,48.34.37.1-12.59v-1.51s1.51.01,1.51.01Z"/>
    <path class="cls-2" d="M103.81,52.69l.07-9.3c1.27,0,2.8-.02,4.6-.02,2.27,0,4.97.01,8.09.03,9.47.08,19.27.33,29.39.77l.09-11.66v-1.64s1.52-.04,1.52-.04l-.12,14.92v1.51s-.03,2.02-.03,2.02v.04l-.56-.03h-.07l-.93-.04c-10.06-.43-19.93-.69-29.33-.76-3.01-.03-5.67-.04-7.94-.04-.61,0-1.18,0-1.73.01-.53-.01-1.03,0-1.5,0h-.01l-.03,4.23h-1.51Z"/>
    <path class="cls-2" d="M154.83,54.08l-.33,1.86c-.42,2.34-.69,4.81-.8,7.34-.08,1.71-.13,3.74-.17,6.15v.09c-.01.46-.01.93-.02,1.42-.01.49-.01.99-.02,1.5v2.08s-72.38-.57-72.38-.57h-.12l.07-1.48v-.09c.01-.16.02-.33.02-.49h0c.02-.36.04-.71.05-1.05v-.06c.01-.14.02-.27.02-.41.52-10.77.8-20.97.88-30.35v-1.2c.01-.17.01-.33.01-.5.05-9.5-.11-19.8-.47-30.68v-.09l-.05-1.48h1.65c.02.52.04,1.02.05,1.52.29,9.75.41,18.96.35,27.61v1.25c0,.27,0,.54-.01.81v.37c0,.8,0,1.6-.01,2.4-.07,9.02-.34,18.63-.8,28.85l3.95.03,65.32.5c.03-3.93.09-7.18.21-9.77.05-1.28.14-2.53.28-3.77.01-.06.01-.12.02-.18.06-.51.12-1.01.18-1.51.08,0,.15,0,.23,0l1.32-.06.57-.03Z"/>
    <path class="cls-2" d="M147.59,29.33l-1.51.04-.02,1.5v1.51s0,0,0,0l-.1,13.3-.02,1.51v.56c-10.13-.44-19.92-.7-29.39-.77-3.06-.02-5.71-.03-7.95-.03-.61,0-1.18,0-1.73.01-.53-.01-1.03,0-1.5,0-.54,0-1.04.01-1.51.01l-.04,5.72h1.5c.51,0,1.01,0,1.51,0v-1.5s.02-1.23.02-1.23h1.75c2.26,0,4.92.01,7.93.04,9.38.07,19.24.33,29.28.76l.93.04h.01l2.18.09v-1.67s.02-1.45.02-1.45v-.46l.12-14.91.02-3.12-1.5.04ZM105.34,51.19l.02-2.73v-1.5c-.53,0-1.03.01-1.5.01l-.04,5.72h1.5c.51,0,1.01,0,1.51,0v-1.5c-.49,0-.99,0-1.49,0ZM146.75,50.81l2.18.09v-.16c-.7.03-1.43.05-2.18.07ZM105.34,51.19l.02-2.73v-1.5c-.53,0-1.03.01-1.5.01l-.04,5.72h1.5c.51,0,1.01,0,1.51,0v-1.5c-.49,0-.99,0-1.49,0ZM146.75,50.81l2.18.09v-.16c-.7.03-1.43.05-2.18.07ZM105.34,51.19l.02-2.73v-1.5c-.53,0-1.03.01-1.5.01l-.04,5.72h1.5c.51,0,1.01,0,1.51,0v-1.5c-.49,0-.99,0-1.49,0ZM146.75,50.81l2.18.09v-.16c-.7.03-1.43.05-2.18.07ZM156.05,52.52h-.01l-.38.02-1.15.05h-.02l-1.54.07c-.09.5-.17,1.01-.24,1.52-.06.5-.12,1-.18,1.51.17-.01.33-.01.49-.02-.44,2.44-.71,4.95-.82,7.55-.09,2.12-.15,4.69-.19,7.71-.01.49-.01.99-.02,1.5v.57l-69.41-.55c.01-.18.02-.37.03-.55.02-.51.04-1.02.07-1.52.02-.5.04-1,.07-1.5.46-10.22.73-19.83.8-28.85.01-.8.01-1.6.01-2.4v-.37c.01-.68.01-1.37.01-2.06,0-8.67-.16-17.88-.49-27.61h.14c-.01-.5-.03-1-.05-1.51,0-.5-.02-1-.04-1.5h-1.42s-.16-.01-.16-.01h-1.45s-.14-.01-.14-.01l.03.94.02.55.05,1.25v.39c.33,9.69.49,18.92.49,27.52,0,.81,0,1.62-.01,2.41,0,.3-.01.61,0,.92,0,.49-.01.98-.01,1.46-.08,9.81-.4,20.52-.95,31.86h0c-.01.15-.01.3-.02.45l-.02.37-.06,1.24-.07,1.51v.02l3.14.02,69.42.54,3.01.02.03-3.01v-.56c.01-.58.01-1.14.02-1.69v-.61c.04-2.71.1-4.95.18-6.81.1-2.26.33-4.46.68-6.55.03-.2.06-.39.1-.59l.36-1.98.07-.43v-.02l.24-1.29-.61.03ZM148.93,50.74c-.7.03-1.43.05-2.18.07l2.18.09v-.16ZM106.83,52.7v-1.5c-.49,0-.99,0-1.49,0l.02-2.73v-1.5c-.53,0-1.03.01-1.5.01l-.04,5.72h1.5c.51,0,1.01,0,1.51,0ZM146.75,50.81l2.18.09v-.16c-.7.03-1.43.05-2.18.07ZM105.34,51.19l.02-2.73v-1.5c-.53,0-1.03.01-1.5.01l-.04,5.72h1.5c.51,0,1.01,0,1.51,0v-1.5c-.49,0-.99,0-1.49,0ZM146.75,50.81l2.18.09v-.16c-.7.03-1.43.05-2.18.07ZM105.34,51.19l.02-2.73v-1.5c-.53,0-1.03.01-1.5.01l-.04,5.72h1.5c.51,0,1.01,0,1.51,0v-1.5c-.49,0-.99,0-1.49,0ZM146.75,50.81l2.18.09v-.16c-.7.03-1.43.05-2.18.07ZM105.34,51.19l.02-2.73v-1.5c-.53,0-1.03.01-1.5.01l-.04,5.72h1.5c.51,0,1.01,0,1.51,0v-1.5c-.49,0-.99,0-1.49,0ZM154.02,5.13h-1.5s-.01,1.49-.01,1.49v1.51s-.11,12.59-.11,12.59v1.52s-.03,1.5-.03,1.5v.56l-45.31-.35h-1.51s-1.51-.02-1.51-.02l-.04,5c.46.01.96.03,1.5.03.48.02.98.03,1.51.04l.02-1.5v-.53l39.81.31h2.26s3.25.04,3.25.04l1.84.02h.96s.21.01.21.01v-.66s.03-2.36.03-2.36v-1.27s.12-14.9.12-14.9l.02-3.02h-1.51Z"/>
  </g>
  <g>
    <path class="cls-2" d="M210.3,47.36c-1.45,1.56-3.16,2.74-5.15,3.53h0s-.06.02-.09.03v-.19s-.24-.4-.24-.4l-.43-.75.06-.04s.03-.01.04-.01l.26-.15h.11c.38-.17.75-.34,1.11-.54,0-.01.01-.01.01-.01.01,0,.01-.01.02-.01l-14.64-.11h-.04l.05-1.71.34-10.69h0s1.02.03,1.02.03h.11l.07-1.53h.07v1.52s-.09,10.89-.09,10.89l3.95.03,13.47.11Z"/>
    <path class="cls-2" d="M177.92,38.2c-.04-.6-.06-1.2-.06-1.82.03-4.41,1.46-8.1,4.29-11.09,2.77-2.94,6.97-4.41,12.56-4.41h.25c3.45.03,6.72.63,9.81,1.82,3.08,1.18,5.78,2.95,8.09,5.29l2.24-1.24c6.13-3.17,10.68-5.51,13.66-7.03h.01c.51-.26.97-.49,1.38-.69.36.38.69.78,1.02,1.18.3.36.59.73.88,1.1l.07.09,1.05,1.35-1.63.83c-2.39,1.2-6.73,3.42-12.42,6.36h-.01c-.92.48-1.88.97-2.87,1.48-.15.08-.31.16-.46.24l-2.27,1.25h-1.48s-.28-.29-.28-.29c-.26-.27-.53-.52-.8-.77-.18-.16-.36-.32-.54-.47-.64-.56-1.31-1.07-2.01-1.52-1.31-.88-2.71-1.61-4.2-2.18-2.91-1.12-6.04-1.7-9.29-1.72h-.24c-5.14,0-8.99,1.33-11.46,3.94-.62.65-1.17,1.34-1.64,2.07h0s-.01.02-.01.03c-1.19,1.83-1.89,3.88-2.13,6.21,0,.04-.01.08-.01.12-.06.54-.08,1.09-.09,1.63-.01,1.88.22,3.58.7,5.13-1.19-1.98-1.89-4.26-2.1-6.83-.01-.02-.01-.04-.01-.06Z"/>
    <path class="cls-2" d="M231.12,35.11h1.5s-.29,36.44-.29,36.44v1.5s-.03,2.07-.03,2.07l-18.57-.15-.23-2.06-1.05-9.54c-.29.5-.6.99-.93,1.46-1.86,2.74-4.23,4.97-7.09,6.64-4.73,2.78-10.53,4.19-17.21,4.19h-.39c-6.27-.04-11.9-1.51-16.74-4.35-4.88-2.84-8.74-6.95-11.48-12.21-.5-.96-.95-1.95-1.36-2.98-.3-.76-.58-1.53-.83-2.32v-.02c-.14-.42-.26-.84-.37-1.26t-.01-.02c-.32-1.14-.58-2.32-.79-3.53-.46-2.57-.67-5.28-.65-8.12,0-.58.02-1.18.04-1.84,0-.04,0-.07,0-.11.28-6.38,1.75-11.99,4.36-16.77-1.87,4.41-2.82,9.46-2.86,15.16,0,.55,0,1.09.01,1.63v.15c.17,5.93,1.44,11.19,3.82,15.76,2.09,4,4.81,7.26,8.18,9.79.87.66,1.77,1.26,2.72,1.81,4.65,2.72,9.99,4.1,16,4.15h.38c6.45,0,11.93-1.33,16.45-3.98,4.61-2.7,7.83-6.88,9.66-12.52l1.07,9.66.68,6.16,3.53.04,12.19.09h.01l.26-33.41v-1.51Z"/>
    <path class="cls-2" d="M191.35,48.72h0s-.04-.01-.04-.01l.05-1.71.09-10.7-1.24-.04-.34,10.84v.1l-.05,1.47-.05,1.53h0s.04.01.04.01l3.05.03,3.95.03,4.96.04h.02c.56-.12,1.11-.27,1.66-.43.36-.11.7-.22.99-.34.01,0,.03-.01.04-.01l.26-.15h.11c.19-.08.39-.17.58-.26.18-.1.36-.19.53-.28,0-.01.01-.01.01-.01l-14.62-.11ZM191.35,48.72h0s-.04-.01-.04-.01l.05-1.71.09-10.7-1.24-.04-.34,10.84v.1l-.05,1.47-.05,1.53h0s.04.01.04.01l3.05.03,3.95.03,4.96.04h.02c.56-.12,1.11-.27,1.66-.43.36-.11.7-.22.99-.34.01,0,.03-.01.04-.01l.26-.15h.11c.38-.17.75-.34,1.11-.54,0-.01.01-.01.01-.01l-14.62-.11ZM189.82,48.67s.02,0,.03,0h.01s.01-1.48.01-1.48l-.05,1.47ZM189.82,48.67s.02,0,.03,0h.01s.01-1.48.01-1.48l-.05,1.47ZM208.21,27.96s-.04-.03-.05-.04c-1.08-.63-2.22-1.18-3.42-1.64-3.08-1.18-6.35-1.79-9.81-1.82h-.25c-3.68,0-6.76.64-9.22,1.92-1.28.66-2.39,1.49-3.34,2.49-.76.81-1.42,1.66-1.98,2.57,0,.02-.01.04-.02.05-1.22,1.99-1.94,4.23-2.19,6.71v.06c.21,2.57.91,4.85,2.1,6.83h0s.01.02.01.03c.62,1.02,1.37,1.96,2.24,2.82.71.7,1.52,1.32,2.42,1.86.16.1.32.19.48.28-.29-.22-.56-.46-.81-.71-1.38-1.35-2.34-2.93-2.9-4.79h0c-.43-1.39-.63-2.91-.62-4.6,0-.5.03-1,.07-1.5.01-.1.02-.2.03-.29.33-2.84,1.44-5.22,3.36-7.25,2.17-2.3,5.66-3.47,10.36-3.47h.23c3.07.02,6.02.57,8.76,1.62.58.22,1.15.47,1.7.75.9.44,1.76.95,2.57,1.52l2.48.02h2.24c-1.34-1.33-2.82-2.48-4.44-3.42ZM191.35,48.71h-.04l.05-1.71.09-10.7-1.24-.04-.34,10.84v.1l-.05,1.47-.05,1.53s.02.01.04.01l3.05.03,3.95.03,4.96.04h.02c.56-.12,1.11-.27,1.66-.43.36-.11.7-.22.99-.34.01,0,.03-.01.04-.01l.26-.15h.11c.38-.17.75-.34,1.11-.54,0-.01.01-.01.01-.01l-14.62-.11h0ZM189.82,48.67s.02,0,.03,0h.01s.01-1.48.01-1.48l-.05,1.47ZM191.35,48.72h0s-.04-.01-.04-.01l.05-1.71.09-10.7-1.24-.04-.34,10.84v.1l-.05,1.47-.05,1.53h0s.04.01.04.01l3.05.03,3.95.03,4.96.04h.02c.56-.12,1.11-.27,1.66-.43.36-.11.7-.22.99-.34.01,0,.03-.01.04-.01l.26-.15h.11c.38-.17.75-.34,1.11-.54,0-.01.01-.01.01-.01l-14.62-.11ZM191.35,48.72h0s-.04-.01-.04-.01l.05-1.71.09-10.7-1.24-.04-.34,10.84v.1l-.05,1.47-.05,1.53h0s.04.01.04.01l3.05.03,3.95.03,4.96.04h.02c.56-.12,1.11-.27,1.66-.43.36-.11.7-.22.99-.34.01,0,.03-.01.04-.01l.26-.15h.11c.38-.17.75-.34,1.11-.54,0-.01.01-.01.01-.01l-14.62-.11ZM191.35,48.72h0s-.04-.01-.04-.01l.05-1.71.09-10.7-1.24-.04-.34,10.84v.1l-.05,1.47-.05,1.53h0s.04.01.04.01l3.05.03,3.95.03,4.96.04h.02c.56-.12,1.11-.27,1.66-.43.36-.11.7-.22.99-.34.01,0,.03-.01.04-.01l.26-.15h.11c.38-.17.75-.34,1.11-.54,0-.01.01-.01.01-.01l-14.62-.11ZM191.35,48.72h0s-.04-.01-.04-.01l.05-1.71.09-10.7-1.24-.04-.34,10.84v.1l-.05,1.47-.05,1.53h0s.04.01.04.01l3.05.03,3.95.03,4.96.04h.02c.56-.12,1.11-.27,1.66-.43.36-.11.7-.22.99-.34.01,0,.03-.01.04-.01l.26-.15h.11c.38-.17.75-.34,1.11-.54,0-.01.01-.01.01-.01l-14.62-.11ZM189.82,48.67s.02,0,.03,0h.01s.01-1.48.01-1.48l-.05,1.47ZM189.82,48.67s.02,0,.03,0h.01s.01-1.48.01-1.48l-.05,1.47ZM208.21,27.96s-.04-.03-.05-.04c-1.08-.63-2.22-1.18-3.42-1.64-3.08-1.18-6.35-1.79-9.81-1.82h-.25c-3.68,0-6.76.64-9.22,1.92-1.28.66-2.39,1.49-3.34,2.49-.76.81-1.42,1.66-1.98,2.57,0,.02-.01.04-.02.05-1.22,1.99-1.94,4.23-2.19,6.71v.06c.21,2.57.91,4.85,2.1,6.83h0s.01.02.01.03c.62,1.02,1.37,1.96,2.24,2.82.71.7,1.52,1.32,2.42,1.86.16.1.32.19.48.28-.29-.22-.56-.46-.81-.71-1.38-1.35-2.34-2.93-2.9-4.79h0c-.43-1.39-.63-2.91-.62-4.6,0-.5.03-1,.07-1.5.01-.1.02-.2.03-.29.33-2.84,1.44-5.22,3.36-7.25,2.17-2.3,5.66-3.47,10.36-3.47h.23c3.07.02,6.02.57,8.76,1.62.58.22,1.15.47,1.7.75.9.44,1.76.95,2.57,1.52l2.48.02h2.24c-1.34-1.33-2.82-2.48-4.44-3.42ZM191.35,48.71h-.04l.05-1.71.09-10.7-1.24-.04-.34,10.84v.1l-.05,1.47-.05,1.53s.02.01.04.01l3.05.03,3.95.03,4.96.04h.02c.56-.12,1.11-.27,1.66-.43.36-.11.7-.22.99-.34.01,0,.03-.01.04-.01l.26-.15h.11c.38-.17.75-.34,1.11-.54,0-.01.01-.01.01-.01l-14.62-.11h0ZM189.82,48.67s.02,0,.03,0h.01s.01-1.48.01-1.48l-.05,1.47ZM191.35,48.72h0s-.04-.01-.04-.01l.05-1.71.09-10.7-1.24-.04-.34,10.84v.1l-.05,1.47-.05,1.53h0s.04.01.04.01l3.05.03,3.95.03,4.96.04h.02c.56-.12,1.11-.27,1.66-.43.36-.11.7-.22.99-.34.01,0,.03-.01.04-.01l.26-.15h.11c.38-.17.75-.34,1.11-.54,0-.01.01-.01.01-.01l-14.62-.11ZM191.35,48.72h0s-.04-.01-.04-.01l.05-1.71.09-10.7-1.24-.04-.34,10.84v.1l-.05,1.47-.05,1.53h0s.04.01.04.01l3.05.03,3.95.03,4.96.04h.02c.56-.12,1.11-.27,1.66-.43.36-.11.7-.22.99-.34.01,0,.03-.01.04-.01l.26-.15h.11c.38-.17.75-.34,1.11-.54,0-.01.01-.01.01-.01l-14.62-.11ZM191.35,48.72h0s-.04-.01-.04-.01l.05-1.71.09-10.7-1.24-.04-.34,10.84v.1l-.05,1.47-.05,1.53h0s.04.01.04.01l3.05.03,3.95.03,4.96.04h.02c.56-.12,1.11-.27,1.66-.43.36-.11.7-.22.99-.34.01,0,.03-.01.04-.01l.26-.15h.11c.38-.17.75-.34,1.11-.54,0-.01.01-.01.01-.01l-14.62-.11ZM189.82,48.67s.02,0,.03,0h.01s.01-1.48.01-1.48l-.05,1.47ZM189.82,48.67s.02,0,.03,0h.01s.01-1.48.01-1.48l-.05,1.47ZM208.21,27.96s-.04-.03-.05-.04c-1.08-.63-2.22-1.18-3.42-1.64-3.08-1.18-6.35-1.79-9.81-1.82h-.25c-3.68,0-6.76.64-9.22,1.92-1.28.66-2.39,1.49-3.34,2.49-.76.81-1.42,1.66-1.98,2.57,0,.02-.01.04-.02.05-1.22,1.99-1.94,4.23-2.19,6.71v.06c.21,2.57.91,4.85,2.1,6.83h0s.01.02.01.03c.62,1.02,1.37,1.96,2.24,2.82.71.7,1.52,1.32,2.42,1.86.16.1.32.19.48.28-.29-.22-.56-.46-.81-.71-1.38-1.35-2.34-2.93-2.9-4.79h0c-.43-1.39-.63-2.91-.62-4.6,0-.5.03-1,.07-1.5.01-.1.02-.2.03-.29.33-2.84,1.44-5.22,3.36-7.25,2.17-2.3,5.66-3.47,10.36-3.47h.23c3.07.02,6.02.57,8.76,1.62.58.22,1.15.47,1.7.75.9.44,1.76.95,2.57,1.52l2.48.02h2.24c-1.34-1.33-2.82-2.48-4.44-3.42ZM191.35,48.71h-.04l.05-1.71.09-10.7-1.24-.04-.34,10.84v.1l-.05,1.47-.05,1.53s.02.01.04.01l3.05.03,3.95.03,4.96.04h.02c.56-.12,1.11-.27,1.66-.43.36-.11.7-.22.99-.34.01,0,.03-.01.04-.01l.26-.15h.11c.38-.17.75-.34,1.11-.54,0-.01.01-.01.01-.01l-14.62-.11h0ZM189.82,48.67s.02,0,.03,0h.01s.01-1.48.01-1.48l-.05,1.47ZM191.35,48.72h0s-.04-.01-.04-.01l.05-1.71.09-10.7-1.24-.04-.34,10.84v.1l-.05,1.47-.05,1.53h0s.04.01.04.01l3.05.03,3.95.03,4.96.04h.02c.56-.12,1.11-.27,1.66-.43.36-.11.7-.22.99-.34.01,0,.03-.01.04-.01l.26-.15h.11c.38-.17.75-.34,1.11-.54,0-.01.01-.01.01-.01l-14.62-.11ZM196.83,47.25l-3.95-.03.08-10.89v-1.52s.03-1.5.03-1.5h-.15l-.12,3.03-1.02-.03h-.25s-1.24-.05-1.24-.05l-.34,10.84v.1l-.05,1.47-.05,1.53h0s.04.01.04.01l3.05.03,3.95.03,4.96.04h.02l3.02.02h.03l.21.38v.21s.06-.02.09-.03h0c1.99-.79,3.7-1.97,5.15-3.53l-13.47-.11ZM196.83,47.25l-3.95-.03.08-10.89v-1.52s.03-1.5.03-1.5h-.15l-.12,3.03-1.02-.03h-.25s-1.24-.05-1.24-.05l-.34,10.84v.1l-.05,1.47-.05,1.53h0s.04.01.04.01l3.05.03,3.95.03,4.96.04h.02l3.02.02h.03l.21.38v.21s.06-.02.09-.03h0c1.99-.79,3.7-1.97,5.15-3.53l-13.47-.11ZM233.77,33.63h-1.14s-1.5-.02-1.5-.02v1.5s-.02,1.51-.02,1.51l-.26,33.41h-.01v1.51s-.02,1.5-.02,1.5v.57l-15.73-.12-.06-.57-.17-1.51-1.52-13.75c-.25.78-.54,1.51-.85,2.24v.02c-1.67,3.97-4.16,7.1-7.45,9.39-.44.3-.89.6-1.36.87-4.52,2.65-10.01,3.98-16.46,3.98h-.37c-6.01-.05-11.35-1.43-16-4.15-.59-.34-1.16-.71-1.71-1.1-.07-.04-.14-.09-.22-.14-3.75-2.6-6.73-6.07-8.97-10.37-.5-.96-.95-1.95-1.36-2.97,0,0-.01-.03-.01-.04-1.7-4.31-2.52-9.15-2.47-14.53,0-.61.01-1.21.04-1.79,0-.05,0-.1.01-.15-.01-.54-.02-1.08-.01-1.63.04-5.7.99-10.75,2.86-15.16,1.61-3.84,3.91-7.19,6.9-10.05,1.1-1.06,2.31-2.02,3.62-2.89-2.13,1.23-4.05,2.66-5.75,4.28-2.48,2.37-4.53,5.06-6.15,8.05-.02.02-.03.04-.03.05-.87,1.62-1.62,3.32-2.23,5.12-.09.22-.16.44-.22.66-1.17,3.54-1.84,7.4-2.01,11.59-.01,0,0,.03,0,.05v.15c-.03.6-.04,1.16-.05,1.69-.02,2.86.19,5.61.64,8.21.09.51.18,1.01.29,1.51.14.68.3,1.34.48,2h0s0,.03.01.04c.29,1.13.64,2.23,1.04,3.3.11.31.23.61.34.91.42,1.02.88,2.02,1.38,2.99,2.87,5.52,6.93,9.83,12.06,12.83,5.08,2.97,10.97,4.5,17.5,4.55h.4c6.96,0,13.01-1.48,17.98-4.39,2.38-1.4,4.45-3.15,6.19-5.25l.7,6.29.29,2.66,2.68.02,15.72.12h1.85s1.17.02,1.17.02l.02-3.01v-.56l.03-3.01.26-33.41.02-3.02h-.37ZM189.82,48.67s.02,0,.03,0h.01s.01-1.48.01-1.48l-.05,1.47ZM235.24,22.99s.01-.01,0-.02l-.07-.08h0s-1.46-1.9-1.46-1.9l-.09-.12-.12-.15-.25-.33c-.23-.29-.46-.58-.7-.87-.5-.63-1.02-1.24-1.55-1.82-2.63-2.9-5.59-5.37-8.84-7.37,2.16,1.48,4.15,3.19,6,5.14.95,1,1.86,2.06,2.72,3.19-.23.11-.47.23-.73.37-.41.2-.87.43-1.38.69.35.38.69.78,1.02,1.18.33.39.65.78.96,1.19.04.04.07.09.11.14-2.59,1.3-7.59,3.86-14.97,7.68-.27.14-.54.28-.81.42l-1.94,1.07-.31.17-.18-.18c-1.34-1.34-2.82-2.49-4.44-3.43-.02-.02-.04-.03-.05-.04-1.08-.63-2.22-1.18-3.42-1.64-3.08-1.18-6.35-1.79-9.81-1.82h-.25c-3.68,0-6.76.64-9.22,1.92-1.28.66-2.39,1.49-3.34,2.49-.76.81-1.42,1.66-1.98,2.57,0,.02-.01.04-.02.05-1.22,1.99-1.94,4.23-2.19,6.71v.06c.21,2.57.91,4.85,2.1,6.83h0s.01.02.01.03c.62,1.02,1.37,1.96,2.24,2.82.71.7,1.52,1.32,2.42,1.86.16.1.32.19.48.28-.29-.22-.56-.46-.81-.71-1.38-1.35-2.34-2.93-2.9-4.79h0c-.43-1.39-.63-2.91-.62-4.6,0-.5.03-1,.07-1.5.01-.1.02-.2.03-.29.33-2.84,1.44-5.22,3.36-7.25,2.17-2.3,5.66-3.47,10.36-3.47h.23c3.07.02,6.02.57,8.76,1.62.58.22,1.15.47,1.7.75.9.44,1.76.95,2.57,1.52.67.46,1.3.97,1.91,1.52l2.19.02h1.47s.01,0,.01,0l3.08.03c1-.52,1.96-1.02,2.88-1.49,1.01-.52,1.98-1.02,2.89-1.49,4.46-2.3,7.81-4.01,9.85-5.03l1.47-.73.08-.04,1.42-.71.07-.04.24-.12-.25-.3ZM191.35,48.71h-.04l.05-1.71.09-10.7-1.24-.04-.34,10.84v.1l-.05,1.47-.05,1.53s.02.01.04.01l3.05.03,3.95.03,4.96.04h.02c.56-.12,1.11-.27,1.66-.43.36-.11.7-.22.99-.34.01,0,.03-.01.04-.01l.26-.15h.11c.38-.17.75-.34,1.11-.54,0-.01.01-.01.01-.01l-14.62-.11h0ZM189.82,48.67s.02,0,.03,0h.01s.01-1.48.01-1.48l-.05,1.47ZM196.83,47.25l-3.95-.03.08-10.89v-1.52s.03-1.5.03-1.5h-.15l-.12,3.03-1.02-.03h-.25s-1.24-.05-1.24-.05l-.34,10.84v.1l-.05,1.47-.05,1.53h0s.04.01.04.01l3.05.03,3.95.03,4.96.04h.02l3.02.02h.03l.21.38v.21s.06-.02.09-.03h0c1.99-.79,3.7-1.97,5.15-3.53l-13.47-.11ZM191.35,48.72h0s-.04-.01-.04-.01l.05-1.71.09-10.7-1.24-.04-.34,10.84v.1l-.05,1.47-.05,1.53h0s.04.01.04.01l3.05.03,3.95.03,4.96.04h.02c.56-.12,1.11-.27,1.66-.43.36-.11.7-.22.99-.34.01,0,.03-.01.04-.01l.26-.15h.11c.38-.17.75-.34,1.11-.54,0-.01.01-.01.01-.01l-14.62-.11ZM189.82,48.67s.02,0,.03,0h.01s.01-1.48.01-1.48l-.05,1.47ZM189.82,48.67s.02,0,.03,0h.01s.01-1.48.01-1.48l-.05,1.47ZM208.21,27.96s-.04-.03-.05-.04c-1.08-.63-2.22-1.18-3.42-1.64-3.08-1.18-6.35-1.79-9.81-1.82h-.25c-3.68,0-6.76.64-9.22,1.92-1.28.66-2.39,1.49-3.34,2.49-.76.81-1.42,1.66-1.98,2.57,0,.02-.01.04-.02.05-1.22,1.99-1.94,4.23-2.19,6.71v.06c.21,2.57.91,4.85,2.1,6.83h0s.01.02.01.03c.62,1.02,1.37,1.96,2.24,2.82.71.7,1.52,1.32,2.42,1.86.16.1.32.19.48.28-.29-.22-.56-.46-.81-.71-1.38-1.35-2.34-2.93-2.9-4.79h0c-.43-1.39-.63-2.91-.62-4.6,0-.5.03-1,.07-1.5.01-.1.02-.2.03-.29.33-2.84,1.44-5.22,3.36-7.25,2.17-2.3,5.66-3.47,10.36-3.47h.23c3.07.02,6.02.57,8.76,1.62.58.22,1.15.47,1.7.75.9.44,1.76.95,2.57,1.52l2.48.02h2.24c-1.34-1.33-2.82-2.48-4.44-3.42ZM191.35,48.71h-.04l.05-1.71.09-10.7-1.24-.04-.34,10.84v.1l-.05,1.47-.05,1.53s.02.01.04.01l3.05.03,3.95.03,4.96.04h.02c.56-.12,1.11-.27,1.66-.43.36-.11.7-.22.99-.34.01,0,.03-.01.04-.01l.26-.15h.11c.38-.17.75-.34,1.11-.54,0-.01.01-.01.01-.01l-14.62-.11h0ZM189.82,48.67s.02,0,.03,0h.01s.01-1.48.01-1.48l-.05,1.47ZM191.35,48.72h0s-.04-.01-.04-.01l.05-1.71.09-10.7-1.24-.04-.34,10.84v.1l-.05,1.47-.05,1.53h0s.04.01.04.01l3.05.03,3.95.03,4.96.04h.02c.56-.12,1.11-.27,1.66-.43.36-.11.7-.22.99-.34.01,0,.03-.01.04-.01l.26-.15h.11c.38-.17.75-.34,1.11-.54,0-.01.01-.01.01-.01l-14.62-.11ZM189.82,48.67s.02,0,.03,0h.01s.01-1.48.01-1.48l-.05,1.47ZM189.82,48.67s.02,0,.03,0h.01s.01-1.48.01-1.48l-.05,1.47ZM208.21,27.96s-.04-.03-.05-.04c-1.08-.63-2.22-1.18-3.42-1.64-3.08-1.18-6.35-1.79-9.81-1.82h-.25c-3.68,0-6.76.64-9.22,1.92-1.28.66-2.39,1.49-3.34,2.49-.76.81-1.42,1.66-1.98,2.57,0,.02-.01.04-.02.05-1.22,1.99-1.94,4.23-2.19,6.71v.06c.21,2.57.91,4.85,2.1,6.83h0s.01.02.01.03c.62,1.02,1.37,1.96,2.24,2.82.71.7,1.52,1.32,2.42,1.86.16.1.32.19.48.28-.29-.22-.56-.46-.81-.71-1.38-1.35-2.34-2.93-2.9-4.79h0c-.43-1.39-.63-2.91-.62-4.6,0-.5.03-1,.07-1.5.01-.1.02-.2.03-.29.33-2.84,1.44-5.22,3.36-7.25,2.17-2.3,5.66-3.47,10.36-3.47h.23c3.07.02,6.02.57,8.76,1.62.58.22,1.15.47,1.7.75.9.44,1.76.95,2.57,1.52l2.48.02h2.24c-1.34-1.33-2.82-2.48-4.44-3.42ZM191.35,48.71h-.04l.05-1.71.09-10.7-1.24-.04-.34,10.84v.1l-.05,1.47-.05,1.53s.02.01.04.01l3.05.03,3.95.03,4.96.04h.02c.56-.12,1.11-.27,1.66-.43.36-.11.7-.22.99-.34.01,0,.03-.01.04-.01l.26-.15h.11c.38-.17.75-.34,1.11-.54,0-.01.01-.01.01-.01l-14.62-.11h0ZM189.82,48.67s.02,0,.03,0h.01s.01-1.48.01-1.48l-.05,1.47ZM191.35,48.72h0s-.04-.01-.04-.01l.05-1.71.09-10.7-1.24-.04-.34,10.84v.1l-.05,1.47-.05,1.53h0s.04.01.04.01l3.05.03,3.95.03,4.96.04h.02c.56-.12,1.11-.27,1.66-.43.36-.11.7-.22.99-.34.01,0,.03-.01.04-.01l.26-.15h.11c.38-.17.75-.34,1.11-.54,0-.01.01-.01.01-.01l-14.62-.11ZM191.35,48.72h0s-.04-.01-.04-.01l.05-1.71.09-10.7-1.24-.04-.34,10.84v.1l-.05,1.47-.05,1.53h0s.04.01.04.01l3.05.03,3.95.03,4.96.04h.02c.56-.12,1.11-.27,1.66-.43.36-.11.7-.22.99-.34.01,0,.03-.01.04-.01l.26-.15h.11c.38-.17.75-.34,1.11-.54,0-.01.01-.01.01-.01l-14.62-.11ZM191.35,48.72h0s-.04-.01-.04-.01l.05-1.71.09-10.7-1.24-.04-.34,10.84v.1l-.05,1.47-.05,1.53h0s.04.01.04.01l3.05.03,3.95.03,4.96.04h.02c.56-.12,1.11-.27,1.66-.43.36-.11.7-.22.99-.34.01,0,.03-.01.04-.01l.26-.15h.11c.19-.08.39-.17.58-.26.18-.1.36-.19.53-.28,0-.01.01-.01.01-.01l-14.62-.11Z"/>
  </g>
  <g>
    <path class="cls-2" d="M307.25,7.84l-.12,15.61v1.51s-.03,2.07-.03,2.07l-4.74-.04-2.26-.02h-.41l-39.42-.31h-1.5s-.02,2.01-.02,2.01v1.5c-.55-.01-1.05-.02-1.52-.03l.04-5.01.03-3.57,48.33.37.1-12.59h0s.01-1.51.01-1.51h1.51Z"/>
    <path class="cls-2" d="M300.8,32.04l-.11,14.91v1.51s-.03,2.02-.03,2.02v.05l-.67-.03h-.03l-.86-.04c-10.06-.44-19.93-.69-29.33-.77-3.02-.02-5.69-.03-7.94-.03-.6,0-1.18,0-1.73.01-.53-.01-1.04,0-1.51,0l-.02,2.73v1.5h-1.52s.04-5.72.04-5.72l.03-3.58c1.27-.02,2.8-.02,4.59-.02,2.27,0,4.97.01,8.1.03,9.47.07,19.26.33,29.39.77l.09-11.66v-1.64s1.51-.04,1.51-.04Z"/>
    <path class="cls-2" d="M308.07,55.29l-.34,1.86c-.42,2.34-.69,4.8-.8,7.34-.08,1.88-.14,4.13-.17,6.85v.8c-.02.49-.02.99-.03,1.51v2.07s-72.5-.56-72.5-.56l.07-1.57c.01-.17.02-.34.02-.5.03-.51.05-1.01.07-1.51.52-10.78.8-20.98.88-30.36,0-.47.01-.94.01-1.42-.01-.37,0-.74,0-1.11.02-4.87-.01-9.97-.1-15.24,0-.19-.01-.37-.01-.56h0c-.02-.99-.04-1.98-.06-2.97,0-.25-.01-.49-.02-.74-.07-3.38-.16-6.83-.28-10.33l-.06-1.58h1.66c.02.52.04,1.03.05,1.53.3,10.22.42,19.84.34,28.86,0,.3,0,.61-.01.91v.12c-.08,9.77-.4,20.23-.95,31.39h.14l3.95.03,65.33.51c.02-3.93.09-7.19.2-9.78.06-1.28.15-2.53.29-3.77.01-.06.01-.11.02-.17.05-.51.11-1.01.18-1.52.08,0,.15-.01.23-.01l1.3-.05.59-.03Z"/>
    <path class="cls-2" d="M300.82,30.53l-1.5.05-.02,1.5v1.51s-.01.13-.01.13l-.09,11.66v1.5s-.03,1.51-.03,1.51v.56c-10.13-.43-19.92-.69-29.39-.76-3.06-.02-5.71-.04-7.95-.04-.6,0-1.18,0-1.72,0-.53,0-1.03,0-1.51.01-.54,0-1.04,0-1.51,0l-.04,5.71h0s1.51.01,1.51.01c.51,0,1.01,0,1.51,0v-1.51s.02-1.23.02-1.23h1.74c2.26,0,4.93.02,7.93.04,9.38.07,19.24.33,29.28.76l.93.05h.16l2.03.08v-1.67s.02-1.45.02-1.45v-.46l.03-3.12.1-11.78.02-3.13-1.51.04ZM309.27,53.73l-1.55.07-1.53.07c-.09.5-.17,1.01-.24,1.51-.07.51-.13,1.01-.18,1.52.17-.01.33-.01.49-.02-.44,2.44-.71,4.95-.83,7.54-.09,2.12-.15,4.69-.18,7.71-.01.49-.01.99-.02,1.51v.56l-69.42-.54c.01-.19.02-.38.03-.56.02-.51.05-1.01.07-1.51.02-.51.05-1.01.07-1.51h-.14c.55-11.16.87-21.62.95-31.39v-.12c.04-9.3-.12-19.22-.48-29.77h.15c0-.5-.03-1.01-.05-1.52-.01-.5-.03-1-.04-1.5h-1.52s-1.51-.02-1.51-.02h-.15l.11,3.13c.09,2.8.17,5.56.24,8.27.03,1.18.05,2.34.07,3.5.01.07.01.14.01.21.02,1.12.04,2.23.06,3.33.03,1.98.06,3.93.07,5.85.01,1.2.02,2.4.02,3.58.01,1.99.01,3.95,0,5.87,0,.16,0,.33-.01.49v1.22c-.08,9.8-.39,20.51-.95,31.85v.02c-.01.14-.01.29-.02.43l-.15,3.12v.02l3.14.02,69.42.54,3.02.03.02-3.02v-.56c0-.4.01-.79.02-1.18v-1.12s.02-.72.02-.72c.04-2.39.09-4.4.17-6.09.1-2.47.37-4.87.77-7.14l.67-3.71-.62.03ZM307.26,6.34l-1.5-.02-.02,1.51v1.5s-.01.01-.01.01l-.1,14.1-.02,1.51v.56l-45.32-.36h-1.51s-1.51-.02-1.51-.02l-.04,5.01c.47.01.97.02,1.51.03.47,0,.97.02,1.5.03l.02-1.5v-.53l39.64.32h2.44s3.24.04,3.24.04l3.02.02.02-3.02v-.56l.03-3.02.09-12.59.03-3.01h-1.51Z"/>
  </g>
  <g>
    <path class="cls-1" d="M80.04,2.47l-23.98-.18-.02,2.06-.17,22.24h-1.49s-26.84-.23-26.84-.23h-1.52s-.01-.01-.01-.01l.16-20.72v-1.51s.03-2.07.03-2.07l-24.07-.19.05,1.57c0,.17,0,.34.02.51,0,.5.03.99.05,1.49.01.53.03,1.06.05,1.58.29,10.21.41,19.91.34,28.8,0,.55-.01,1.1-.01,1.66v.42c-.1,9.28-.42,19.46-.95,30.28l-.07,1.57h.14l1.42.02h.08l20.92.16h1.5s.16-19.41.16-19.41v-1.3s.02-1.51.02-1.51l.02-2.07,29.86.23-.02,2.07v1.51s-.17,20.72-.17,20.72h1.51s20.84.18,20.84.18h.07l1.51.02h.14l-.04-1.14-.02-.44c-.29-8.81-.42-18.27-.38-28.15,0-.36,0-.73,0-1.09,0-.69,0-1.38.01-2.08v-1.05c.08-10.24.32-19.92.71-28.8v-.06c.03-.5.05-1,.08-1.5,0-.19.01-.37.02-.55.01-.32.03-.63.05-.94h0c0-.18.01-.34.02-.51l.02-.34.06-1.24h-.1ZM61.01,68.69l-3.95-.03.16-20.72.03-3.58-32.88-.25-.03,3.57h0s-.16,20.73-.16,20.73l-16.9-.13-3.96-.03c.47-10.22.74-19.83.8-28.85.01-.57.01-1.13.02-1.69v-.24c0-.55,0-1.1,0-1.65v-1.22c.06-8.66-.06-17.88-.34-27.64-.02-.5-.03-1-.05-1.51-.01-.5-.03-1-.05-1.5,0-.19,0-.38-.02-.57l21,.17v.56l-.02,1.51v1.5s-.17,20.73-.17,20.73h1.51s1.52.02,1.52.02h.93s25.91.22,25.91.22l3,.02h.01l.16-20.73v-1.51s.03-1.5.03-1.5v-.56l20.99.16c-.01.19-.02.37-.03.56-.02.5-.04,1-.06,1.51-.03.5-.05,1-.07,1.5-.4,9.04-.63,18.66-.71,28.85,0,.36,0,.71,0,1.07-.01.83-.02,1.67-.02,2.51-.09,10.19,0,19.82.25,28.86l-16.9-.14Z"/>
    <path class="cls-2" d="M79.99.97h-1.41s-20.99-.17-20.99-.17l-3.02-.02-.02,3.01-.03,3.58-.14,17.71-25.9-.2h-.93s-.01-.01-.01-.01l.14-17.71.02-3.03v-.55l.03-3.01-3.02-.03L3.72.37l-3.15-.03.11,3.14c0,.15,0,.3,0,.44.04,1.05.06,2.1.1,3.13.3,10.2.42,19.87.35,28.75,0,.54-.01,1.08-.02,1.63v.28c-.09,9.3-.41,19.52-.94,30.39l-.15,3.13h.14l1.5.02,1.49.02h.13l3.97.03,16.89.13h1.52s1.5.02,1.5.02l.03-3.02.14-17.7.02-3.02v-.56l26.85.21v2.07s-.02,1.51-.02,1.51l-.15,17.71-.02,3.01h1.51s1.5.02,1.5.02h.01l3.95.03,16.9.14h1.55s.14.01.14.01l1.46.02h.13l-.04-1.04v-.47s-.05-1.33-.05-1.33v-.31c-.31-8.84-.44-18.33-.4-28.25v-.62c0-.79,0-1.58,0-2.38v-.02c0-.34,0-.69.01-1.03.08-10.23.32-19.89.7-28.75v-.12h.01c.04-1.01.09-2,.14-2.99,0-.15.01-.29.02-.44l.02-.38h0s.06-1.25.06-1.25l.08-1.51-1.74-.02ZM57.06,68.66l.16-20.72.03-3.58-32.88-.25-.03,3.57h0s-.16,20.73-.16,20.73l-16.9-.13-3.96-.03h-.13c.5-10.19.81-19.81.93-28.85.01-.57.01-1.13.02-1.69v-.24c0-.55,0-1.1,0-1.65v-1.22c.06-8.66-.06-17.88-.34-27.64-.02-.5-.03-1-.05-1.51-.01-.5-.03-1-.05-1.5,0-.19,0-.38-.02-.57l21,.17v.56l-.02,1.51v1.5s-.17,20.73-.17,20.73h1.51s1.52.02,1.52.02h.93s25.91.22,25.91.22l3,.02h.01l.16-20.73v-1.51s.03-1.5.03-1.5v-.56l20.99.16c-.01.19-.02.37-.03.56-.02.5-.04,1-.06,1.51-.03.5-.05,1-.07,1.5-.4,9.04-.63,18.66-.71,28.85,0,.36,0,.71,0,1.07-.08,11.15.05,21.61.38,31.37h-.15l-16.9-.14-3.95-.03Z"/>
  </g>
  <g>
    <path class="cls-1" d="M146.05,32.38v.13l-.09,11.66c-10.12-.44-19.92-.69-29.39-.77-3.12-.02-5.82-.03-8.09-.03-1.8,0-3.33.01-4.6.02l-.07,9.3h.01l.04-5.72c.47,0,.97-.01,1.51-.01v-2.07h3.13c2.28,0,4.99.01,8.06.03,9.4.07,19.27.33,29.34.76h.06l.1-13.3h-.01ZM146.05,32.38v.13l-.09,11.66c-10.12-.44-19.92-.69-29.39-.77-3.12-.02-5.82-.03-8.09-.03-1.8,0-3.33.01-4.6.02l-.07,9.3h.01l.04-5.72c.47,0,.97-.01,1.51-.01v-2.07h3.13c2.28,0,4.99.01,8.06.03,9.4.07,19.27.33,29.34.76h.06l.1-13.3h-.01ZM146.05,32.38v.13l-.09,11.66c-10.12-.44-19.92-.69-29.39-.77-3.12-.02-5.82-.03-8.09-.03-1.8,0-3.33.01-4.6.02l-.07,9.3h.01l.04-5.72c.47,0,.97-.01,1.51-.01v-2.07h3.13c2.28,0,4.99.01,8.06.03,9.4.07,19.27.33,29.34.76h.06l.1-13.3h-.01ZM146.05,32.38v.13l-.09,11.66c-10.12-.44-19.92-.69-29.39-.77-3.12-.02-5.82-.03-8.09-.03-1.8,0-3.33.01-4.6.02l-.07,9.3h.01l.04-5.72c.47,0,.97-.01,1.51-.01v-2.07h3.13c2.28,0,4.99.01,8.06.03,9.4.07,19.27.33,29.34.76h.06l.1-13.3h-.01ZM154.02,50.55l-1.04.04c-1.25.06-2.6.11-4.05.15-.7.03-1.43.05-2.18.07h-.01c-8.75.26-20.67.39-35.57.39h-3.4c-.31,0-.62,0-.93,0-.5,0-1,0-1.5,0l.02-2.73v-1.5s.02-2.07.02-2.07h3.12c2.28,0,4.99.01,8.06.03,9.4.07,19.27.33,29.34.76h.06l1.49.07h0l.13-16.42.02-2.05v-.02l-.7.02h-.07l-.8.02c-7.95.22-15.78.34-23.28.34-2.04,0-4.06,0-6.06-.03-3.24-.02-6.17-.06-8.72-.09-.33-.01-.64-.01-.95-.02-.53-.01-1.03-.02-1.51-.03v-2.03s.03-1.5.03-1.5v-2.06s46.84.36,46.84.36h1.5s.12-15.61.12-15.61v-1.5s.03-2.06.03-2.06l-72.39-.57h-.1l.04,1.24h0s.01.33.01.33c.01.17.01.34.02.5.01.4.02.79.03,1.18v.03c.01.1.01.19.01.29.34,10.86.48,21.07.4,30.38,0,.62-.01,1.24-.02,1.87,0,.17,0,.33-.01.5-.1,9.28-.41,19.36-.94,29.99v.23s-.07,1.34-.07,1.34h.01s.12-.01.12-.01h1.53s69.33.56,69.33.56h1.5s.01.01.01.01v-1.42s.01-.09.01-.09c.03-3.93.1-7.2.21-9.72.05-1.25.15-2.49.27-3.67.07-.65.15-1.3.25-1.93.07-.52.15-1.03.23-1.52,0-.01.01-.02.01-.03h0c.01-.07.02-.13.03-.19l.34-1.86-.85.04ZM152.71,54.18c-.06.5-.12,1-.18,1.51-.01.06-.01.12-.02.18-.14,1.24-.23,2.49-.28,3.77-.12,2.59-.18,5.84-.21,9.77l-65.32-.5-3.95-.03c.46-10.22.73-19.83.8-28.85.01-.8.01-1.6.01-2.4v-.37c.01-.27.01-.54.01-.81v-1.25c.06-8.65-.06-17.86-.35-27.61-.01-.5-.03-1-.05-1.51,0-.5-.02-1-.04-1.5-.01-.19-.01-.38-.02-.57l69.41.55v2.06s-.02,1.51-.02,1.51l-.1,12.59-48.34-.37-.02,3.58-.04,5c.46.01.96.03,1.5.03.48.02.98.03,1.51.04.3.01.62.01.94.02,2.4.03,5.31.07,8.73.09,2.02.02,4.04.03,6.09.03,7.57,0,15.34-.12,23.31-.33v.56l-.02,1.5v1.51s-.01.13-.01.13l-.09,11.66c-10.12-.44-19.92-.69-29.39-.77-3.12-.02-5.82-.03-8.09-.03-1.8,0-3.33.01-4.6.02l-.07,9.3h1.51c.51,0,1.01,0,1.51,0h4.35c18.86,0,32.82-.2,41.86-.61-.03.19-.07.38-.09.57-.09.5-.17,1.01-.24,1.52ZM146.05,32.38v.13l-.09,11.66c-10.12-.44-19.92-.69-29.39-.77-3.12-.02-5.82-.03-8.09-.03-1.8,0-3.33.01-4.6.02l-.07,9.3h.01l.04-5.72c.47,0,.97-.01,1.51-.01v-2.07h3.13c2.28,0,4.99.01,8.06.03,9.4.07,19.27.33,29.34.76h.06l.1-13.3h-.01ZM146.05,32.38v.13l-.09,11.66c-10.12-.44-19.92-.69-29.39-.77-3.12-.02-5.82-.03-8.09-.03-1.8,0-3.33.01-4.6.02l-.07,9.3h.01l.04-5.72c.47,0,.97-.01,1.51-.01v-2.07h3.13c2.28,0,4.99.01,8.06.03,9.4.07,19.27.33,29.34.76h.06l.1-13.3h-.01ZM146.05,32.38v.13l-.09,11.66c-10.12-.44-19.92-.69-29.39-.77-3.12-.02-5.82-.03-8.09-.03-1.8,0-3.33.01-4.6.02l-.07,9.3h.01l.04-5.72c.47,0,.97-.01,1.51-.01v-2.07h3.13c2.28,0,4.99.01,8.06.03,9.4.07,19.27.33,29.34.76h.06l.1-13.3h-.01ZM146.05,32.38v.13l-.09,11.66c-10.12-.44-19.92-.69-29.39-.77-3.12-.02-5.82-.03-8.09-.03-1.8,0-3.33.01-4.6.02l-.07,9.3h.01l.04-5.72c.47,0,.97-.01,1.51-.01v-2.07h3.13c2.28,0,4.99.01,8.06.03,9.4.07,19.27.33,29.34.76h.06l.1-13.3h-.01Z"/>
    <path class="cls-2" d="M146.05,32.38v.13l-.09,11.66c-10.12-.44-19.92-.69-29.39-.77-3.12-.02-5.82-.03-8.09-.03-1.8,0-3.33.01-4.6.02l-.07,9.3h1.51l.03-4.23h.01v-1.5s.02-2.07.02-2.07h3.12c2.28,0,4.99.01,8.06.03,9.4.07,19.27.33,29.34.76h.06l.1-13.3h-.01ZM146.05,32.38v.13l-.09,11.66c-10.12-.44-19.92-.69-29.39-.77-3.12-.02-5.82-.03-8.09-.03-1.8,0-3.33.01-4.6.02l-.07,9.3h1.51l.03-4.23h.01v-1.5s.02-2.07.02-2.07h3.12c2.28,0,4.99.01,8.06.03,9.4.07,19.27.33,29.34.76h.06l.1-13.3h-.01ZM146.05,32.38v.13l-.09,11.66c-10.12-.44-19.92-.69-29.39-.77-3.12-.02-5.82-.03-8.09-.03-1.8,0-3.33.01-4.6.02l-.07,9.3h.01l.04-5.72c.47,0,.97-.01,1.51-.01v-2.07h3.13c2.28,0,4.99.01,8.06.03,9.4.07,19.27.33,29.34.76h.06l.1-13.3h-.01ZM146.05,32.38v.13l-.09,11.66c-10.12-.44-19.92-.69-29.39-.77-3.12-.02-5.82-.03-8.09-.03-1.8,0-3.33.01-4.6.02l-.07,9.3h.01l.04-5.72c.47,0,.97-.01,1.51-.01v-2.07h3.13c2.28,0,4.99.01,8.06.03,9.4.07,19.27.33,29.34.76h.06l.1-13.3h-.01ZM146.05,32.38v.13l-.09,11.66c-10.12-.44-19.92-.69-29.39-.77-3.12-.02-5.82-.03-8.09-.03-1.8,0-3.33.01-4.6.02l-.07,9.3h.01l.04-5.72c.47,0,.97-.01,1.51-.01v-2.07h3.13c2.28,0,4.99.01,8.06.03,9.4.07,19.27.33,29.34.76h.06l.1-13.3h-.01ZM146.05,32.38v.13l-.09,11.66c-10.12-.44-19.92-.69-29.39-.77-3.12-.02-5.82-.03-8.09-.03-1.8,0-3.33.01-4.6.02l-.07,9.3h.01l.04-5.72c.47,0,.97-.01,1.51-.01v-2.07h3.13c2.28,0,4.99.01,8.06.03,9.4.07,19.27.33,29.34.76h.06l.1-13.3h-.01ZM156.06,48.94l-.81.03-.72.04-.8.03-.82.04c-1.23.06-2.55.11-3.97.15-.49.02-1,.04-1.52.05-.18.01-.37.01-.56.01h-.07c-8.74.26-20.68.39-35.61.39h-4.33v-1.22s.02-1.5.02-1.5v-.57h1.61c2.28,0,4.99.01,8.07.03,9.38.08,19.24.33,29.28.77h.11l1.5.07,1.51.06.02-3.12.09-11.66.03-3.25v-2s.03-1.51.03-1.51v-.07l-2.05.06h-.12l-.95.02c-7.94.22-15.75.33-23.23.33-2.03,0-4.07,0-6.06-.02-3.23-.02-6.16-.05-8.71-.1-.34,0-.66-.01-.96-.01v-.54l.02-1.5v-.56l45.31.35h1.51s1.28.03,1.28.03h.23v-.69l.02-2.33.1-12.59.03-3.58.02-3.01-3.01-.03-69.42-.54h-1.4s-1.74-.03-1.74-.03l.05,1.5.04,1.24v.4c.01.15.02.3.02.44h0c.37,10.96.52,21.26.45,30.66v1.22c0,.39-.01.79-.01,1.19,0,.3-.01.61,0,.92-.11,9.34-.43,19.49-.95,30.19l-.02.49-.06,1.14-.02.55-.05.95h0s.14.01.14.01l1.46.02h1.54s.03.01.03.01l4.06.03,65.32.5h1.5s1.52.03,1.52.03h.01v-1.69s.02-.61.02-.61v-.72c.03-3.91.09-7.16.2-9.67.06-1.22.15-2.42.27-3.58.01-.1.02-.2.04-.3.1-.92.23-1.82.37-2.68.03-.2.07-.39.1-.58l.02-.11v-.02l.41-2.29.23-1.3-.62.03ZM82.75,68.88h-.15c.55-11.1.86-21.53.96-31.25v-.37c.01-.27.01-.54.01-.81v-1.25c.06-8.65-.06-17.86-.35-27.61-.01-.5-.03-1-.05-1.51,0-.5-.02-1-.04-1.5-.01-.19-.01-.38-.02-.57l69.41.55v2.06s-.02,1.51-.02,1.51l-.1,12.59-48.34-.37-.02,3.58-.04,5c.46.01.96.03,1.5.03.48.02.98.03,1.51.04.3.01.62.01.94.02,2.4.03,5.31.07,8.73.09,2.02.02,4.04.03,6.09.03,7.57,0,15.34-.12,23.31-.33v.56l-.02,1.5v1.51s-.01.13-.01.13l-.09,11.66c-10.12-.44-19.92-.69-29.39-.77-3.12-.02-5.82-.03-8.09-.03-1.8,0-3.33.01-4.6.02l-.07,9.3h1.51c.51,0,1.01,0,1.51,0h4.35c18.86,0,32.82-.2,41.86-.61-.03.19-.07.38-.09.57-.09.5-.17,1.01-.24,1.52-.06.5-.12,1-.18,1.51-.01.06-.01.12-.02.18-.14,1.24-.23,2.49-.28,3.77-.12,2.59-.18,5.84-.21,9.77l-65.32-.5-3.95-.03ZM146.05,32.38v.13l-.09,11.66c-10.12-.44-19.92-.69-29.39-.77-3.12-.02-5.82-.03-8.09-.03-1.8,0-3.33.01-4.6.02l-.07,9.3h.01l.04-5.72c.47,0,.97-.01,1.51-.01v-2.07h3.13c2.28,0,4.99.01,8.06.03,9.4.07,19.27.33,29.34.76h.06l.1-13.3h-.01ZM146.05,32.38v.13l-.09,11.66c-10.12-.44-19.92-.69-29.39-.77-3.12-.02-5.82-.03-8.09-.03-1.8,0-3.33.01-4.6.02l-.07,9.3h.01l.04-5.72c.47,0,.97-.01,1.51-.01v-2.07h3.13c2.28,0,4.99.01,8.06.03,9.4.07,19.27.33,29.34.76h.06l.1-13.3h-.01ZM146.05,32.38v.13l-.09,11.66c-10.12-.44-19.92-.69-29.39-.77-3.12-.02-5.82-.03-8.09-.03-1.8,0-3.33.01-4.6.02l-.07,9.3h.01l.04-5.72c.47,0,.97-.01,1.51-.01v-2.07h3.13c2.28,0,4.99.01,8.06.03,9.4.07,19.27.33,29.34.76h.06l.1-13.3h-.01ZM146.05,32.38v.13l-.09,11.66c-10.12-.44-19.92-.69-29.39-.77-3.12-.02-5.82-.03-8.09-.03-1.8,0-3.33.01-4.6.02l-.07,9.3h1.51l.03-4.23h.01v-1.5s.02-2.07.02-2.07h3.12c2.28,0,4.99.01,8.06.03,9.4.07,19.27.33,29.34.76h.06l.1-13.3h-.01Z"/>
  </g>
  <g>
    <path class="cls-1" d="M205.04,50.73l-.23-.4-3.02-.02h-.02c-1.81.41-3.65.61-5.51.61h-.2c-2.33-.02-4.42-.26-6.25-.71-.02,0-.03,0-.04-.01-1.64-.39-3.07-.96-4.3-1.7-.79-.47-1.51-1.02-2.13-1.64-.72-.7-1.34-1.46-1.87-2.28.56,1.86,1.52,3.44,2.9,4.79.25.25.52.49.81.71,2.79,1.53,6.42,2.31,10.87,2.35h.22c2.6,0,5.13-.37,7.61-1.11.4-.11.79-.25,1.17-.4v-.19ZM196.83,47.25l-3.95-.03.08-10.89v-1.52s.03-1.5.03-1.5v-.56l16.85.13c-.61-.55-1.24-1.06-1.91-1.52l-16.44-.13-.04,5.07-.09,10.7v1.71s-.01.01-.01.01l14.62.11h.03c-.18.1-.38.2-.57.29-.19.09-.39.18-.58.26h-.11l-.26.15s-.03.01-.04.01c-.29.12-.63.23-.99.34-.55.16-1.1.31-1.66.43h-.02c-1.81.41-3.65.61-5.51.61h-.2c-2.33-.02-4.42-.26-6.25-.71-.02,0-.03,0-.04-.01-1.64-.39-3.07-.96-4.3-1.7-.79-.47-1.51-1.02-2.13-1.64-.72-.7-1.34-1.46-1.87-2.28.56,1.86,1.52,3.44,2.9,4.79.25.25.52.49.81.71,2.79,1.53,6.42,2.31,10.87,2.35h.22c2.6,0,5.13-.37,7.61-1.11.4-.11.79-.25,1.17-.4.03-.01.06-.02.09-.03h0c1.99-.79,3.7-1.97,5.15-3.53l-13.47-.11ZM196.83,47.25l-3.95-.03.08-10.89v-1.52s.03-1.5.03-1.5v-.56l16.85.13c-.61-.55-1.24-1.06-1.91-1.52l-16.44-.13-.04,5.07-.09,10.7v1.71s-.01.01-.01.01l14.62.11h.03c-.18.1-.38.2-.57.29-.19.09-.39.18-.58.26h-.11l-.26.15s-.03.01-.04.01c-.29.12-.63.23-.99.34-.55.16-1.1.31-1.66.43h-.02c-1.81.41-3.65.61-5.51.61h-.2c-2.33-.02-4.42-.26-6.25-.71-.02,0-.03,0-.04-.01-1.64-.39-3.07-.96-4.3-1.7-.79-.47-1.51-1.02-2.13-1.64-.72-.7-1.34-1.46-1.87-2.28.56,1.86,1.52,3.44,2.9,4.79.25.25.52.49.81.71,2.79,1.53,6.42,2.31,10.87,2.35h.22c2.6,0,5.13-.37,7.61-1.11.4-.11.79-.25,1.17-.4.03-.01.06-.02.09-.03h0c1.99-.79,3.7-1.97,5.15-3.53l-13.47-.11ZM216.24,31.42l-3.1-.02h-.49s-2.24-.02-2.24-.02l-2.48-.02-16.44-.13-.04,5.07-.09,10.7v1.71s-.01.01-.01.01l14.62.11h.03c-.18.1-.38.2-.57.29-.19.09-.39.18-.58.26h-.11l-.26.15s-.03.01-.04.01c-.29.12-.63.23-.99.34-.55.16-1.1.31-1.66.43h-.02c-1.81.41-3.65.61-5.51.61h-.2c-2.33-.02-4.42-.26-6.25-.71-.02,0-.03,0-.04-.01-1.64-.39-3.07-.96-4.3-1.7-.79-.47-1.51-1.02-2.13-1.64-.72-.7-1.34-1.46-1.87-2.28h0c-1.16-1.83-1.82-3.94-2.04-6.37,0-.05-.01-.09-.01-.14-.04-.52-.05-1.07-.05-1.68.01-1.77.26-3.4.75-4.9.01-.01.02-.03.02-.05.64-1.9,1.67-3.6,3.1-5.12,2.48-2.61,6.33-3.93,11.47-3.93h.24c3.25.02,6.38.6,9.28,1.71,2.87,1.11,5.41,2.77,7.56,4.95l.8.81,3.23-1.77c6.05-3.14,10.64-5.5,13.62-7.02,0,0,.14-.07.35-.17.38-.19.97-.49,1.38-.69.18-.09.33-.16.4-.2l.98-.49.65-.33-1.11-1.45c-.89-1.16-1.84-2.27-2.83-3.31-3.62-3.81-7.87-6.81-12.64-8.89-6.02-2.61-13.05-3.97-20.89-4.03h-.68c-13.47,0-23.62,3.19-30.2,9.48-3.13,2.99-5.54,6.5-7.22,10.53-.02.02-.03.04-.03.05-1.93,4.6-2.92,9.84-2.97,15.71-.01.52,0,1.05.02,1.62v.21c.1,3.49.57,6.78,1.41,9.83.12.43.25.85.39,1.27.57,1.82,1.28,3.54,2.13,5.18,0,.01.01.03.01.04.02.03.03.06.05.09,2.18,4.19,5.08,7.66,8.61,10.31.91.69,1.88,1.33,2.86,1.9,4.85,2.84,10.49,4.31,16.76,4.36h-.01s.39-.01.39-.01c6.69,0,12.48-1.41,17.21-4.18,3.35-1.97,6.03-4.68,8.02-8.11v.11s.01.02.01.02l1.27,11.48h1.1s3.78.04,3.78.04l12.19.1h1.5s.29-36.42.29-36.42v-1.5s.03-2.07.03-2.07l-13.18-.1-3.23-.03ZM231.13,33.05v2.06s-.02,1.51-.02,1.51l-.26,33.41h-.01l-12.19-.09-3.53-.04-.68-6.16-1.07-9.66c-1.83,5.64-5.05,9.82-9.66,12.52-4.52,2.65-10,3.98-16.45,3.98h-.38c-6.01-.05-11.35-1.43-16-4.15-.95-.55-1.85-1.15-2.72-1.81-3.37-2.53-6.09-5.79-8.18-9.79-2.38-4.57-3.65-9.83-3.82-15.76v-.15c-.01-.54-.02-1.08-.01-1.63.04-5.7.99-10.75,2.86-15.16,1.61-3.84,3.91-7.19,6.9-10.05,1.1-1.06,2.31-2.02,3.62-2.89.02-.02.04-.03.07-.04,6.18-4.09,14.66-6.13,25.45-6.13h-.01s.67-.01.67-.01c7.69.06,14.45,1.37,20.3,3.91,2.17.95,4.22,2.09,6.15,3.41,2.16,1.48,4.15,3.19,6,5.14.95,1,1.86,2.06,2.72,3.19-.23.11-.47.23-.73.37-.41.2-.87.43-1.38.69h-.01c-2.98,1.52-7.53,3.86-13.66,7.03l-2.24,1.24c-2.31-2.34-5.01-4.11-8.09-5.29-3.09-1.19-6.36-1.79-9.81-1.82h-.25c-5.59,0-9.79,1.47-12.56,4.41-2.83,2.99-4.26,6.68-4.29,11.09,0,.62.02,1.22.06,1.82,0,.02,0,.04.01.06.21,2.57.91,4.85,2.1,6.83h0s.01.02.01.03c.62,1.02,1.37,1.96,2.24,2.82.71.7,1.52,1.32,2.42,1.86.16.1.32.19.48.28,2.79,1.53,6.42,2.31,10.87,2.35h.22c2.6,0,5.13-.37,7.61-1.11.4-.11.79-.25,1.17-.4.03-.01.06-.02.09-.03h0c1.99-.79,3.7-1.97,5.15-3.53l-13.47-.11-3.95-.03.08-10.89v-1.52s.03-1.5.03-1.5v-.56l16.85.13,2.19.02h1.47s.01,0,.01,0l3.08.03,14.54.11ZM196.83,47.25l-3.95-.03.08-10.89v-1.52s.03-1.5.03-1.5v-.56l16.85.13c-.61-.55-1.24-1.06-1.91-1.52l-16.44-.13-.04,5.07-.09,10.7v1.71s-.01.01-.01.01l14.62.11h.03c-.18.1-.38.2-.57.29-.19.09-.39.18-.58.26h-.11l-.26.15s-.03.01-.04.01c-.29.12-.63.23-.99.34-.55.16-1.1.31-1.66.43h-.02c-1.81.41-3.65.61-5.51.61h-.2c-2.33-.02-4.42-.26-6.25-.71-.02,0-.03,0-.04-.01-1.64-.39-3.07-.96-4.3-1.7-.79-.47-1.51-1.02-2.13-1.64-.72-.7-1.34-1.46-1.87-2.28.56,1.86,1.52,3.44,2.9,4.79.25.25.52.49.81.71,2.79,1.53,6.42,2.31,10.87,2.35h.22c2.6,0,5.13-.37,7.61-1.11.4-.11.79-.25,1.17-.4.03-.01.06-.02.09-.03h0c1.99-.79,3.7-1.97,5.15-3.53l-13.47-.11ZM205.04,50.73l-.23-.4-3.02-.02h-.02c-1.81.41-3.65.61-5.51.61h-.2c-2.33-.02-4.42-.26-6.25-.71-.02,0-.03,0-.04-.01-1.64-.39-3.07-.96-4.3-1.7-.79-.47-1.51-1.02-2.13-1.64-.72-.7-1.34-1.46-1.87-2.28.56,1.86,1.52,3.44,2.9,4.79.25.25.52.49.81.71,2.79,1.53,6.42,2.31,10.87,2.35h.22c2.6,0,5.13-.37,7.61-1.11.4-.11.79-.25,1.17-.4v-.19ZM205.04,50.73l-.23-.4-3.02-.02h-.02c-1.81.41-3.65.61-5.51.61h-.2c-2.33-.02-4.42-.26-6.25-.71-.02,0-.03,0-.04-.01-1.64-.39-3.07-.96-4.3-1.7-.79-.47-1.51-1.02-2.13-1.64-.72-.7-1.34-1.46-1.87-2.28.56,1.86,1.52,3.44,2.9,4.79.25.25.52.49.81.71,2.79,1.53,6.42,2.31,10.87,2.35h.22c2.6,0,5.13-.37,7.61-1.11.4-.11.79-.25,1.17-.4v-.19Z"/>
    <path class="cls-2" d="M192.88,47.22l.08-10.89v-1.52s.03-1.5.03-1.5v-.56l16.85.13,2.19.02-.28-.28c-.26-.27-.53-.52-.8-.77-.18-.16-.36-.32-.54-.47l-2.48-.02c-.81-.57-1.67-1.08-2.57-1.52l-12.34-.1-3.01-.02-.03,3.01-.02,3.58v.09l-.09,10.7.34-10.84,1.24.04-.09,10.7-.05,1.71h.04s14.62.12,14.62.12c0,0-.01,0-.01.01-.36.2-.73.37-1.11.54h-.11l-.26.15s-.03.01-.04.01c-.29.12-.63.23-.99.34-.55.16-1.1.31-1.66.43l3.02.02.23.4v.19s.07-.02.1-.03h0c1.99-.79,3.7-1.97,5.15-3.53l-13.47-.11-3.95-.03ZM192.88,47.22l.08-10.89v-1.52s.03-1.5.03-1.5v-.56l16.85.13,2.19.02-.28-.28c-.26-.27-.53-.52-.8-.77-.18-.16-.36-.32-.54-.47l-2.48-.02c-.81-.57-1.67-1.08-2.57-1.52l-12.34-.1-3.01-.02-.03,3.01-.02,3.58v.09l-.09,10.7.34-10.84,1.24.04-.09,10.7-.05,1.71h.04s14.62.12,14.62.12c0,0-.01,0-.01.01-.36.2-.73.37-1.11.54h-.11l-.26.15s-.03.01-.04.01c-.29.12-.63.23-.99.34-.55.16-1.1.31-1.66.43l3.02.02.23.4v.19s.07-.02.1-.03h0c1.99-.79,3.7-1.97,5.15-3.53l-13.47-.11-3.95-.03ZM192.88,47.22l.08-10.89v-1.52s.03-1.5.03-1.5v-.56l16.85.13,2.19.02-.28-.28c-.26-.27-.53-.52-.8-.77-.18-.16-.36-.32-.54-.47l-2.48-.02c-.81-.57-1.67-1.08-2.57-1.52l-12.34-.1-3.01-.02-.03,3.01-.02,3.58v.09l-.09,10.7.34-10.84,1.24.04-.09,10.7-.05,1.71h.04s14.62.12,14.62.12c0,0-.01,0-.01.01-.36.2-.73.37-1.11.54h-.11l-.26.15s-.03.01-.04.01c-.29.12-.63.23-.99.34-.55.16-1.1.31-1.66.43l3.02.02.23.4v.19s.07-.02.1-.03h0c1.99-.79,3.7-1.97,5.15-3.53l-13.47-.11-3.95-.03ZM205.36,29.84l-12.34-.1-3.01-.02-.03,3.01-.02,3.58v.09l-.09,10.7.34-10.84,1.24.04.04-5.07,16.44.13c-.81-.57-1.67-1.08-2.57-1.52ZM191.35,48.71h-.04l.05-1.71.09-10.7.04-5.07,16.44.13c-.81-.57-1.67-1.08-2.57-1.52l-12.34-.1-3.01-.02-.03,3.01-.02,3.58v.09l-.09,10.7v1.59s-.02-.01-.02-.01c-.01,0-.02,0-.03,0-1.36-.36-2.55-.84-3.57-1.45-.7-.42-1.31-.89-1.85-1.42-2.03-2-3.17-4.5-3.45-7.61-.01.09-.02.19-.03.29-.04.5-.07,1-.07,1.5-.01,1.69.19,3.21.62,4.59h0c.56,1.87,1.52,3.45,2.9,4.8.25.25.52.49.81.71,2.79,1.53,6.42,2.31,10.87,2.35h.22c2.6,0,5.13-.37,7.61-1.11.4-.11.79-.25,1.17-.4v-.19s-.24-.4-.24-.4l-3.02-.02c.56-.12,1.11-.27,1.66-.43.36-.11.7-.22.99-.34.01,0,.03-.01.04-.01l.26-.15h.11c.38-.17.75-.34,1.11-.54,0-.01.01-.01.01-.01l-14.62-.11h0ZM196.83,47.25l-3.95-.03.08-10.89v-1.52s.03-1.5.03-1.5v-.56l16.85.13c-.61-.55-1.24-1.06-1.91-1.52-.81-.57-1.67-1.08-2.57-1.52l-12.34-.1-3.01-.02-.03,3.01-.02,3.58v.09l-.09,10.7v1.59s-.02-.01-.02-.01c-.01,0-.02,0-.03,0-1.36-.36-2.55-.84-3.57-1.45-.7-.42-1.31-.89-1.85-1.42-2.03-2-3.17-4.5-3.45-7.61-.01.09-.02.19-.03.29-.04.5-.07,1-.07,1.5-.01,1.69.19,3.21.62,4.59h0c.56,1.87,1.52,3.45,2.9,4.8.25.25.52.49.81.71,2.79,1.53,6.42,2.31,10.87,2.35h.22c2.6,0,5.13-.37,7.61-1.11.4-.11.79-.25,1.17-.4.03-.01.06-.02.09-.03h0c1.99-.79,3.7-1.97,5.15-3.53l-13.47-.11ZM196.83,47.25l-3.95-.03.08-10.89v-1.52s.03-1.5.03-1.5v-.56l16.85.13c-.61-.55-1.24-1.06-1.91-1.52-.81-.57-1.67-1.08-2.57-1.52l-12.34-.1-3.01-.02-.03,3.01-.02,3.58v.09l-.09,10.7.34-10.84,1.24.04-.09,10.7-.05,1.71h.04s14.62.12,14.62.12c0,0-.01,0-.01.01-.36.2-.73.37-1.11.54h-.11l-.26.15s-.03.01-.04.01c-.29.12-.63.23-.99.34-.55.16-1.1.31-1.66.43h-.02l-4.96-.04-3.95-.03-3.05-.03s-.03,0-.04-.01c-1.64-.39-3.07-.96-4.3-1.7-.79-.47-1.51-1.02-2.13-1.64-.72-.7-1.34-1.46-1.87-2.28.56,1.86,1.52,3.44,2.9,4.79.25.25.52.49.81.71,2.79,1.53,6.42,2.31,10.87,2.35h.22c2.6,0,5.13-.37,7.61-1.11.4-.11.79-.25,1.17-.4.03-.01.06-.02.09-.03h0c1.99-.79,3.7-1.97,5.15-3.53l-13.47-.11ZM235.19,19.3l-.1-.12-1.44-1.88-.11-.14-.27-.35c-.92-1.19-1.9-2.34-2.93-3.42-3.75-3.96-8.17-7.07-13.13-9.23-6.2-2.7-13.43-4.1-21.47-4.16h-.7c-13.86,0-24.37,3.33-31.23,9.89-3.83,3.66-6.63,8.06-8.41,13.17t0,.02c-.08.23-.15.46-.23.69-.38,1.16-.7,2.35-.97,3.57-.69,3.09-1.05,6.4-1.07,9.92,0,.54,0,1.09.02,1.68-.01,0,0,.03,0,.05v.15c.1,3.49.56,6.79,1.39,9.87.32,1.21.69,2.39,1.13,3.53.08.23.17.45.26.67.13.34.28.68.43,1.02.28.64.58,1.27.9,1.89.02.03.03.07.05.1,2.29,4.39,5.33,8.03,9.05,10.82.82.62,1.68,1.2,2.57,1.73.08.05.15.1.22.14.07.04.14.08.22.13,5.07,2.97,10.96,4.5,17.49,4.55h.4c6.88,0,12.87-1.44,17.79-4.28.06-.04.13-.07.19-.11,2.39-1.4,4.46-3.15,6.19-5.24l.02.11.08.76.6,5.41.29,2.66h1.09s1.53.02,1.53.02h.06l3.53.03,12.19.09h1.51s.35.02.35.02h1.16s.02-3.01.02-3.01l.26-33.41.03-3.01v-.56l.02-3.02h-.41l-2.61-.02-8.78-.07-3.24-.02h-.01l-3.22-.03h-.28l.9-.5c6.02-3.11,10.59-5.46,13.62-7,.21-.11.42-.21.62-.32.16-.07.31-.15.45-.22.34-.17.64-.32.92-.47.04-.01.08-.03.11-.05l1.27-.63.11-.06.1-.04,1.4-.7.09-.05.31-.15-.32-.42ZM228.76,19.72c-2.98,1.52-7.53,3.86-13.66,7.03l-2.24,1.24c-2.31-2.34-5.01-4.11-8.09-5.29-3.09-1.19-6.36-1.79-9.81-1.82h-.25c-5.59,0-9.79,1.47-12.56,4.41-2.83,2.99-4.26,6.68-4.29,11.09,0,.62.02,1.22.06,1.82,0,.02,0,.04.01.06.21,2.57.91,4.85,2.1,6.83h0s.01.02.01.03c.62,1.02,1.37,1.96,2.24,2.82.71.7,1.52,1.32,2.42,1.86.16.1.32.19.48.28,2.79,1.53,6.42,2.31,10.87,2.35h.22c2.6,0,5.13-.37,7.61-1.11.4-.11.79-.25,1.17-.4.03-.01.06-.02.09-.03h0c1.99-.79,3.7-1.97,5.15-3.53l-13.47-.11-3.95-.03.08-10.89v-1.52s.03-1.5.03-1.5v-.56l16.85.13,2.19.02h1.47s.01,0,.01,0l3.08.03,14.54.11v2.06s-.02,1.51-.02,1.51l-.26,33.41h-.01l-12.19-.09-3.53-.04-.68-6.16-1.07-9.66c-1.83,5.64-5.05,9.82-9.66,12.52-4.52,2.65-10,3.98-16.45,3.98h-.38c-6.01-.05-11.35-1.43-16-4.15-.95-.55-1.85-1.15-2.72-1.81-3.37-2.53-6.09-5.79-8.18-9.79-2.38-4.57-3.65-9.83-3.82-15.76v-.15c-.01-.54-.02-1.08-.01-1.63.04-5.7.99-10.75,2.86-15.16,1.61-3.84,3.91-7.19,6.9-10.05,1.1-1.06,2.31-2.02,3.62-2.89.02-.02.04-.03.07-.04,6.18-4.09,14.66-6.13,25.45-6.13h-.01s.67-.01.67-.01c7.69.06,14.45,1.37,20.3,3.91,2.17.95,4.22,2.09,6.15,3.41,2.16,1.48,4.15,3.19,6,5.14.95,1,1.86,2.06,2.72,3.19-.23.11-.47.23-.73.37-.41.2-.87.43-1.38.69h-.01ZM210.48,29.88l-2.08-.02-3.04-.02-12.34-.1-3.01-.02-.03,3.01-.02,3.58v.09l-.09,10.7v1.59s-.02-.01-.02-.01c-.01,0-.02,0-.03,0-1.36-.36-2.55-.84-3.57-1.45-.7-.42-1.31-.89-1.85-1.42-2.03-2-3.17-4.5-3.45-7.61-.01-.07-.01-.15-.02-.22-.04-.49-.05-1-.05-1.57.02-1.59.23-3.05.68-4.4t.01-.02h0c.56-1.73,1.48-3.25,2.77-4.61.34-.36.71-.7,1.12-.99,2.18-1.65,5.28-2.48,9.25-2.48h.23c3.07.02,6.02.57,8.76,1.62,1.6.61,3.09,1.41,4.46,2.4,0,0,.03.02.05.04.8.57,1.56,1.21,2.27,1.92ZM196.83,47.25l-3.95-.03.08-10.89v-1.52s.03-1.5.03-1.5v-.56l16.85.13c-.61-.55-1.24-1.06-1.91-1.52-.81-.57-1.67-1.08-2.57-1.52l-12.34-.1-3.01-.02-.03,3.01-.02,3.58v.09l-.09,10.7v1.59s-.02-.01-.02-.01c-.01,0-.02,0-.03,0-1.36-.36-2.55-.84-3.57-1.45-.7-.42-1.31-.89-1.85-1.42-2.03-2-3.17-4.5-3.45-7.61-.01.09-.02.19-.03.29-.04.5-.07,1-.07,1.5-.01,1.69.19,3.21.62,4.59h0c.56,1.87,1.52,3.45,2.9,4.8.25.25.52.49.81.71,2.79,1.53,6.42,2.31,10.87,2.35h.22c2.6,0,5.13-.37,7.61-1.11.4-.11.79-.25,1.17-.4.03-.01.06-.02.09-.03h0c1.99-.79,3.7-1.97,5.15-3.53l-13.47-.11ZM204.44,49.54s.03-.01.04-.01l.26-.15h.11c.38-.17.75-.34,1.11-.54,0-.01.01-.01.01-.01l-14.62-.11h0s-.04-.01-.04-.01l.05-1.71.09-10.7-1.24-.04-.34,10.84v1.59s-.02-.01-.02-.01c-.01,0-.02,0-.03,0-1.36-.36-2.55-.84-3.57-1.45-.7-.42-1.31-.89-1.85-1.42-2.03-2-3.17-4.5-3.45-7.61-.01.09-.02.19-.03.29-.04.5-.07,1-.07,1.5-.01,1.69.19,3.21.62,4.59h0c.56,1.87,1.52,3.45,2.9,4.8.25.25.52.49.81.71,2.79,1.53,6.42,2.31,10.87,2.35h.22c2.6,0,5.13-.37,7.61-1.11.4-.11.79-.25,1.17-.4v-.19s-.24-.4-.24-.4l-3.02-.02c.56-.12,1.11-.27,1.66-.43.36-.11.7-.22.99-.34ZM192.88,47.22l.08-10.89v-1.52s.03-1.5.03-1.5v-.56l16.85.13,2.19.02-.28-.28c-.26-.27-.53-.52-.8-.77-.18-.16-.36-.32-.54-.47l-2.48-.02c-.81-.57-1.67-1.08-2.57-1.52l-12.34-.1-3.01-.02-.03,3.01-.02,3.58v.09l-.09,10.7v1.59s-.02-.01-.02-.01c-.01,0-.02,0-.03,0-1.36-.36-2.55-.84-3.57-1.45-.7-.42-1.31-.89-1.85-1.42-2.03-2-3.17-4.5-3.45-7.61-.01.09-.02.19-.03.29-.04.5-.07,1-.07,1.5-.01,1.69.19,3.21.62,4.59h0c.56,1.87,1.52,3.45,2.9,4.8.25.25.52.49.81.71,2.79,1.53,6.42,2.31,10.87,2.35h.22c2.6,0,5.13-.37,7.61-1.11.4-.11.79-.25,1.17-.4.03-.01.06-.02.09-.03h0c1.99-.79,3.7-1.97,5.15-3.53l-13.47-.11-3.95-.03ZM205.36,29.84l-12.34-.1-3.01-.02-.03,3.01-.02,3.58v.09l-.09,10.7.34-10.84,1.24.04.04-5.07,16.44.13c-.81-.57-1.67-1.08-2.57-1.52ZM192.88,47.22l.08-10.89v-1.52s.03-1.5.03-1.5v-.56l16.85.13,2.19.02-.28-.28c-.26-.27-.53-.52-.8-.77-.18-.16-.36-.32-.54-.47l-2.48-.02c-.81-.57-1.67-1.08-2.57-1.52l-12.34-.1-3.01-.02-.03,3.01-.02,3.58v.09l-.09,10.7.34-10.84,1.24.04-.09,10.7-.05,1.71h.04s14.62.12,14.62.12c0,0-.01,0-.01.01-.36.2-.73.37-1.11.54h-.11l-.26.15s-.03.01-.04.01c-.29.12-.63.23-.99.34-.55.16-1.1.31-1.66.43l3.02.02.23.4v.19s.07-.02.1-.03h0c1.99-.79,3.7-1.97,5.15-3.53l-13.47-.11-3.95-.03Z"/>
  </g>
  <g>
    <path class="cls-1" d="M306.21,51.8c-1.25.06-2.6.11-4.05.15-.65.03-1.33.05-2.03.07h-.16c-8.75.25-20.67.38-35.57.38h-5.83l.02-2.73v-1.5s.03-2.07.03-2.07c.92-.01,1.96-.01,3.09-.01,2.28,0,5.01.01,8.08.03,9.4.07,19.27.33,29.34.76h.06l1.5.07.13-16.42.02-2.04v-.03l-.94.03-.63.02c-7.95.22-15.78.33-23.28.33-2.04,0-4.06-.01-6.06-.02-3.26-.03-6.19-.06-8.72-.1-.33-.01-.64-.01-.95-.02-.53,0-1.03-.02-1.51-.03l.02-2.02v-1.51s.02-2.06.02-2.06l46.84.36h1.5s.12-15.6.12-15.6v-1.5s.03-2.07.03-2.07l-72.5-.57.05,1.57c.01.17.01.34.02.5.01.5.03,1,.04,1.5.13,4.11.23,8.12.3,12.03,0,.19.01.38.01.57.02,1.04.03,2.08.04,3.1.01.01,0,.02,0,.02.01.14.01.28.01.42.06,4.94.08,9.7.04,14.24,0,.35,0,.69-.01,1.04,0,.37-.01.74,0,1.11-.11,9.36-.43,19.51-.95,30.21l-.08,1.57h1.66s69.34.55,69.34.55h1.5s.01-.79.01-.79v-.7c.03-3.92.1-7.2.21-9.73.05-1.25.15-2.48.27-3.67.07-.65.15-1.29.24-1.92.07-.52.15-1.03.24-1.52.01-.08.03-.15.04-.23l.34-1.86-1.89.09ZM305.95,55.38c-.07.51-.13,1.01-.18,1.52-.01.06-.01.11-.02.17-.14,1.24-.23,2.49-.29,3.77-.11,2.59-.18,5.85-.2,9.78l-65.33-.51-3.95-.03h-.14c.55-11.16.87-21.62.95-31.39v-.12c.01-.3.01-.61.01-.91.08-9.02-.04-18.64-.34-28.86,0-.5-.03-1.01-.05-1.52-.01-.5-.03-1-.04-1.5-.01-.18-.01-.37-.02-.56l69.41.54v.56l-.02,1.51v1.5s-.01.01-.01.01l-.1,12.59-48.33-.37-.03,3.57-.04,5.01c.47.01.97.02,1.51.03.47,0,.97.02,1.5.03.3.01.62.01.95.02,2.39.04,5.3.07,8.73.1,2.01.02,4.04.02,6.08.02,7.57,0,15.34-.11,23.32-.33v.57l-.02,1.5v1.51s-.01.13-.01.13l-.09,11.66c-10.13-.44-19.92-.7-29.39-.77-3.13-.02-5.83-.03-8.1-.03-1.79,0-3.32,0-4.59.02l-.03,3.58-.04,5.71h0s1.51.01,1.51.01c.51,0,1.01,0,1.51,0h4.33c18.87,0,32.83-.2,41.88-.61-.03.19-.07.38-.09.57-.09.5-.17,1.01-.24,1.51Z"/>
    <path class="cls-2" d="M306.15,50.28c-1.23.06-2.56.11-3.98.15-.49.02-1,.04-1.51.05-.22.01-.45.02-.67.02h-.03c-8.74.26-20.66.39-35.55.39h-4.32v-1.22s.02-1.51.02-1.51v-.57h1.6c2.28,0,5,.01,8.07.04,9.39.07,19.24.32,29.28.76h.11l1.51.07,1.5.06.03-3.12.09-11.66.03-3.25v-1.99s.03-1.51.03-1.51v-.08l-2.26.06h-.41l-.46.03c-7.93.21-15.75.33-23.23.33-2.02,0-4.06-.01-6.06-.03-3.23-.02-6.16-.05-8.7-.09-.34-.01-.66-.01-.97-.02v-.53l.02-1.51v-.56l45.32.36h1.51s1.5.02,1.5.02h.01l.02-3.02.1-12.6.03-3.57.02-3.02-3.02-.02-69.41-.54-3.14-.02h-.01l.11,3.14c0,.15.01.3.01.44.13,3.94.24,7.79.31,11.54.02,1.12.04,2.22.06,3.32v.37c.02,1.07.04,2.12.05,3.17.02,2,.04,3.96.04,5.89.01,1.21.01,2.41.01,3.58,0,1.35-.01,2.69-.02,4-.01.62-.01,1.24-.02,1.87,0,.16,0,.33-.01.49-.1,9.28-.41,19.34-.93,29.95l-.16,3.12v.02h1.16s.49.01.49.01h1.5s.02.01.02.01l4.07.03,65.32.51h1.5s1.51.02,1.51.02h.01v-1.18s.02-1.12.02-1.12v-.72c.03-3.91.1-7.16.21-9.67.05-1.22.14-2.42.27-3.57.13-1.24.3-2.44.5-3.57l.02-.1.65-3.62-3.77.17ZM306.19,53.87c-.09.5-.17,1.01-.24,1.51-.07.51-.13,1.01-.18,1.52-.01.06-.01.11-.02.17-.14,1.24-.23,2.49-.29,3.77-.11,2.59-.18,5.85-.2,9.78l-65.33-.51-3.95-.03h-.14c.55-11.16.87-21.62.95-31.39v-.12c.01-.3.01-.61.01-.91.08-9.02-.04-18.64-.34-28.86,0-.5-.03-1.01-.05-1.52-.01-.5-.03-1-.04-1.5-.01-.18-.01-.37-.02-.56l69.41.54v.56l-.02,1.51v1.5s-.01.01-.01.01l-.1,12.59-48.33-.37-.03,3.57-.04,5.01c.47.01.97.02,1.51.03.47,0,.97.02,1.5.03.3.01.62.01.95.02,2.39.04,5.3.07,8.73.1,2.01.02,4.04.02,6.08.02,7.57,0,15.34-.11,23.32-.33v.57l-.02,1.5v1.51s-.01.13-.01.13l-.09,11.66c-10.13-.44-19.92-.7-29.39-.77-3.13-.02-5.83-.03-8.1-.03-1.79,0-3.32,0-4.59.02l-.03,3.58-.04,5.71h0s1.51.01,1.51.01c.51,0,1.01,0,1.51,0h4.33c18.87,0,32.83-.2,41.88-.61-.03.19-.07.38-.09.57Z"/>
  </g>
</svg>