<svg viewBox="0 0 500 500" fill="none" xmlns="http://www.w3.org/2000/svg">
<path opacity="0.998" fill-rule="evenodd" clip-rule="evenodd" d="M239.285 -0.0826416C245.495 -0.0826416 251.703 -0.0826416 257.913 -0.0826416C312.717 2.20426 361.734 20.0161 404.962 53.3531C450.125 89.4036 479.606 135.681 493.406 192.187C497.082 208.196 499.253 224.384 499.918 240.75C499.918 246.972 499.918 253.193 499.918 259.415C496.752 322.499 473.701 376.898 430.762 422.613C391.775 462.838 344.489 487.587 288.905 496.862C277.023 498.675 265.099 499.694 253.132 499.917C251.1 499.917 249.065 499.917 247.033 499.917C190.236 498.688 139.516 480.712 94.8731 445.986C53.7953 413.115 25.5229 371.407 10.0561 320.862C4.13508 300.666 0.755591 280.073 -0.0823975 259.085C-0.0823975 252.919 -0.0823975 246.751 -0.0823975 240.585C2.72965 182.017 22.9791 130.535 60.666 86.1413C95.6507 46.1225 139.034 19.6111 190.818 6.60715C206.785 2.83188 222.941 0.601942 239.285 -0.0826416Z" fill="black"/>
<path fill-rule="evenodd" clip-rule="evenodd" d="M244.23 37.9089C290.259 37.1251 332.242 49.6514 370.178 75.4873C410.892 104.24 438.614 142.535 453.347 190.37C465.983 234.962 464.499 279.065 448.896 322.679C431.695 367.881 402.763 403.477 362.1 429.468C322.725 453.689 279.918 464.315 233.68 461.348C187.72 457.664 147.221 441.036 112.183 411.464C74.2597 378.461 50.6032 337.083 41.2133 287.331C33.8355 244.6 38.726 203.361 55.8853 163.611C75.4181 120.692 105.669 87.6282 146.637 64.4203C177.052 47.7442 209.583 38.9071 244.23 37.9089Z" fill="#FEFEFE"/>
<path fill-rule="evenodd" clip-rule="evenodd" d="M241.263 56.409C287.374 54.8076 328.861 67.7192 365.727 95.1437C401.373 122.86 424.975 158.676 436.532 202.593C446.632 243.505 443.938 283.533 428.454 322.679C410.475 365.36 381.268 397.929 340.834 420.383C301.471 441.287 259.817 447.894 215.875 440.205C172.377 431.977 135.752 411.634 106.001 379.171C73.504 342.232 56.9911 298.983 56.4623 249.422C57.1359 199.623 73.9783 156.319 106.99 119.508C138.503 85.671 177.216 65.2161 223.129 58.1434C229.179 57.3596 235.224 56.7815 241.263 56.409Z" fill="black"/>
<path fill-rule="evenodd" clip-rule="evenodd" d="M294.51 129.253C301.466 129.2 307.84 131.099 313.633 134.952C315.396 136.166 317.1 137.46 318.744 138.834C316.499 140.952 314.245 143.072 311.985 145.193C300 156.926 287.966 168.599 275.882 180.211C266.599 188.966 256.927 197.225 246.868 204.988C233.973 213.826 219.822 216.716 204.418 213.66C195.88 211.801 187.939 208.525 180.597 203.832C175.361 200.294 170.361 196.44 165.595 192.27C158.941 186.097 152.236 179.985 145.483 173.935C153.035 165.624 160.673 157.393 168.398 149.24C172.471 154.286 176.456 159.406 180.35 164.602C183.376 168.517 186.756 172.123 190.488 175.421C202.1 184.612 214.85 186.594 228.734 181.368C232.542 179.749 236.004 177.602 239.12 174.926C241.812 172.448 244.505 169.97 247.198 167.493C257.094 157.632 266.929 147.722 276.706 137.76C280.745 133.919 285.471 131.276 290.884 129.832C292.108 129.584 293.317 129.391 294.51 129.253Z" fill="#FEFEFE"/>
<path fill-rule="evenodd" clip-rule="evenodd" d="M326.492 146.762C327.245 147.268 327.933 147.874 328.553 148.579C334.949 155.374 341.406 162.119 347.923 168.814C341.897 173.583 336.019 178.538 330.284 183.68C324.413 189.032 319.988 195.391 317.013 202.758C313.581 213.099 314.57 223.01 319.98 232.491C322.075 236.029 324.494 239.333 327.234 242.402C336.579 251.822 345.976 261.181 355.424 270.482C357.402 272.575 359.38 274.666 361.358 276.759C363.871 279.331 366.068 282.139 367.952 285.183C371.789 292.212 372.173 299.425 369.106 306.822C367.366 310.757 364.975 314.225 361.935 317.228C350.255 305.884 338.551 294.569 326.822 283.284C317.817 274.483 309.054 265.481 300.527 256.277C291.459 245.654 286.513 233.322 285.691 219.276C284.753 200.841 290.303 184.708 302.341 170.879C308.417 164.294 314.764 157.99 321.381 151.966C323.119 150.253 324.822 148.519 326.492 146.762Z" fill="#FEFEFE"/>
<path fill-rule="evenodd" clip-rule="evenodd" d="M140.043 183.432C153.39 196.944 166.716 210.489 180.02 224.067C187.517 232.018 194.771 240.168 201.78 248.513C212.099 260.479 216.769 274.409 215.793 290.304C214.629 305.789 208.914 319.278 198.648 330.773C195.775 333.943 192.862 337.081 189.911 340.188C184.525 345.363 179.25 350.649 174.085 356.046C166.858 348.143 159.522 340.353 152.077 332.673C156.105 329.415 160.226 326.277 164.441 323.257C170.772 318.401 176.129 312.648 180.514 305.996C188.201 293.203 188.091 280.484 180.185 267.839C178.183 264.732 175.931 261.814 173.426 259.085C162.431 248.343 151.605 237.441 140.95 226.379C139.081 224.286 137.213 222.195 135.345 220.102C128.662 211.159 128.057 201.799 133.531 192.022C135.358 188.898 137.528 186.034 140.043 183.432Z" fill="#FEFEFE"/>
<path fill-rule="evenodd" clip-rule="evenodd" d="M280.498 286.34C300.002 285.849 316.871 292.208 331.108 305.418C338.226 312.494 345.04 319.817 351.55 327.387C351.37 327.972 351.177 328.55 350.973 329.121C348.335 332.314 345.697 335.509 343.06 338.702C341.818 340 340.528 341.239 339.186 342.418C336.23 344.746 333.154 344.911 329.954 342.914C328.368 341.82 326.83 340.664 325.338 339.445C321.991 336.368 318.694 333.229 315.447 330.03C310.834 325.796 305.724 322.273 300.115 319.458C287.656 313.951 275.73 314.942 264.342 322.431C260.643 324.869 257.181 327.623 253.957 330.69C243.627 341.371 233.185 351.942 222.634 362.405C212.166 371.934 200.681 373.365 188.18 366.7C185.867 365.32 183.668 363.779 181.586 362.075C188.652 354.939 195.658 347.754 202.605 340.519C214.116 329.204 225.519 317.778 236.812 306.244C249.021 294.513 263.582 287.877 280.498 286.34Z" fill="#FEFEFE"/>
</svg>
