<svg viewBox="0 0 500 500" fill="none" xmlns="http://www.w3.org/2000/svg">
    <circle cx="250" cy="250" r="234" fill="url(#paint0_linear_20_44)"/>
    <path d="M173.73 304.577C175.109 303.191 177.006 302.383 179.018 302.383H361.461C364.795 302.383 366.462 306.425 364.105 308.793L328.065 345.001C326.686 346.387 324.789 347.195 322.777 347.195H140.334C137 347.195 135.333 343.153 137.69 340.785L173.73 304.577Z" fill="white"/>
    <path d="M173.73 169.391C175.167 168.005 177.064 167.196 179.018 167.196H361.461C364.795 167.196 366.462 171.239 364.105 173.606L328.065 209.814C326.686 211.2 324.789 212.009 322.777 212.009H140.334C137 212.009 135.333 207.966 137.69 205.599L173.73 169.391Z" fill="white"/>
    <path d="M328.065 236.553C326.686 235.167 324.789 234.359 322.777 234.359H140.334C137 234.359 135.333 238.401 137.69 240.769L173.73 276.977C175.109 278.363 177.006 279.171 179.018 279.171H361.461C364.795 279.171 366.462 275.129 364.105 272.761L328.065 236.553Z" fill="white"/>
    <path fill-rule="evenodd" clip-rule="evenodd" d="M250 430C349.411 430 430 349.411 430 250C430 150.589 349.411 70 250 70C150.589 70 70 150.589 70 250C70 349.411 150.589 430 250 430ZM250 448C359.352 448 448 359.352 448 250C448 140.648 359.352 52 250 52C140.648 52 52 140.648 52 250C52 359.352 140.648 448 250 448Z" fill="white"/>
    <defs>
        <linearGradient id="paint0_linear_20_44" x1="115" y1="61" x2="425.5" y2="371.5" gradientUnits="userSpaceOnUse">
            <stop stop-color="#7DD18A"/>
            <stop offset="1" stop-color="#3B9A7D"/>
        </linearGradient>
    </defs>
</svg>
