<svg version="1.1" id="Layer_1" xmlns="http://www.w3.org/2000/svg" xmlns:xlink="http://www.w3.org/1999/xlink" x="0px" y="0px"
	 width="100%" viewBox="0 0 496 496" enable-background="new 0 0 496 496" xml:space="preserve">
<path fill="#000000" opacity="1.000000" stroke="none" 
	d="
M281.610779,424.524292 
	C278.305054,429.788452 274.790710,434.408051 270.455841,438.386658 
	C259.682617,448.274567 246.937592,448.655884 235.811005,439.149353 
	C228.342834,432.768616 223.153534,424.609772 218.768143,415.936584 
	C208.159012,394.954407 202.183441,372.460419 197.816086,349.536957 
	C190.662003,311.986298 187.961792,274.002258 188.997299,235.842636 
	C190.131546,194.043884 194.283875,152.573776 206.683578,112.348679 
	C211.505295,96.706856 217.329865,81.501564 227.100449,68.127625 
	C229.469894,64.884361 232.118240,61.900070 235.153076,59.277702 
	C246.874237,49.149605 259.690765,49.387096 270.934296,60.032169 
	C280.588501,69.172493 286.469788,80.728943 291.503723,92.786255 
	C293.288452,97.061073 294.927643,101.396637 296.760071,106.024734 
	C298.898041,104.957024 299.193207,103.009949 299.984344,101.518417 
	C303.972687,93.999512 308.022858,86.539124 314.234100,80.529716 
	C325.812714,69.327301 338.518036,69.377792 349.755829,80.906624 
	C359.146057,90.540092 364.673065,102.511940 369.256775,114.896660 
	C377.782806,137.933075 382.366455,161.887924 385.384338,186.198364 
	C388.630249,212.345627 390.005768,238.597092 389.110413,264.904755 
	C387.760071,304.582184 383.428284,343.858032 370.217926,381.624939 
	C365.526367,395.037537 359.759125,408.002258 349.564911,418.327362 
	C337.552185,430.494476 324.297180,430.026642 312.795746,417.241119 
	C307.170654,410.987976 303.087250,403.745880 299.462799,396.217072 
	C298.816223,394.873932 298.125366,393.552155 296.982086,391.281189 
	C292.365753,403.040436 288.370422,414.253357 281.610779,424.524292 
M229.371017,241.766190 
	C229.368423,260.084595 230.245850,278.351135 232.205994,296.574402 
	C234.453369,317.467957 238.398163,337.988892 245.466751,357.809326 
	C249.060684,367.886719 253.567352,377.571747 261.044189,385.484772 
	C265.153503,389.833771 269.906128,393.117371 276.312683,392.719940 
	C283.033173,392.303070 287.710236,388.344757 291.617584,383.410065 
	C294.454834,379.826813 291.537720,376.340027 290.525330,373.058899 
	C282.094421,345.734802 277.875641,317.637787 275.866150,289.258118 
	C273.854340,260.845703 273.993713,232.392639 276.514496,203.942825 
	C279.031860,175.531326 283.385803,147.550049 292.472351,120.426125 
	C292.919556,119.091225 293.645844,117.749001 292.908813,116.111748 
	C288.195282,105.640778 273.348999,102.132805 264.315582,109.507637 
	C259.212311,113.673935 255.459122,118.954163 252.337708,124.724220 
	C246.187668,136.092819 242.471176,148.325623 239.261963,160.765167 
	C232.486801,187.027008 230.670013,213.889023 229.371017,241.766190 
M367.769165,170.668671 
	C365.809387,165.492966 363.301056,160.629776 359.584167,156.470978 
	C352.963501,149.063034 345.611755,149.308029 339.395721,157.049973 
	C334.499451,163.148209 331.692322,170.271561 329.410889,177.594650 
	C319.754272,208.591095 318.931824,240.457260 320.756317,272.477692 
	C321.692963,288.915741 324.117889,305.203552 329.197510,320.976929 
	C331.761414,328.938507 334.663055,336.754028 340.249359,343.171478 
	C346.210602,350.019592 352.823669,350.034149 358.986267,343.410461 
	C362.789886,339.322357 365.411072,334.494751 367.423889,329.352112 
	C374.028931,312.476257 376.985748,294.773224 378.572723,276.859985 
	C380.042358,260.271667 380.110962,243.645096 378.850372,226.990829 
	C377.413300,208.005493 374.623657,189.347275 367.769165,170.668671 
z"/>
<path fill="#000000" opacity="1.000000" stroke="none" 
	d="
M162.892914,374.162628 
	C173.332962,392.881836 186.131851,409.315125 201.334991,424.061127 
	C176.669067,414.568146 154.871323,400.603149 135.817978,382.534393 
	C102.623840,351.055450 81.743858,312.883453 76.871597,267.123840 
	C66.776535,172.312515 132.431213,98.700058 201.062790,72.155418 
	C201.620132,73.817802 200.348221,74.545029 199.457031,75.369232 
	C169.512924,103.062553 151.847214,137.800217 141.178589,176.605957 
	C133.108337,205.960464 130.680847,235.938934 132.504700,266.133759 
	C134.797943,304.099426 144.094635,340.337891 162.892914,374.162628 
z"/>
<path fill="#000000" opacity="1.000000" stroke="none" 
	d="
M412.625061,294.207214 
	C406.603760,282.898987 405.065948,270.826202 404.145721,258.739502 
	C402.799957,241.063187 404.021484,223.549179 409.515076,206.525848 
	C410.544922,203.334686 411.984711,200.339569 413.989319,197.657120 
	C418.165894,192.068207 423.406738,192.127945 427.382324,197.922852 
	C431.508636,203.937439 433.389587,210.853683 434.677338,217.911926 
	C438.816376,240.597855 438.806091,263.167694 432.278442,285.471069 
	C431.444824,288.319214 430.250549,291.119568 428.829620,293.727478 
	C424.073090,302.457275 418.443176,302.688934 412.625061,294.207214 
z"/>
</svg>