<svg viewBox="0 0 500 500" fill="none" xmlns="http://www.w3.org/2000/svg">
    <g clip-path="url(#clip0_20_93)">
        <circle cx="250" cy="250" r="250" fill="#D9D9D9"/>
        <path d="M140.64 317.085C142.595 315.137 145.283 314 148.134 314H406.689C411.413 314 413.776 319.683 410.436 323.012L359.36 373.915C357.405 375.863 354.717 377 351.866 377H93.3113C88.5866 377 86.2243 371.317 89.5642 367.988L140.64 317.085Z" fill="black"/>
        <path d="M140.64 126.085C142.676 124.137 145.364 123 148.134 123H406.689C411.413 123 413.776 128.683 410.436 132.012L359.36 182.915C357.405 184.863 354.717 186 351.866 186H93.3113C88.5866 186 86.2243 180.317 89.5642 176.988L140.64 126.085Z" fill="black"/>
        <path d="M359.36 221.085C357.405 219.137 354.717 218 351.866 218H93.3113C88.5866 218 86.2243 223.683 89.5642 227.012L140.64 277.915C142.595 279.863 145.283 281 148.134 281H406.689C411.413 281 413.776 275.317 410.436 271.988L359.36 221.085Z" fill="black"/>
    </g>
    <defs>
        <clipPath id="clip0_20_93">
            <rect width="500" height="500" fill="white"/>
        </clipPath>
    </defs>
</svg>
