<svg viewBox="0 0 500 500" fill="none" xmlns="http://www.w3.org/2000/svg">
    <rect width="500" height="500" fill="white"/>
    <path fill-rule="evenodd" clip-rule="evenodd" d="M239.582 138.891C257.177 147.903 276.273 150.907 294.512 150.907C305.24 160.777 314.037 172.149 322.405 183.95C325.839 188.885 329.057 194.035 331.632 199.399C338.069 211.629 342.789 224.718 347.51 237.807C348.797 241.669 350.299 245.531 351.801 249.393C352.23 251.11 352.66 252.612 353.303 254.328C360.599 279.433 371.327 306.254 385.703 328.354C390.424 335.65 395.788 342.516 401.581 348.953C402.654 350.24 403.941 351.528 405.014 352.601C410.593 358.394 415.957 364.187 419.176 371.268C423.038 380.28 422.823 390.579 420.463 400.235C409.306 445.294 365.963 457.095 324.551 458.168C309.102 458.383 293.653 457.31 279.921 456.022C279.921 456.022 214.048 449.156 158.046 408.388L156.33 407.101C149.893 402.166 143.67 397.016 137.662 391.437C121.999 376.418 108.052 359.467 97.3234 340.799L97.538 340.585C96.2506 338.225 94.9632 336.079 93.8903 333.719C83.5911 313.12 77.3686 290.59 76.9394 266.773C76.5103 226.434 90.2427 185.452 116.205 155.627C130.367 140.178 147.962 127.948 168.775 121.082C181.863 116.79 195.596 114.645 209.328 114.859C217.911 124.729 228.21 132.883 239.582 138.891ZM207.611 401.093C217.052 397.66 226.064 392.939 234.218 387.361C225.85 392.939 216.838 397.66 207.611 401.093Z" fill="url(#paint0_linear_20_98)"/>
    <path fill-rule="evenodd" clip-rule="evenodd" d="M376.477 106.276L377.12 105.847C303.524 -19.6752 207.397 79.2407 207.397 79.2407L207.612 79.4553C262.756 176.44 367.894 111.641 376.477 106.276Z" fill="url(#paint1_linear_20_98)"/>
    <path d="M285.285 322.344C265.116 370.837 226.064 402.807 179.074 407.742C178.001 407.957 165.127 408.815 158.046 408.386C214.049 449.154 279.921 456.02 279.921 456.02C294.083 457.522 309.961 458.595 326.053 458.166C331.632 443.361 334.851 426.624 333.992 407.313C331.847 362.897 357.595 339.939 385.703 328.352C371.327 306.252 360.599 279.431 353.303 254.326C331.417 260.119 303.738 278.358 285.285 322.344Z" fill="url(#paint2_linear_20_98)"/>
    <path d="M333.133 407.1C333.992 426.196 330.129 443.576 324.551 458.381C365.962 457.309 409.305 445.507 420.462 400.448C422.823 391.007 423.037 380.493 419.175 371.481C415.313 362.684 408.018 356.032 401.58 348.952C395.573 342.3 389.994 335.005 385.059 327.28C356.95 339.082 330.988 362.469 333.133 407.1Z" fill="url(#paint3_linear_20_98)"/>
    <path d="M351.802 249.39C345.365 232.439 340.001 215.274 331.847 199.396C329.058 194.031 326.054 188.882 322.621 183.947C314.253 172.145 305.455 160.559 294.727 150.903C276.489 150.903 257.178 147.899 239.798 138.887C221.988 163.992 201.819 206.691 220.272 255.398C247.737 327.278 191.949 376.414 156.331 406.883L158.047 408.17C164.699 408.599 171.565 408.599 178.217 407.956C225.422 403.021 266.404 370.192 286.788 321.914C305.241 277.927 331.847 261.191 353.733 255.398C352.875 253.252 352.446 251.321 351.802 249.39Z" fill="url(#paint4_linear_20_98)"/>
    <path d="M118.136 153.48C90.886 183.305 76.5099 225.36 76.939 266.557C77.1536 290.374 83.5906 312.904 93.8899 333.503C95.3919 336.507 97.1084 339.725 98.825 342.729C156.329 285.01 135.516 199.183 118.136 153.48Z" fill="url(#paint5_linear_20_98)"/>
    <path d="M221.13 255.401C202.463 206.694 222.418 164.21 240.012 139.105C228.426 133.097 217.912 124.944 209.329 114.859C195.597 114.645 181.864 116.79 168.776 121.082C147.963 127.948 130.153 140.178 116.206 155.627C133.157 200.257 153.327 284.368 97.3245 340.799C108.053 359.467 122 376.418 137.663 391.437C143.886 397.231 150.323 402.81 157.189 407.959C193.022 377.276 248.595 327.282 221.13 255.401Z" fill="url(#paint6_linear_20_98)"/>
    <path d="M290.436 87.1791C329.273 102.413 356.523 106.705 376.264 106.061L376.907 105.632C303.31 -19.8904 207.184 79.0256 207.184 79.0256L207.398 79.2401C227.997 75.5924 258.251 74.5196 290.436 87.1791Z" fill="url(#paint7_linear_20_98)"/>
    <path d="M290.865 86.3211C258.68 73.6615 228.212 74.0907 207.184 79.2403C262.542 176.225 367.466 111.64 376.264 106.061C356.523 106.705 329.702 101.555 290.865 86.3211Z" fill="url(#paint8_linear_20_98)"/>
    <defs>
        <linearGradient id="paint0_linear_20_98" x1="37.8889" y1="167.161" x2="487.554" y2="436.623" gradientUnits="userSpaceOnUse">
            <stop stop-color="#E54033"/>
            <stop offset="0.4896" stop-color="#FECA1A"/>
            <stop offset="1" stop-color="#AFD803"/>
        </linearGradient>
        <linearGradient id="paint1_linear_20_98" x1="69477.5" y1="71258.3" x2="41327.1" y2="42301.7" gradientUnits="userSpaceOnUse">
            <stop offset="0.15" stop-color="#6CBF00"/>
            <stop offset="1" stop-color="#AFD803"/>
        </linearGradient>
        <linearGradient id="paint2_linear_20_98" x1="111.628" y1="411.657" x2="393.393" y2="343.146" gradientUnits="userSpaceOnUse">
            <stop offset="0.21" stop-color="#E54033"/>
            <stop offset="0.84" stop-color="#FECA1A"/>
        </linearGradient>
        <linearGradient id="paint3_linear_20_98" x1="333.616" y1="392.645" x2="420.558" y2="393.296" gradientUnits="userSpaceOnUse">
            <stop stop-color="#FECA1A"/>
            <stop offset="0.4" stop-color="#FECA1A"/>
            <stop offset="1" stop-color="#AFD803"/>
        </linearGradient>
        <linearGradient id="paint4_linear_20_98" x1="136.831" y1="413.412" x2="315.081" y2="172.093" gradientUnits="userSpaceOnUse">
            <stop offset="0.16" stop-color="#E54033"/>
            <stop offset="0.84" stop-color="#FECA1A"/>
        </linearGradient>
        <linearGradient id="paint5_linear_20_98" x1="110.863" y1="173.627" x2="102.97" y2="329.495" gradientUnits="userSpaceOnUse">
            <stop stop-color="#FECA1A"/>
            <stop offset="0.76" stop-color="#E54033"/>
        </linearGradient>
        <linearGradient id="paint6_linear_20_98" x1="198.062" y1="133.154" x2="150.457" y2="313.922" gradientUnits="userSpaceOnUse">
            <stop offset="0.16" stop-color="#FECA1A"/>
            <stop offset="1" stop-color="#E54033"/>
        </linearGradient>
        <linearGradient id="paint7_linear_20_98" x1="216.505" y1="46.6019" x2="392.767" y2="111.572" gradientUnits="userSpaceOnUse">
            <stop offset="0.15" stop-color="#6CBF00"/>
            <stop offset="1" stop-color="#AFD803"/>
        </linearGradient>
        <linearGradient id="paint8_linear_20_98" x1="69474.9" y1="71260.3" x2="41324.5" y2="42303.6" gradientUnits="userSpaceOnUse">
            <stop offset="0.15" stop-color="#6CBF00"/>
            <stop offset="1" stop-color="#AFD803"/>
        </linearGradient>
    </defs>
</svg>
