<svg width="500" height="500" viewBox="0 0 500 500" fill="none" xmlns="http://www.w3.org/2000/svg">
<rect width="500" height="500" rx="250" fill="white"/>
<path fill-rule="evenodd" clip-rule="evenodd" d="M221.652 129.891C239.247 138.903 258.344 141.907 276.582 141.907C287.31 151.777 296.108 163.149 304.476 174.95C307.909 179.885 311.127 185.035 313.702 190.399C320.139 202.629 324.86 215.718 329.58 228.807C330.868 232.669 332.37 236.531 333.872 240.393C334.301 242.11 334.73 243.612 335.374 245.328C342.669 270.433 353.397 297.254 367.773 319.354C372.494 326.65 377.858 333.516 383.651 339.953C384.724 341.24 386.012 342.528 387.084 343.601C392.663 349.394 398.027 355.187 401.246 362.268C405.108 371.28 404.894 381.579 402.533 391.235C391.376 436.294 348.033 448.095 306.621 449.168C291.173 449.383 275.724 448.31 261.991 447.022C261.991 447.022 196.119 440.156 140.117 399.388L138.4 398.101C131.963 393.166 125.74 388.016 119.733 382.437C104.069 367.418 90.1221 350.467 79.3937 331.799L79.6083 331.585C78.3209 329.225 77.0335 327.079 75.9606 324.719C65.6614 304.12 59.4389 281.59 59.0098 257.773C58.5806 217.434 72.313 176.452 98.2757 146.627C112.437 131.178 130.032 118.948 150.845 112.082C163.934 107.79 177.666 105.645 191.398 105.859C199.981 115.729 210.28 123.883 221.652 129.891ZM189.682 392.093C199.123 388.66 208.135 383.939 216.288 378.361C207.92 383.939 198.908 388.66 189.682 392.093Z" fill="url(#paint0_linear_20_98)"/>
<path fill-rule="evenodd" clip-rule="evenodd" d="M358.547 97.2763L359.191 96.8472C285.594 -28.6752 189.467 70.2407 189.467 70.2407L189.682 70.4553C244.826 167.44 349.964 102.641 358.547 97.2763Z" fill="url(#paint1_linear_20_98)"/>
<path d="M267.356 313.344C247.186 361.837 208.135 393.807 161.144 398.742C160.072 398.957 147.197 399.815 140.117 399.386C196.119 440.154 261.991 447.02 261.991 447.02C276.153 448.522 292.031 449.595 308.124 449.166C313.702 434.361 316.921 417.624 316.063 398.313C313.917 353.897 339.665 330.939 367.773 319.352C353.397 297.252 342.669 270.431 335.374 245.326C313.488 251.119 285.808 269.358 267.356 313.344Z" fill="url(#paint2_linear_20_98)"/>
<path d="M315.204 398.1C316.062 417.196 312.2 434.576 306.621 449.381C348.032 448.309 391.375 436.507 402.533 391.448C404.893 382.007 405.108 371.493 401.245 362.481C397.383 353.684 390.088 347.032 383.651 339.952C377.643 333.3 372.064 326.005 367.129 318.28C339.021 330.082 313.058 353.469 315.204 398.1Z" fill="url(#paint3_linear_20_98)"/>
<path d="M333.872 240.39C327.435 223.439 322.071 206.274 313.918 190.396C311.128 185.031 308.124 179.882 304.691 174.947C296.323 163.145 287.526 151.559 276.797 141.903C258.559 141.903 239.248 138.899 221.868 129.887C204.059 154.992 183.889 197.691 202.342 246.398C229.807 318.278 174.019 367.414 138.401 397.883L140.117 399.17C146.769 399.599 153.635 399.599 160.287 398.956C207.492 394.021 248.474 361.192 268.858 312.914C287.311 268.927 313.918 252.191 335.804 246.398C334.945 244.252 334.516 242.321 333.872 240.39Z" fill="url(#paint4_linear_20_98)"/>
<path d="M100.206 144.48C72.9563 174.305 58.5802 216.36 59.0093 257.557C59.2239 281.374 65.6609 303.904 75.9602 324.503C77.4622 327.507 79.1787 330.725 80.8953 333.729C138.4 276.01 117.586 190.183 100.206 144.48Z" fill="url(#paint5_linear_20_98)"/>
<path d="M203.201 246.401C184.533 197.694 204.488 155.21 222.083 130.105C210.496 124.097 199.982 115.944 191.399 105.859C177.667 105.645 163.935 107.79 150.846 112.082C130.033 118.948 112.224 131.178 98.2768 146.627C115.228 191.257 135.397 275.368 79.3948 331.799C90.1232 350.467 104.07 367.418 119.734 382.437C125.956 388.231 132.393 393.81 139.259 398.959C175.092 368.276 230.665 318.282 203.201 246.401Z" fill="url(#paint6_linear_20_98)"/>
<path d="M272.507 78.1791C311.343 93.4135 338.594 97.7048 358.334 97.0611L358.978 96.632C285.381 -28.8904 189.254 70.0256 189.254 70.0256L189.469 70.2401C210.067 66.5924 240.321 65.5196 272.507 78.1791Z" fill="url(#paint7_linear_20_98)"/>
<path d="M272.936 77.3211C240.75 64.6615 210.282 65.0907 189.254 70.2403C244.613 167.225 349.537 102.64 358.334 97.0613C338.594 97.705 311.773 92.5554 272.936 77.3211Z" fill="url(#paint8_linear_20_98)"/>
<defs>
<linearGradient id="paint0_linear_20_98" x1="19.9592" y1="158.161" x2="469.624" y2="427.623" gradientUnits="userSpaceOnUse">
<stop stop-color="#E54033"/>
<stop offset="0.4896" stop-color="#FECA1A"/>
<stop offset="1" stop-color="#AFD803"/>
</linearGradient>
<linearGradient id="paint1_linear_20_98" x1="69459.6" y1="71249.3" x2="41309.2" y2="42292.7" gradientUnits="userSpaceOnUse">
<stop offset="0.15" stop-color="#6CBF00"/>
<stop offset="1" stop-color="#AFD803"/>
</linearGradient>
<linearGradient id="paint2_linear_20_98" x1="93.6983" y1="402.657" x2="375.463" y2="334.146" gradientUnits="userSpaceOnUse">
<stop offset="0.21" stop-color="#E54033"/>
<stop offset="0.84" stop-color="#FECA1A"/>
</linearGradient>
<linearGradient id="paint3_linear_20_98" x1="315.687" y1="383.645" x2="402.628" y2="384.296" gradientUnits="userSpaceOnUse">
<stop stop-color="#FECA1A"/>
<stop offset="0.4" stop-color="#FECA1A"/>
<stop offset="1" stop-color="#AFD803"/>
</linearGradient>
<linearGradient id="paint4_linear_20_98" x1="118.901" y1="404.412" x2="297.151" y2="163.093" gradientUnits="userSpaceOnUse">
<stop offset="0.16" stop-color="#E54033"/>
<stop offset="0.84" stop-color="#FECA1A"/>
</linearGradient>
<linearGradient id="paint5_linear_20_98" x1="92.9336" y1="164.627" x2="85.0403" y2="320.495" gradientUnits="userSpaceOnUse">
<stop stop-color="#FECA1A"/>
<stop offset="0.76" stop-color="#E54033"/>
</linearGradient>
<linearGradient id="paint6_linear_20_98" x1="180.133" y1="124.154" x2="132.527" y2="304.922" gradientUnits="userSpaceOnUse">
<stop offset="0.16" stop-color="#FECA1A"/>
<stop offset="1" stop-color="#E54033"/>
</linearGradient>
<linearGradient id="paint7_linear_20_98" x1="198.575" y1="37.6019" x2="374.837" y2="102.572" gradientUnits="userSpaceOnUse">
<stop offset="0.15" stop-color="#6CBF00"/>
<stop offset="1" stop-color="#AFD803"/>
</linearGradient>
<linearGradient id="paint8_linear_20_98" x1="69457" y1="71251.3" x2="41306.6" y2="42294.6" gradientUnits="userSpaceOnUse">
<stop offset="0.15" stop-color="#6CBF00"/>
<stop offset="1" stop-color="#AFD803"/>
</linearGradient>
</defs>
</svg>
