<svg viewBox="0 0 500 500" fill="none" xmlns="http://www.w3.org/2000/svg">
    <circle cx="250" cy="250" r="224" fill="url(#paint0_radial_20_39)"/>
    <g clip-path="url(#clip0_20_39)">
        <path d="M431.13 141.04C435.5 149.01 440.16 156.84 444.18 164.98C450.2 177.16 454.82 189.94 457.62 203.24C459.59 212.58 461.03 222.06 462.18 231.54C462.99 238.22 462.85 245.02 463.25 251.76C463.76 260.33 462.32 268.72 461.4 277.18C459.86 291.36 456.27 305.01 451.57 318.38C449.1 325.4 445.89 332.15 443.01 339.02C442.8 339.35 442.55 339.65 442.38 340C435.26 354.45 426.39 367.77 416.22 380.23C415.86 380.71 415.49 381.2 415.13 381.68C414.85 381.99 414.58 382.3 414.3 382.61C413.83 383.04 413.34 383.44 412.9 383.9C407.59 389.39 402.48 395.1 396.93 400.34C383.99 412.57 369.49 422.67 353.84 431.16C340.56 438.36 326.6 443.94 312.2 448.43L307.81 449.67C307.2 449.87 306.59 450.07 305.98 450.26C301.89 451.16 297.82 452.14 293.71 452.93C288.69 453.89 283.65 455.31 278.59 455.44C268.11 455.71 257.6 455.44 247.11 455.02C241 454.77 234.87 454.06 228.83 453.06C220.64 451.7 212.54 449.86 204.4 448.23C204.05 448.14 203.71 448.05 203.36 447.96L202.42 447.85C202.09 447.7 201.76 447.55 201.44 447.41C201.13 447.4 200.82 447.39 200.51 447.38C195.96 445.77 191.32 444.35 186.87 442.49C179 439.21 171.09 435.96 163.49 432.13C151.85 426.27 141.86 418.32 134.84 407.08C131.22 401.56 130.18 395.21 128.97 388.92C129.07 383.93 128.93 378.92 130.38 374.05C132.07 370.01 133.76 365.97 135.45 361.93C138.64 357.76 141.83 353.59 145.01 349.43C149.98 345.05 154.96 340.66 159.93 336.28C165.31 333.76 170.7 331.24 176.08 328.72C177.79 328.83 179.67 328.52 181.19 329.11C189.33 332.3 197.36 335.76 205.47 339.03C209.69 340.73 213.95 342.39 218.28 343.78C223.3 345.4 228.4 346.83 233.52 348.11C239.2 349.54 244.92 350.89 250.68 351.94C256.39 352.98 262.16 353.63 267.92 354.38C271.96 354.9 276.03 355.28 280.08 355.73C282.89 356.08 285.69 356.53 288.5 356.77C293.21 357.17 297.93 357.47 302.64 357.74C308.38 358.07 314.12 358.33 319.87 358.62C320.35 358.65 320.83 358.74 321.3 358.7C329.24 358.06 337.22 357.63 345.12 356.67C350.7 356 355.85 354 359.9 349.69C364.2 345.11 366.89 339.68 368.86 333.83C371.47 326.03 372.42 317.91 373.07 309.76C373.18 308.36 373.61 307.76 374.99 307.29C379.06 305.92 383.05 304.3 387.07 302.78C393.27 299.83 399.48 296.87 405.68 293.92C411.62 289.83 417.56 285.74 423.5 281.66C428.24 277.99 431.77 273.31 434.6 268.1C438.53 260.88 440.95 253.22 440.65 244.89C440.62 244.16 440.23 243.13 439.67 242.78C434.94 239.84 430.13 237.02 425.35 234.17C419.76 230.8 414.16 227.43 408.57 224.06C402.04 220.13 395.51 216.21 388.99 212.28C385.6 210.19 382.3 207.95 378.8 206.07C376.91 205.05 376.11 203.56 375.5 201.74C372 191.36 366.37 182.17 359.75 173.53L359.78 173.55C359.43 173.08 359.09 172.6 358.74 172.13C354.76 167.34 350.78 162.56 346.81 157.77C346.33 157.27 345.86 156.76 345.38 156.26L345.4 156.28C342.06 152.92 338.81 149.47 335.37 146.22C330.34 141.48 325.2 136.86 320.05 132.25C318.86 131.19 317.43 130.4 316.11 129.49C315.66 128.94 315.3 128.25 314.74 127.87C309 124.05 303.23 120.29 297.47 116.51C296.9 116.1 296.36 115.62 295.74 115.29C286.7 110.57 277.64 105.86 268.59 101.15C263.81 98.89 259.02 96.63 254.24 94.37C248.81 91.66 243.38 88.94 237.94 86.23C233.64 83.7 229.34 81.17 225.04 78.64C222.42 76.33 219.8 74.03 216.54 71.16C216.85 74.58 217.1 77.35 217.35 80.12C217.91 82.78 218.47 85.44 219.1 88.41C217.69 88.25 216.4 88.28 215.22 87.93C209.19 86.13 203.19 84.24 197.18 82.37C188.65 78.92 180.13 75.47 171.35 71.92C170.76 77.2 175.33 79.83 177.66 83.66C173.05 83.99 168.8 84.3 164.54 84.61C162.6 84.71 160.64 84.73 158.71 84.92C156.17 85.17 153.64 85.56 151.1 85.89C146.94 86.38 142.79 86.87 138.63 87.37C132.39 88.44 126.15 89.51 119.9 90.58C118.12 90.88 116.33 91.18 114.07 91.55C115.33 90.51 116.16 89.78 117.04 89.1C155.79 59.46 199.74 44.64 248.39 44.01C260.02 43.86 271.74 45.13 283.31 46.62C305.32 49.45 326.21 56.27 346.12 66.02C371.23 78.32 393.18 94.85 411.73 115.78C416.2 120.82 420.34 126.16 424.53 131.45C426.64 134.11 428.52 136.96 430.5 139.72L430.49 139.74C430.71 140.17 430.92 140.6 431.14 141.04H431.13Z" fill="black"/>
        <path d="M59.9701 344.37C55.6001 333.93 50.7701 323.66 46.9701 313.01C41.9601 299.01 38.9501 284.44 37.9601 269.58C37.3001 259.59 37.2101 249.55 37.0001 239.53C36.9201 235.74 38.4301 232.27 39.9701 228.87C42.6601 225.11 45.3601 221.34 48.0501 217.58C52.3601 212.38 56.6701 207.17 60.9801 201.97C61.8001 204 62.6201 206.04 63.5601 208.37C64.1101 207.46 64.5101 206.8 64.9101 206.14C67.8801 202.97 70.8501 199.8 73.8101 196.63C78.9601 192.05 84.1101 187.48 89.2501 182.9C89.7801 182.54 90.3101 182.19 90.9301 181.78C91.2001 185.6 91.4601 189.16 91.7501 193.3C96.2101 189.66 99.6301 185.82 102.73 181.65C105.44 178.32 108.17 175.01 110.85 171.65C113.74 168.03 116.58 164.36 119.79 160.27C119.92 162.09 120 163.32 120.08 164.54C120.08 167.74 120.08 170.93 120.08 174.58C121.89 173.46 123.29 172.59 124.69 171.73C125.62 171.2 126.53 170.65 127.47 170.15C131.84 167.86 136.21 165.59 140.58 163.32C143.29 162.04 146.01 160.77 148.72 159.49C152.06 158.1 155.4 156.72 158.74 155.33C162.74 154.06 166.73 152.8 170.73 151.53C172.45 151.54 174.18 151.55 175.9 151.56C169.35 156.31 163.62 161.88 159.24 168.72C155.95 173.86 153.63 179.34 154.03 185.64C153.69 191.2 156.05 195.83 158.9 200.18C159.6 196.56 159.98 192.86 161.04 189.37C164.3 178.61 171.26 170.56 180.29 164.17C192.3 155.68 205.82 150.71 219.99 147.31C224.2 146.3 228.49 145.57 233.3 144.61C230.78 148.37 228.64 151.56 226.25 155.14C233.73 154.6 240.66 153.96 247.62 153.64C255.41 153.29 263.21 153.18 271.01 153.08C273.61 153.05 276.23 153.27 278.81 153.56C280.37 153.74 281.9 154.3 283.94 154.81C280.58 157.31 277.76 159.4 274.8 161.6C275.3 161.85 275.57 162.11 275.85 162.11C278.26 162.15 280.68 161.94 283.06 162.18C289.61 162.85 296.25 163.23 302.67 164.62C310.17 166.25 317.53 168.6 324.81 171.07C329.52 172.67 333.97 175.06 338.54 177.09C344.74 180.8 350.77 184.74 355.81 190C357.72 192.87 359.83 195.64 361.46 198.66C362.17 199.98 361.89 201.83 362.06 203.44C357.59 202.61 353.12 201.77 348.64 200.94C348.15 200.72 347.69 200.43 347.18 200.29C340.17 198.38 333.16 196.48 326.15 194.58C314.73 190.93 303.31 187.28 291.47 183.5C293.19 185.55 294.67 187.11 295.89 188.85C296.47 189.68 296.77 190.85 296.81 191.87C296.94 195.38 296.55 198.95 296.99 202.41C297.79 208.58 302.45 213.9 309.77 213.42C315.89 213.01 321.39 210.6 326.74 207.88C328.57 206.95 330.2 205.89 332.33 206.59C337.4 208.22 342.46 209.85 347.9 211.6C345.61 212.99 343.75 214.11 341.89 215.24C329.07 222.28 314.13 235.56 310.14 246.48C310.39 246.39 310.65 246.36 310.8 246.23C320.88 237.36 332.15 230.47 344.8 225.9C348.64 224.95 352.48 224.01 356.32 223.06C360.15 222.7 363.98 222.33 367.8 221.97C369.88 222.13 371.96 222.29 374.04 222.45C375.96 222.61 377.88 222.77 379.79 222.93L390.82 224.86C396.69 227.15 402.57 229.43 408.44 231.72C413.7 234.85 419.13 237.73 423.78 242.01C420.77 242.27 418.02 242.52 415.27 242.76C411.28 242.73 407.28 242.66 403.29 242.72C402.66 242.72 401.65 243.2 401.47 243.7C400.54 246.17 402.9 251.07 405.41 252.03C405.85 252.2 406.47 252.03 406.96 251.87C409.9 250.89 412.82 249.86 415.75 248.84C419.11 248.69 422.46 248.53 425.82 248.38C429.52 250.28 429.82 249.46 428.64 253.68C427.65 257.21 426.08 260.57 424.77 264.01C423.5 265.52 422.25 267.06 420.94 268.54C417.5 272.4 413.04 274.81 408.55 277.17C404.63 278.29 400.76 279.65 396.77 280.45C394.52 280.9 392.81 281.65 391.67 283.62C390.69 284.54 389.72 285.47 388.73 286.39C385.04 289.8 381.08 292.74 375.95 293.58C374.41 293.31 374.03 292.61 374.33 290.94C375.06 286.86 375.48 282.71 375.9 278.58C375.96 277.99 375.47 276.93 375.01 276.78C371.68 275.73 368.29 274.85 364.92 273.92C362.2 273.34 359.51 272.59 356.77 272.21C352.15 271.57 347.5 271.16 342.87 270.66C338.16 270.77 333.45 270.75 328.76 271.04C326.25 271.2 323.78 271.9 321.28 272.36C311.59 273.96 302.88 277.88 294.96 283.58C290.06 287.11 285.78 291.3 281.83 296.64C288.8 299.45 295.42 302.12 302.04 304.79C309.32 307.66 316.82 309.63 324.65 310.25C325.4 310.42 326.14 310.73 326.89 310.74C330.87 310.77 334.87 310.95 338.83 310.65C344.32 310.24 349.6 308.87 354.38 305.97C356.26 304.77 358.15 303.58 360.13 302.32C360.13 304.61 360.08 306.75 360.14 308.89C360.3 314.2 359.06 319.09 355.99 323.48C355.7 323.9 355.46 324.49 355.48 324.98C355.56 326.8 355.75 328.61 355.9 330.43C355.43 339.77 351.18 345.32 342.23 347.4C338.73 348.21 334.99 348 331.36 348.26C321.29 347.3 311.22 346.34 301.15 345.38C298.82 345.06 296.49 344.76 294.17 344.4C288.83 343.58 283.5 342.73 278.16 341.89C273.79 340.91 269.4 339.99 265.04 338.94C257.98 337.24 250.76 335.99 243.94 333.6C231.73 329.31 219.69 324.5 207.73 319.54C198.88 315.87 190.5 311.19 182.76 305.49C176.34 300.76 170.67 295.38 167.1 288.02C164.21 282.05 164.14 275.87 166.77 270.2C169.18 265.01 172.83 260.32 176.36 255.74C178.6 252.82 181.61 250.48 184.27 247.88C184.02 247.61 183.78 247.34 183.53 247.07C171.48 252.2 162.58 260.98 155.69 272.09C155.27 272.75 154.85 273.42 154.44 274.09C151.46 278.88 150.14 284.21 149.25 289.69C148.52 298.7 151.6 306.6 156.61 313.82C152.83 315.88 149.34 317.79 145.85 319.7C140.56 323.11 135.27 326.51 129.97 329.92C125.97 333.27 121.97 336.61 117.97 339.96C114.84 343.31 111.72 346.65 108.59 350C106.13 353.55 103.68 357.11 101.22 360.66C99.4901 364.34 97.7501 368.01 96.0201 371.69C95.1401 375.19 94.2701 378.69 93.3901 382.19C93.1901 384.29 92.9801 386.38 92.7801 388.48C91.3601 390.8 91.1701 387.7 90.2301 387.9C90.1001 387.76 89.9601 387.62 89.8301 387.48C89.0001 386.51 88.1701 385.55 87.3401 384.58C82.0601 377.63 76.5001 370.88 71.5701 363.69C67.3301 357.51 63.8101 350.84 59.9801 344.39L59.9701 344.37Z" fill="black"/>
    </g>
    <defs>
        <radialGradient id="paint0_radial_20_39" cx="0" cy="0" r="1" gradientUnits="userSpaceOnUse" gradientTransform="translate(250 250) rotate(90) scale(224)">
            <stop stop-color="#DC71DD"/>
            <stop offset="1" stop-color="#7A087A"/>
        </radialGradient>
        <clipPath id="clip0_20_39">
            <rect width="426.35" height="411.57" fill="white" transform="translate(37 44)"/>
        </clipPath>
    </defs>
</svg>
