<svg width="500" height="500" viewBox="0 0 500 500" fill="none" xmlns="http://www.w3.org/2000/svg">
    <rect width="500" height="500" rx="250" fill="white"/>
    <path d="M92.1468 86.744C80.3281 104.641 77.6267 137.058 85.3933 171.163C87.757 182.306 93.8352 210.333 98.9003 233.633C103.965 256.933 111.394 285.635 115.109 297.792C142.461 385.25 198.515 426.446 284.285 422.056C385.587 416.654 447.044 311.299 404.16 216.074C394.705 194.8 393.016 186.358 391.328 154.955C389.977 123.888 388.626 117.472 383.224 113.42C373.769 106.667 370.73 107.342 341.69 122.538L315.351 136.72H252.543C179.943 136.382 182.644 137.395 143.474 102.277C113.758 75.263 101.939 71.8862 92.1468 86.744ZM120.174 95.8612C133.681 110.044 149.889 138.746 149.552 147.526C148.539 168.124 148.201 168.462 144.149 161.033C140.434 154.617 140.434 154.617 137.733 161.033C136.382 164.747 135.032 172.176 135.032 177.579C134.694 184.67 133.343 186.696 129.291 185.008C125.239 183.319 124.564 184.67 126.59 190.411C128.278 196.151 127.603 197.164 123.213 195.476C119.161 193.787 117.81 195.138 117.81 200.541C117.81 207.632 117.81 207.632 110.719 201.216C95.1859 187.034 89.1077 169.812 89.1077 137.395C89.1077 104.303 94.5105 85.0556 103.965 85.0556C107.342 85.0556 114.433 90.1207 120.174 95.8612ZM380.522 119.499C383.224 122.2 384.574 135.707 384.574 157.318C384.574 176.904 383.224 189.735 381.535 188.047C379.847 186.021 375.457 175.553 371.405 164.409C362.963 141.11 356.21 134.356 347.092 139.421C339.663 143.136 339.326 141.447 344.053 132.33C348.105 124.901 362.963 115.784 371.405 115.446C374.106 115.446 378.159 117.135 380.522 119.499ZM299.142 144.149C314 145.837 343.04 165.76 336.962 169.812C330.209 173.864 336.962 183.319 348.781 187.371C359.586 191.086 363.638 188.384 357.56 181.293C355.197 178.592 354.859 176.228 356.885 176.228C361.95 176.228 368.704 185.683 366.002 189.735C364.989 191.424 365.327 193.112 367.353 193.112C372.756 193.112 391.666 210.333 389.64 213.373C388.626 215.061 392.679 223.503 398.757 231.945C409.562 247.14 409.9 248.829 409.562 280.232C409.225 322.78 401.121 344.391 375.457 372.08C348.443 401.458 322.104 413.615 281.921 415.303C218.438 418.004 171.163 395.042 143.136 347.092C135.032 333.248 134.356 330.546 138.746 325.481C145.837 316.701 151.915 301.168 148.201 301.168C141.11 301.168 145.162 287.324 155.292 275.843C163.396 266.725 165.085 262.673 162.046 259.634C155.968 253.556 157.318 249.504 172.514 228.23C181.631 216.074 186.358 205.606 186.021 200.879C185.345 196.151 187.034 192.099 190.411 191.086C193.45 189.735 194.8 186.696 193.787 182.982C191.424 175.553 214.723 157.318 234.308 151.915C241.737 149.889 249.842 146.175 252.543 143.811C257.27 139.759 263.011 139.759 299.142 144.149Z" fill="black"/>
    <path d="M219.113 172.851C219.113 174.54 218.1 175.891 216.749 175.553C213.035 174.54 198.853 183.995 198.853 187.709C198.853 191.424 230.932 188.385 243.763 183.319C249.842 180.956 252.543 178.254 250.855 175.553C248.829 172.514 247.816 172.514 246.803 175.891C245.79 178.592 244.101 178.254 240.387 173.864C237.685 170.488 236.335 169.812 237.685 171.838C239.036 174.877 237.348 176.228 232.958 176.228C228.906 176.228 225.867 174.54 225.867 172.851C225.867 170.825 224.516 169.475 222.49 169.475C220.801 169.475 219.113 170.825 219.113 172.851Z" fill="black"/>
    <path d="M298.13 188.047C301.844 190.748 306.909 193.112 309.273 193.112C311.637 193.112 313.663 195.476 313.663 198.177C313.663 201.892 309.273 203.242 295.766 203.242C242.076 203.242 197.84 238.698 193.113 285.635C190.411 311.636 197.84 330.209 219.451 350.131C260.648 388.627 316.364 392.679 358.574 360.262C378.834 344.729 394.705 313.662 394.705 289.687C394.368 256.933 371.068 222.828 339.326 209.996C329.534 205.944 321.43 200.541 321.43 198.177C321.43 195.813 324.131 194.8 327.508 195.476C330.547 196.489 334.261 195.476 335.274 193.45C336.963 191.086 333.586 189.735 326.495 189.735C320.416 189.735 309.949 188.385 303.533 186.358C292.727 183.319 292.389 183.657 298.13 188.047Z" fill="black"/>
</svg>
