<?xml version="1.0" standalone="no"?>
<!DOCTYPE svg PUBLIC "-//W3C//DTD SVG 20010904//EN"
 "http://www.w3.org/TR/2001/REC-SVG-20010904/DTD/svg10.dtd">
<svg version="1.0" xmlns="http://www.w3.org/2000/svg"
 width="200.000000pt" height="200.000000pt" viewBox="0 0 200.000000 200.000000"
 preserveAspectRatio="xMidYMid meet">

<g transform="translate(0.000000,200.000000) scale(0.100000,-0.100000)"
fill="#000000" stroke="none">
<path d="M534 1535 c-35 -53 -43 -149 -20 -250 7 -33 25 -116 40 -185 15 -69
37 -154 48 -190 81 -259 247 -381 501 -368 300 16 482 328 355 610 -28 63 -33
88 -38 181 -4 92 -8 111 -24 123 -28 20 -37 18 -123 -27 l-78 -42 -186 0
c-215 1 -207 -2 -323 102 -88 80 -123 90 -152 46z m83 -27 c40 -42 88 -127 87
-153 -3 -61 -4 -62 -16 -40 -11 19 -11 19 -19 0 -4 -11 -8 -33 -8 -49 -1 -21
-5 -27 -17 -22 -12 5 -14 1 -8 -16 5 -17 3 -20 -10 -15 -12 5 -16 1 -16 -15 0
-21 0 -21 -21 -2 -46 42 -64 93 -64 189 0 98 16 155 44 155 10 0 31 -15 48
-32z m771 -70 c8 -8 12 -48 12 -112 0 -58 -4 -96 -9 -91 -5 6 -18 37 -30 70
-25 69 -45 89 -72 74 -22 -11 -23 -6 -9 21 12 22 56 49 81 50 8 0 20 -5 27
-12z m-241 -73 c44 -5 130 -64 112 -76 -20 -12 0 -40 35 -52 32 -11 44 -3 26
18 -7 8 -8 15 -2 15 15 0 35 -28 27 -40 -3 -5 -2 -10 4 -10 16 0 72 -51 66
-60 -3 -5 9 -30 27 -55 32 -45 33 -50 32 -143 -1 -126 -25 -190 -101 -272 -80
-87 -158 -123 -277 -128 -188 -8 -328 60 -411 202 -24 41 -26 49 -13 64 21 26
39 72 28 72 -21 0 -9 41 21 75 24 27 29 39 20 48 -18 18 -14 30 31 93 27 36
41 67 40 81 -2 14 3 26 13 29 9 4 13 13 10 24 -7 22 62 76 120 92 22 6 46 17
54 24 14 12 31 12 138 -1z"/>
<path d="M910 1280 c0 -5 -3 -9 -7 -8 -11 3 -53 -25 -53 -36 0 -11 95 -2 133
13 18 7 26 15 21 23 -6 9 -9 9 -12 -1 -3 -8 -8 -7 -19 6 -8 10 -12 12 -8 6 4
-9 -1 -13 -14 -13 -12 0 -21 5 -21 10 0 6 -4 10 -10 10 -5 0 -10 -4 -10 -10z"/>
<path d="M1144 1235 c11 -8 26 -15 33 -15 7 0 13 -7 13 -15 0 -11 -13 -15 -53
-15 -159 0 -290 -105 -304 -244 -8 -77 14 -132 78 -191 122 -114 287 -126 412
-30 60 46 107 138 107 209 -1 97 -70 198 -164 236 -29 12 -53 28 -53 35 0 7 8
10 18 8 9 -3 20 0 23 6 5 7 -5 11 -26 11 -18 0 -49 4 -68 10 -32 9 -33 8 -16
-5z"/>
</g>
</svg>
