<?xml version="1.0" encoding="UTF-8"?>
<!DOCTYPE svg PUBLIC "-//W3C//DTD SVG 1.1//EN" "http://www.w3.org/Graphics/SVG/1.1/DTD/svg11.dtd">
<svg xmlns="http://www.w3.org/2000/svg" version="1.1" width="2000px" height="2000px" style="shape-rendering:geometricPrecision; text-rendering:geometricPrecision; image-rendering:optimizeQuality; fill-rule:evenodd; clip-rule:evenodd" xmlns:xlink="http://www.w3.org/1999/xlink">
<g><path style="opacity:0.436" fill="#030107" d="M 958.5,35.5 C 1227.57,27.8135 1461.23,113.647 1659.5,293C 1836.46,461.092 1937.62,667.259 1963,911.5C 1983.75,1179.22 1909.41,1416.22 1740,1622.5C 1568.92,1820.47 1352.42,1933.31 1090.5,1961C 822.784,1981.75 585.784,1907.41 379.5,1738C 181.525,1566.92 68.6917,1350.42 41,1088.5C 20.2532,820.784 94.5866,583.784 264,377.5C 423.971,192.063 625.805,80.8959 869.5,44C 899.221,40.1084 928.888,37.2751 958.5,35.5 Z"/></g>
<g><path style="opacity:1" fill="#341d5c" d="M 963.5,36.5 C 1226.16,30.417 1455.16,113.917 1650.5,287C 1846.56,469.995 1951.39,696.162 1965,965.5C 1970.6,1233.47 1883.27,1465.47 1703,1661.5C 1522.24,1848.1 1301.41,1948.6 1040.5,1963C 786.982,1969.73 563.982,1891.73 371.5,1729C 192.665,1571.23 84.8318,1373.73 48,1136.5C 13.703,866.984 78.0363,624.318 241,408.5C 378.613,234.39 555.446,119.557 771.5,64C 834.757,48.7014 898.757,39.5347 963.5,36.5 Z"/></g>
<g><path style="opacity:1" fill="#fdfdfd" d="M 1104.5,494.5 C 1106.91,495.768 1109.57,496.435 1112.5,496.5C 1166.26,510.722 1214.93,534.722 1258.5,568.5C 1259.58,570.587 1261.25,571.92 1263.5,572.5C 1270.09,578.147 1276.76,583.814 1283.5,589.5C 1285.83,593.833 1289.17,597.167 1293.5,599.5C 1355.44,661.695 1393.78,736.695 1408.5,824.5C 1408.33,827.85 1408.5,831.183 1409,834.5C 1409.23,835.737 1409.73,836.737 1410.5,837.5C 1414.01,866.795 1414.34,896.128 1411.5,925.5C 1409.57,929.373 1408.9,933.706 1409.5,938.5C 1402.4,990.14 1385.07,1037.81 1357.5,1081.5C 1356.09,1081.97 1355.43,1082.97 1355.5,1084.5C 1341.74,1105.94 1326.4,1126.28 1309.5,1145.5C 1307.41,1146.58 1306.08,1148.25 1305.5,1150.5C 1300.34,1154.83 1295.67,1159.66 1291.5,1165C 1290.5,1165.17 1289.5,1165.33 1288.5,1165.5C 1261.4,1160.21 1234.4,1154.55 1207.5,1148.5C 1240.81,1122.2 1269.14,1091.53 1292.5,1056.5C 1293.91,1056.03 1294.57,1055.03 1294.5,1053.5C 1295.91,1053.03 1296.57,1052.03 1296.5,1050.5C 1311.28,1026.6 1323.11,1001.27 1332,974.5C 1336.13,959.691 1339.3,944.691 1341.5,929.5C 1342.93,926.097 1343.76,922.43 1344,918.5C 1344.5,911.842 1344.67,905.175 1344.5,898.5C 1345.66,889.343 1345.82,880.009 1345,870.5C 1344.97,864.238 1344.13,858.238 1342.5,852.5C 1333.02,768.978 1298.02,698.311 1237.5,640.5C 1236.09,638.086 1234.09,636.419 1231.5,635.5C 1182.15,592.996 1125.15,566.329 1060.5,555.5C 1055.43,553.822 1050.1,553.156 1044.5,553.5C 982.135,547.745 922.468,558.078 865.5,584.5C 862.759,584.707 860.426,585.707 858.5,587.5C 757.462,641.214 697.295,724.547 678,837.5C 670.764,889.785 675.598,940.952 692.5,991C 696.984,999.328 700.318,1007.83 702.5,1016.5C 680.043,1008.18 657.376,1000.35 634.5,993C 630.736,990.937 626.736,989.271 622.5,988C 615.927,969.481 611.761,950.314 610,930.5C 603.713,874.936 608.88,820.603 625.5,767.5C 627.277,764.495 628.277,761.162 628.5,757.5C 646.59,702.84 674.923,654.507 713.5,612.5C 719.812,608.188 725.145,602.855 729.5,596.5C 756.474,570.978 786.474,549.311 819.5,531.5C 821.989,531.759 823.656,530.759 824.5,528.5C 826.153,528.34 827.486,527.674 828.5,526.5C 831.461,526.536 833.794,525.536 835.5,523.5C 856.702,513.208 878.702,504.875 901.5,498.5C 904.228,498.829 906.562,498.163 908.5,496.5C 941.459,487.689 975.126,483.689 1009.5,484.5C 1041.65,483.739 1073.31,487.072 1104.5,494.5 Z"/></g>
<g><path style="opacity:1" fill="#82739a" d="M 1104.5,494.5 C 1107.5,494.294 1110.16,494.96 1112.5,496.5C 1109.57,496.435 1106.91,495.768 1104.5,494.5 Z"/></g>
<g><path style="opacity:1" fill="#ada4be" d="M 908.5,496.5 C 906.562,498.163 904.228,498.829 901.5,498.5C 903.599,497.388 905.933,496.721 908.5,496.5 Z"/></g>
<g><path style="opacity:1" fill="#afa5bf" d="M 835.5,523.5 C 833.794,525.536 831.461,526.536 828.5,526.5C 830.509,524.935 832.843,523.935 835.5,523.5 Z"/></g>
<g><path style="opacity:1" fill="#b2a8c1" d="M 824.5,528.5 C 823.656,530.759 821.989,531.759 819.5,531.5C 820.899,530.11 822.566,529.11 824.5,528.5 Z"/></g>
<g><path style="opacity:1" fill="#a297b4" d="M 1044.5,553.5 C 1050.1,553.156 1055.43,553.822 1060.5,555.5C 1054.97,555.332 1049.63,554.665 1044.5,553.5 Z"/></g>
<g><path style="opacity:1" fill="#9184a7" d="M 1258.5,568.5 C 1260.75,569.08 1262.42,570.413 1263.5,572.5C 1261.25,571.92 1259.58,570.587 1258.5,568.5 Z"/></g>
<g><path style="opacity:1" fill="#aca2bc" d="M 865.5,584.5 C 863.574,586.293 861.241,587.293 858.5,587.5C 860.426,585.707 862.759,584.707 865.5,584.5 Z"/></g>
<g><path style="opacity:1" fill="#b1a9c1" d="M 1283.5,589.5 C 1287.17,592.5 1290.5,595.833 1293.5,599.5C 1289.17,597.167 1285.83,593.833 1283.5,589.5 Z"/></g>
<g><path style="opacity:1" fill="#f9f9fa" d="M 650.5,600.5 C 655.598,601.957 660.931,602.624 666.5,602.5C 675.331,604.065 684.331,605.399 693.5,606.5C 684.019,606.819 674.352,606.819 664.5,606.5C 600.711,599.555 536.711,597.055 472.5,599C 462.972,599.341 453.638,600.175 444.5,601.5C 435.924,601.614 427.59,602.614 419.5,604.5C 415.642,605.294 411.642,605.96 407.5,606.5C 404.505,606.294 401.838,606.96 399.5,608.5C 367.006,613.754 338.006,626.587 312.5,647C 275.058,683.616 266.558,726.116 287,774.5C 294.336,790.521 303.669,805.188 315,818.5C 345.656,852.695 380.489,881.362 419.5,904.5C 419.973,905.906 420.973,906.573 422.5,906.5C 456.083,927.637 491.083,946.804 527.5,964C 664.063,1025.91 805.396,1074.41 951.5,1109.5C 953.515,1110.92 955.848,1111.59 958.5,1111.5C 1038.8,1131.59 1119.8,1148.59 1201.5,1162.5C 1204.17,1164.12 1207.17,1164.78 1210.5,1164.5C 1225.36,1167.59 1240.36,1169.92 1255.5,1171.5C 1259.94,1172.8 1264.61,1173.47 1269.5,1173.5C 1366.46,1188.81 1464.13,1195.31 1562.5,1193C 1578.78,1191.02 1595.12,1189.52 1611.5,1188.5C 1619.89,1188.73 1627.89,1187.39 1635.5,1184.5C 1666.95,1179.96 1696.62,1170.13 1724.5,1155C 1732.64,1150 1740.31,1144.5 1747.5,1138.5C 1749.91,1137.09 1751.58,1135.09 1752.5,1132.5C 1766.8,1117.16 1774.63,1098.82 1776,1077.5C 1777.52,1047.58 1770.85,1019.58 1756,993.5C 1733.46,958.62 1705.63,928.454 1672.5,903C 1635.84,876.322 1597.17,852.655 1556.5,832C 1519.98,814.44 1482.64,798.94 1444.5,785.5C 1444.5,784.833 1444.83,784.5 1445.5,784.5C 1519.34,802.047 1588.68,830.214 1653.5,869C 1687.86,890.34 1719.03,915.84 1747,945.5C 1774.46,976.084 1791.46,1011.75 1798,1052.5C 1801.96,1086.01 1793.79,1116.01 1773.5,1142.5C 1770.76,1144.24 1768.76,1146.57 1767.5,1149.5C 1748.27,1167.29 1726.27,1180.79 1701.5,1190C 1667.98,1201.67 1633.65,1209.17 1598.5,1212.5C 1588.31,1212.59 1578.31,1213.26 1568.5,1214.5C 1521.15,1215.97 1473.82,1215.64 1426.5,1213.5C 1420.69,1212.42 1414.69,1211.76 1408.5,1211.5C 1360.28,1207.97 1312.28,1202.47 1264.5,1195C 1227.87,1188.54 1191.2,1182.21 1154.5,1176C 1112.43,1167.29 1070.43,1158.12 1028.5,1148.5C 1026.16,1146.96 1023.5,1146.29 1020.5,1146.5C 1018.96,1145.7 1017.29,1145.37 1015.5,1145.5C 1013.16,1143.96 1010.5,1143.29 1007.5,1143.5C 977.303,1136.45 947.303,1128.78 917.5,1120.5C 917.389,1119.88 917.056,1119.38 916.5,1119C 913.173,1118.39 909.839,1117.89 906.5,1117.5C 781.179,1083.79 659.513,1040.29 541.5,987C 496.504,965.337 452.837,941.337 410.5,915C 377.963,893.473 347.796,868.973 320,841.5C 302.791,823.428 288.791,803.095 278,780.5C 255.497,727.014 264.997,680.181 306.5,640C 324.876,625.144 345.543,614.477 368.5,608C 384.013,602.53 400.013,599.03 416.5,597.5C 421.122,597.844 425.455,597.177 429.5,595.5C 475.76,590.732 522.093,590.232 568.5,594C 595.922,595.394 623.255,597.561 650.5,600.5 Z"/></g>
<g><path style="opacity:1" fill="#b7aec5" d="M 429.5,595.5 C 425.455,597.177 421.122,597.844 416.5,597.5C 420.618,596.291 424.951,595.624 429.5,595.5 Z"/></g>
<g><path style="opacity:1" fill="#8a7ca1" d="M 650.5,600.5 C 656.069,600.376 661.402,601.043 666.5,602.5C 660.931,602.624 655.598,601.957 650.5,600.5 Z"/></g>
<g><path style="opacity:1" fill="#776792" d="M 444.5,601.5 C 436.408,603.375 428.074,604.375 419.5,604.5C 427.59,602.614 435.924,601.614 444.5,601.5 Z"/></g>
<g><path style="opacity:1" fill="#71608d" d="M 407.5,606.5 C 405.162,608.04 402.495,608.706 399.5,608.5C 401.838,606.96 404.505,606.294 407.5,606.5 Z"/></g>
<g><path style="opacity:1" fill="#8b7da2" d="M 664.5,606.5 C 674.352,606.819 684.019,606.819 693.5,606.5C 695.179,606.892 696.846,607.392 698.5,608C 686.978,608.487 675.645,607.987 664.5,606.5 Z"/></g>
<g><path style="opacity:1" fill="#cec8d7" d="M 729.5,596.5 C 725.145,602.855 719.812,608.188 713.5,612.5C 716.831,609 719.998,605.334 723,601.5C 724.777,599.21 726.944,597.543 729.5,596.5 Z"/></g>
<g><path style="opacity:1" fill="#b2a9c1" d="M 1231.5,635.5 C 1234.09,636.419 1236.09,638.086 1237.5,640.5C 1234.91,639.581 1232.91,637.914 1231.5,635.5 Z"/></g>
<g><path style="opacity:1" fill="#fdfcfd" d="M 976.5,937.5 C 978.5,941.5 981.5,944.5 985.5,946.5C 989.833,951.167 994.167,955.833 998.5,960.5C 1002.77,966.442 1007.77,971.776 1013.5,976.5C 1018.17,980.5 1022.5,984.833 1026.5,989.5C 1028.5,992.5 1030.5,995.5 1032.5,998.5C 1025.61,1004.89 1018.28,1010.72 1010.5,1016C 1009.26,1017.15 1008.26,1018.49 1007.5,1020C 1006.83,1020.67 1006.17,1020.67 1005.5,1020C 983.053,994.716 960.387,969.549 937.5,944.5C 936.92,942.251 935.587,940.585 933.5,939.5C 914.816,918.816 896.483,897.816 878.5,876.5C 890.841,871.162 902.841,864.995 914.5,858C 930.132,847.709 940.299,833.542 945,815.5C 950.378,783.586 937.878,762.42 907.5,752C 900.647,749.87 893.647,748.537 886.5,748C 871.183,746.97 855.849,746.47 840.5,746.5C 839.501,835.998 839.167,925.665 839.5,1015.5C 827.5,1015.5 815.5,1015.5 803.5,1015.5C 804.701,915.833 804.701,816.166 803.5,716.5C 831.169,716.333 858.835,716.5 886.5,717C 913.7,717.399 938.033,725.732 959.5,742C 982.97,764.706 990.137,791.872 981,823.5C 976.655,834.508 970.655,844.508 963,853.5C 951.933,863.934 940.433,873.767 928.5,883C 943.951,901.62 959.951,919.787 976.5,937.5 Z"/></g>
<g><path style="opacity:1" fill="#b1a8c0" d="M 628.5,757.5 C 628.277,761.162 627.277,764.495 625.5,767.5C 625.723,763.838 626.723,760.505 628.5,757.5 Z"/></g>
<g><path style="opacity:1" fill="#8d7fa3" d="M 1445.5,784.5 C 1444.83,784.5 1444.5,784.833 1444.5,785.5C 1440.64,784.621 1436.97,783.287 1433.5,781.5C 1433.83,781.167 1434.17,780.833 1434.5,780.5C 1438.44,781.391 1442.11,782.724 1445.5,784.5 Z"/></g>
<g><path style="opacity:1" fill="#fcfcfd" d="M 1106.5,984.5 C 1105.96,984.56 1105.62,984.893 1105.5,985.5C 1135.49,986.5 1165.49,986.833 1195.5,986.5C 1211.5,986.5 1227.5,986.5 1243.5,986.5C 1243.5,995.833 1243.5,1005.17 1243.5,1014.5C 1184.17,1014.5 1124.83,1014.5 1065.5,1014.5C 1062.56,1007.86 1059.89,1001.02 1057.5,994C 1066.96,982.227 1076.3,970.394 1085.5,958.5C 1087.53,957.461 1088.86,955.795 1089.5,953.5C 1122.79,909.545 1156.45,865.878 1190.5,822.5C 1191.4,821.791 1191.74,820.791 1191.5,819.5C 1163.33,819.169 1135.33,819.502 1107.5,820.5C 1092.83,820.5 1078.17,820.5 1063.5,820.5C 1063.5,811.167 1063.5,801.833 1063.5,792.5C 1118.17,792.167 1172.84,792.5 1227.5,793.5C 1231.67,799.846 1235.34,806.512 1238.5,813.5C 1193.58,870.049 1149.58,927.049 1106.5,984.5 Z"/></g>
<g><path style="opacity:1" fill="#8b7da2" d="M 1107.5,820.5 C 1135.33,819.502 1163.33,819.169 1191.5,819.5C 1191.74,820.791 1191.4,821.791 1190.5,822.5C 1163.19,820.508 1135.52,819.842 1107.5,820.5 Z"/></g>
<g><path style="opacity:1" fill="#b3abc2" d="M 1408.5,824.5 C 1409.71,828.618 1410.38,832.951 1410.5,837.5C 1409.73,836.737 1409.23,835.737 1409,834.5C 1408.5,831.183 1408.33,827.85 1408.5,824.5 Z"/></g>
<g><path style="opacity:1" fill="#d2cedc" d="M 1342.5,852.5 C 1344.13,858.238 1344.97,864.238 1345,870.5C 1345.82,880.009 1345.66,889.343 1344.5,898.5C 1344.7,883.123 1344.03,867.79 1342.5,852.5 Z"/></g>
<g><path style="opacity:1" fill="#8c7fa2" d="M 419.5,904.5 C 421.027,904.427 422.027,905.094 422.5,906.5C 420.973,906.573 419.973,905.906 419.5,904.5 Z"/></g>
<g><path style="opacity:1" fill="#c8c2d3" d="M 1344.5,898.5 C 1344.67,905.175 1344.5,911.842 1344,918.5C 1343.76,922.43 1342.93,926.097 1341.5,929.5C 1342.62,919.032 1343.62,908.699 1344.5,898.5 Z"/></g>
<g><path style="opacity:1" fill="#c3bbcf" d="M 1411.5,925.5 C 1411.56,930.076 1410.9,934.409 1409.5,938.5C 1408.9,933.706 1409.57,929.373 1411.5,925.5 Z"/></g>
<g><path style="opacity:1" fill="#c0b9cd" d="M 976.5,937.5 C 979.833,940.167 982.833,943.167 985.5,946.5C 981.5,944.5 978.5,941.5 976.5,937.5 Z"/></g>
<g><path style="opacity:1" fill="#83749b" d="M 933.5,939.5 C 935.587,940.585 936.92,942.251 937.5,944.5C 935.413,943.415 934.08,941.749 933.5,939.5 Z"/></g>
<g><path style="opacity:1" fill="#b4abc2" d="M 1089.5,953.5 C 1088.86,955.795 1087.53,957.461 1085.5,958.5C 1086.12,956.246 1087.46,954.579 1089.5,953.5 Z"/></g>
<g><path style="opacity:1" fill="#beb6ca" d="M 998.5,960.5 C 1004.23,965.224 1009.23,970.558 1013.5,976.5C 1007.77,971.776 1002.77,966.442 998.5,960.5 Z"/></g>
<g><path style="opacity:1" fill="#4d3970" d="M 1106.5,984.5 C 1136,985.498 1165.66,985.831 1195.5,985.5C 1195.5,985.833 1195.5,986.167 1195.5,986.5C 1165.49,986.833 1135.49,986.5 1105.5,985.5C 1105.62,984.893 1105.96,984.56 1106.5,984.5 Z"/></g>
<g><path style="opacity:1" fill="#c5bed0" d="M 1026.5,989.5 C 1028.8,991.294 1030.96,993.294 1033,995.5C 1033.74,996.749 1033.57,997.749 1032.5,998.5C 1030.5,995.5 1028.5,992.5 1026.5,989.5 Z"/></g>
<g><path style="opacity:1" fill="#a89eb9" d="M 1195.5,986.5 C 1195.5,986.167 1195.5,985.833 1195.5,985.5C 1211.83,985.5 1228.17,985.5 1244.5,985.5C 1244.5,995.5 1244.5,1005.5 1244.5,1015.5C 1184.66,1015.83 1125,1015.5 1065.5,1014.5C 1124.83,1014.5 1184.17,1014.5 1243.5,1014.5C 1243.5,1005.17 1243.5,995.833 1243.5,986.5C 1227.5,986.5 1211.5,986.5 1195.5,986.5 Z"/></g>
<g><path style="opacity:1" fill="#9c90af" d="M 840.5,746.5 C 840.5,836.5 840.5,926.5 840.5,1016.5C 827.989,1016.83 815.655,1016.5 803.5,1015.5C 815.5,1015.5 827.5,1015.5 839.5,1015.5C 839.167,925.665 839.501,835.998 840.5,746.5 Z"/></g>
<g><path style="opacity:1" fill="#fdfdfd" d="M 918.5,1267.5 C 918.273,1270.44 919.273,1272.77 921.5,1274.5C 924.934,1281.12 927.6,1288.12 929.5,1295.5C 929.421,1296.93 929.754,1298.26 930.5,1299.5C 983.665,1300.83 1036.67,1300.83 1089.5,1299.5C 1098.2,1264.87 1114.86,1234.87 1139.5,1209.5C 1142,1207.17 1144.67,1205 1147.5,1203C 1150.45,1200.56 1152.78,1197.73 1154.5,1194.5C 1155.99,1192.72 1157.99,1192.05 1160.5,1192.5C 1162.84,1194.04 1165.5,1194.71 1168.5,1194.5C 1192.54,1199.15 1216.54,1204.32 1240.5,1210C 1227.46,1221.38 1214.12,1232.38 1200.5,1243C 1185.16,1256.66 1173.33,1272.83 1165,1291.5C 1159.46,1310.02 1153.46,1328.35 1147,1346.5C 1144.59,1351.66 1141.92,1356.66 1139,1361.5C 1137.51,1363 1135.68,1363.84 1133.5,1364C 1092.26,1367.85 1050.92,1369.35 1009.5,1368.5C 979.489,1368.53 949.489,1368.03 919.5,1367C 906.73,1366.42 894.063,1365.09 881.5,1363C 876.555,1360.05 873.055,1355.89 871,1350.5C 865.807,1335.2 862.14,1319.54 860,1303.5C 856.041,1288.86 849.374,1275.52 840,1263.5C 835.685,1259.35 831.518,1255.02 827.5,1250.5C 826.415,1248.41 824.749,1247.08 822.5,1246.5C 803.456,1231.12 784.123,1215.96 764.5,1201C 729.398,1170.57 698.565,1136.4 672,1098.5C 661.649,1081.13 651.816,1063.47 642.5,1045.5C 642.833,1045.17 643.167,1044.83 643.5,1044.5C 676.282,1056.48 709.282,1067.98 742.5,1079C 778.316,1124.16 820.316,1162.16 868.5,1193C 881.528,1204.02 892.362,1216.86 901,1231.5C 907.119,1243.4 912.952,1255.4 918.5,1267.5 Z"/></g>
<g><path style="opacity:1" fill="#9487a9" d="M 1296.5,1050.5 C 1296.57,1052.03 1295.91,1053.03 1294.5,1053.5C 1294.43,1051.97 1295.09,1050.97 1296.5,1050.5 Z"/></g>
<g><path style="opacity:1" fill="#9589aa" d="M 1294.5,1053.5 C 1294.57,1055.03 1293.91,1056.03 1292.5,1056.5C 1292.43,1054.97 1293.09,1053.97 1294.5,1053.5 Z"/></g>
<g><path style="opacity:1" fill="#9487a9" d="M 1357.5,1081.5 C 1357.57,1083.03 1356.91,1084.03 1355.5,1084.5C 1355.43,1082.97 1356.09,1081.97 1357.5,1081.5 Z"/></g>
<g><path style="opacity:1" fill="#8f82a5" d="M 951.5,1109.5 C 954.228,1109.17 956.562,1109.84 958.5,1111.5C 955.848,1111.59 953.515,1110.92 951.5,1109.5 Z"/></g>
<g><path style="opacity:1" fill="#bfb7cb" d="M 906.5,1117.5 C 909.839,1117.89 913.173,1118.39 916.5,1119C 917.056,1119.38 917.389,1119.88 917.5,1120.5C 913.521,1120.26 909.854,1119.26 906.5,1117.5 Z"/></g>
<g><path style="opacity:1" fill="#a399b5" d="M 1752.5,1132.5 C 1751.58,1135.09 1749.91,1137.09 1747.5,1138.5C 1748.42,1135.91 1750.09,1133.91 1752.5,1132.5 Z"/></g>
<g><path style="opacity:1" fill="#9d92b1" d="M 1007.5,1143.5 C 1010.5,1143.29 1013.16,1143.96 1015.5,1145.5C 1012.57,1145.43 1009.91,1144.77 1007.5,1143.5 Z"/></g>
<g><path style="opacity:1" fill="#766590" d="M 1773.5,1142.5 C 1772.24,1145.43 1770.24,1147.76 1767.5,1149.5C 1768.76,1146.57 1770.76,1144.24 1773.5,1142.5 Z"/></g>
<g><path style="opacity:1" fill="#b0a7bf" d="M 1020.5,1146.5 C 1023.5,1146.29 1026.16,1146.96 1028.5,1148.5C 1025.57,1148.43 1022.91,1147.77 1020.5,1146.5 Z"/></g>
<g><path style="opacity:1" fill="#807299" d="M 1309.5,1145.5 C 1308.92,1147.75 1307.59,1149.42 1305.5,1150.5C 1306.08,1148.25 1307.41,1146.58 1309.5,1145.5 Z"/></g>
<g><path style="opacity:1" fill="#8a7ba1" d="M 1201.5,1162.5 C 1204.78,1162.42 1207.78,1163.09 1210.5,1164.5C 1207.17,1164.78 1204.17,1164.12 1201.5,1162.5 Z"/></g>
<g><path style="opacity:1" fill="#5e4b7d" d="M 1255.5,1171.5 C 1260.43,1171.23 1265.1,1171.9 1269.5,1173.5C 1264.61,1173.47 1259.94,1172.8 1255.5,1171.5 Z"/></g>
<g><path style="opacity:1" fill="#c2bbce" d="M 1635.5,1184.5 C 1627.89,1187.39 1619.89,1188.73 1611.5,1188.5C 1619.3,1186.72 1627.3,1185.38 1635.5,1184.5 Z"/></g>
<g><path style="opacity:1" fill="#766691" d="M 1160.5,1192.5 C 1163.5,1192.29 1166.16,1192.96 1168.5,1194.5C 1165.5,1194.71 1162.84,1194.04 1160.5,1192.5 Z"/></g>
<g><path style="opacity:1" fill="#c8c1d2" d="M 1154.5,1194.5 C 1152.78,1197.73 1150.45,1200.56 1147.5,1203C 1144.67,1205 1142,1207.17 1139.5,1209.5C 1143.53,1203.47 1148.53,1198.47 1154.5,1194.5 Z"/></g>
<g><path style="opacity:1" fill="#5e4b7d" d="M 1408.5,1211.5 C 1414.69,1211.76 1420.69,1212.42 1426.5,1213.5C 1420.07,1214.12 1414.07,1213.45 1408.5,1211.5 Z"/></g>
<g><path style="opacity:1" fill="#624f80" d="M 1598.5,1212.5 C 1588.73,1214.25 1578.73,1214.92 1568.5,1214.5C 1578.31,1213.26 1588.31,1212.59 1598.5,1212.5 Z"/></g>
<g><path style="opacity:1" fill="#ada3bc" d="M 822.5,1246.5 C 824.749,1247.08 826.415,1248.41 827.5,1250.5C 825.251,1249.92 823.585,1248.59 822.5,1246.5 Z"/></g>
<g><path style="opacity:1" fill="#b5abc3" d="M 918.5,1267.5 C 920.293,1269.43 921.293,1271.76 921.5,1274.5C 919.273,1272.77 918.273,1270.44 918.5,1267.5 Z"/></g>
<g><path style="opacity:1" fill="#e8e5ec" d="M 929.5,1295.5 C 930.391,1296.26 931.058,1297.26 931.5,1298.5C 984.162,1299.5 1036.83,1299.83 1089.5,1299.5C 1036.67,1300.83 983.665,1300.83 930.5,1299.5C 929.754,1298.26 929.421,1296.93 929.5,1295.5 Z"/></g>
<g><path style="opacity:1" fill="#dfdce6" d="M 1126.5,1402.5 C 1044.17,1402.33 961.833,1402.5 879.5,1403C 878.255,1403.79 876.922,1404.29 875.5,1404.5C 875.953,1403.54 876.619,1402.71 877.5,1402C 960.668,1401.17 1043.67,1401.33 1126.5,1402.5 Z"/></g>
<g><path style="opacity:1" fill="#fefefe" d="M 1126.5,1402.5 C 1129.06,1402.73 1130.73,1404.06 1131.5,1406.5C 1132.44,1414.44 1132.77,1422.44 1132.5,1430.5C 1128.48,1452.72 1117.81,1471.22 1100.5,1486C 1085.83,1497.23 1069.5,1505.23 1051.5,1510C 1027.43,1516.58 1003.1,1518.08 978.5,1514.5C 974.361,1513.44 970.028,1512.77 965.5,1512.5C 936.233,1506.95 911.733,1492.95 892,1470.5C 882.663,1458.81 876.829,1445.48 874.5,1430.5C 874.225,1421.78 874.558,1413.11 875.5,1404.5C 876.922,1404.29 878.255,1403.79 879.5,1403C 961.833,1402.5 1044.17,1402.33 1126.5,1402.5 Z"/></g>
<g><path style="opacity:1" fill="#d2cddb" d="M 875.5,1404.5 C 874.558,1413.11 874.225,1421.78 874.5,1430.5C 873.021,1423.37 872.521,1416.03 873,1408.5C 873.2,1406.68 874.034,1405.35 875.5,1404.5 Z"/></g>
<g><path style="opacity:1" fill="#b7afc5" d="M 1131.5,1406.5 C 1132.12,1406.61 1132.62,1406.94 1133,1407.5C 1133.82,1415.34 1133.66,1423.01 1132.5,1430.5C 1132.77,1422.44 1132.44,1414.44 1131.5,1406.5 Z"/></g>
<g><path style="opacity:1" fill="#5f4c7e" d="M 965.5,1512.5 C 970.028,1512.77 974.361,1513.44 978.5,1514.5C 974.486,1514.67 970.486,1514.5 966.5,1514C 965.944,1513.62 965.611,1513.12 965.5,1512.5 Z"/></g>
</svg>