<svg width="24" height="24" viewBox="0 0 24 24" fill="none" xmlns="http://www.w3.org/2000/svg">
<circle cx="12" cy="12" r="12" fill="black"/>
<g clip-path="url(#clip0_1_12)" opacity="0.8">
<path d="M7.27402 15.1588C7.35851 15.0664 7.47468 15.0125 7.59788 15.0125H18.7711C18.9753 15.0125 19.0774 15.282 18.9331 15.4398L16.7259 17.8537C16.6414 17.9461 16.5252 18 16.402 18H5.22876C5.02459 18 4.9225 17.7305 5.06683 17.5727L7.27402 15.1588Z" fill="url(#paint0_linear_1_12)"/>
<path d="M7.27407 6.14629C7.36207 6.0539 7.47824 6 7.59793 6H18.7712C18.9754 6 19.0774 6.26949 18.9331 6.42733L16.7259 8.84119C16.6414 8.93359 16.5253 8.98749 16.4021 8.98749H5.22881C5.02463 8.98749 4.92255 8.718 5.06688 8.56015L7.27407 6.14629Z" fill="url(#paint1_linear_1_12)"/>
<path d="M16.7259 10.6237C16.6414 10.5313 16.5252 10.4774 16.402 10.4774H5.22876C5.02459 10.4774 4.9225 10.7469 5.06683 10.9047L7.27402 13.3186C7.35851 13.411 7.47468 13.4649 7.59788 13.4649H18.7711C18.9753 13.4649 19.0774 13.1954 18.9331 13.0375L16.7259 10.6237Z" fill="url(#paint2_linear_1_12)"/>
</g>
<defs>
<linearGradient id="paint0_linear_1_12" x1="17.7038" y1="4.55802" x2="8.82778" y2="20.1035" gradientUnits="userSpaceOnUse">
<stop stop-color="#00FFA3"/>
<stop offset="1" stop-color="#DC1FFF"/>
</linearGradient>
<linearGradient id="paint1_linear_1_12" x1="14.3226" y1="2.62747" x2="5.44663" y2="18.173" gradientUnits="userSpaceOnUse">
<stop stop-color="#00FFA3"/>
<stop offset="1" stop-color="#DC1FFF"/>
</linearGradient>
<linearGradient id="paint2_linear_1_12" x1="16.0024" y1="3.5866" x2="7.12642" y2="19.1321" gradientUnits="userSpaceOnUse">
<stop stop-color="#00FFA3"/>
<stop offset="1" stop-color="#DC1FFF"/>
</linearGradient>
<clipPath id="clip0_1_12">
<rect width="14" height="12" fill="white" transform="translate(5 6)"/>
</clipPath>
</defs>
</svg>
