<?xml version="1.0" encoding="UTF-8"?>
<svg version="1.1" xmlns="http://www.w3.org/2000/svg" width="64" height="64">
<path d="M0 0 C21.12 0 42.24 0 64 0 C64 21.12 64 42.24 64 64 C42.88 64 21.76 64 0 64 C0 42.88 0 21.76 0 0 Z " fill="#466382" transform="translate(0,0)"/>
<path d="M0 0 C2.875 2 2.875 2 4.0625 5.4375 C4.32498637 12.17465007 2.07210816 19.56536663 -2.4375 24.5625 C-4.55348157 25.6943041 -6.6034958 26.64590074 -8.8125 27.5625 C-12.34242199 28.73847355 -12.34242199 28.73847355 -14.125 32 C-14.455 33.98 -14.785 35.96 -15.125 38 C-26.345 38 -37.565 38 -49.125 38 C-49.125 34.04 -49.125 30.08 -49.125 26 C-46.72427045 28.88087546 -44.65208963 31.56404834 -43.125 35 C-40.95502351 31.53622621 -41.18403485 29.41752449 -41.6875 25.4375 C-41.76913913 21.25349434 -41.45458708 19.46287597 -39 16.015625 C-36.1419808 13.14172791 -33.25564824 10.57247065 -30.125 8 C-29.29226562 7.28328125 -28.45953125 6.5665625 -27.6015625 5.828125 C-19.50233598 -0.86133854 -10.31337785 -3.29602797 0 0 Z " fill="#FAFAFA" transform="translate(53.125,26)"/>
<path d="M0 0 C21.12 0 42.24 0 64 0 C64 21.12 64 42.24 64 64 C55.42 64 46.84 64 38 64 C38 58 38 58 39.1875 55.76953125 C41.31871661 53.68883917 43.25061298 52.81262118 46 51.6875 C49.80254718 49.88571165 50.80795432 49.33007851 53 45.5625 C53.495 43.7990625 53.495 43.7990625 54 42 C54.4125 41.05125 54.825 40.1025 55.25 39.125 C56.26211975 34.90783439 55.69709783 31.23910845 55 27 C56.65 26.67 58.3 26.34 60 26 C59.56682609 20.5853261 58.51017262 17.19270618 55 13 C52.63813861 11.73854232 52.63813861 11.73854232 50 11 C49.13375 10.49082031 48.2675 9.98164063 47.375 9.45703125 C43.15974953 7.63725298 39.89342772 7.69457667 35.375 7.875 C31.08313056 8.00036388 27.17498548 8.08846011 23 7 C17.89687064 6.58171071 14.23046523 6.61575294 9.73828125 9.4453125 C6.69258798 12.1693258 4.58478966 15.53660438 2.3828125 18.953125 C1.92648438 19.62859375 1.47015625 20.3040625 1 21 C0.67 21 0.34 21 0 21 C0 14.07 0 7.14 0 0 Z " fill="#020202" transform="translate(0,0)"/>
<path d="M0 0 C3.78573036 0.29121003 5.97339277 1.36769372 9.25 3.25 C10.28125 3.683125 11.3125 4.11625 12.375 4.5625 C15.97220083 6.67390049 17.38855423 8.52710846 19.25 12.25 C19.5 16.125 19.5 16.125 19.25 19.25 C15.15699702 19.95840436 12.22856525 20.25937674 8.25 19.25 C6.41848121 19.15842406 4.58379984 19.11996209 2.75 19.125 C1.8115625 19.12242188 0.873125 19.11984375 -0.09375 19.1171875 C-2.4714263 19.23607132 -4.47683096 19.57448278 -6.75 20.25 C-7.08 19.26 -7.41 18.27 -7.75 17.25 C-8.306875 17.53875 -8.86375 17.8275 -9.4375 18.125 C-14.47301876 20.57471183 -19.0868984 22.50731246 -24.75 21.25 C-28.22187208 19.81044329 -31.49172221 18.11950365 -34.75 16.25 C-33.49704926 13.74409851 -32.50316815 13.48409562 -30 12.3125 C-27.5797752 11.15837145 -25.38750137 10.01696516 -23.125 8.5625 C-20.33959225 7.02319572 -17.89191715 6.6153392 -14.75 6.25 C-17.225 5.755 -17.225 5.755 -19.75 5.25 C-19.75 4.92 -19.75 4.59 -19.75 4.25 C-18.945625 4.12625 -18.14125 4.0025 -17.3125 3.875 C-16.466875 3.66875 -15.62125 3.4625 -14.75 3.25 C-14.42 2.59 -14.09 1.93 -13.75 1.25 C-9.255653 0.33735482 -4.56888403 0.30459227 0 0 Z " fill="#466382" transform="translate(40.75,6.75)"/>
<path d="M0 0 C2.54988858 1.96101297 2.94600263 2.68276547 3.5 5.9375 C3 9 3 9 0.6875 11.3125 C-3.71878038 14.07923419 -7.8869906 14.80237543 -13 14 C-16.48270811 12.58313724 -19.74095202 10.86994556 -23 9 C-21.74704926 6.49409851 -20.75316815 6.23409562 -18.25 5.0625 C-15.81050496 3.90967668 -13.76507724 2.8313375 -11.5625 1.25 C-7.85379581 -0.559124 -4.05389624 -0.77433973 0 0 Z " fill="#FCFCFC" transform="translate(29,14)"/>
<path d="M0 0 C0.33 0 0.66 0 1 0 C1.42589023 5.53657294 -0.094753 9.89665983 -2 15 C-3.921875 14.1953125 -3.921875 14.1953125 -6 13 C-7.25 9.875 -7.25 9.875 -8 7 C-7.50628906 6.66226563 -7.01257812 6.32453125 -6.50390625 5.9765625 C-5.86324219 5.53054687 -5.22257812 5.08453125 -4.5625 4.625 C-3.92441406 4.18414062 -3.28632812 3.74328125 -2.62890625 3.2890625 C-0.86259072 2.07839147 -0.86259072 2.07839147 0 0 Z " fill="#466383" transform="translate(53,46)"/>
<path d="M0 0 C0.625 2.375 0.625 2.375 1 5 C-1 7 -1 7 -3.5625 7.1875 C-6 7 -6 7 -7 6 C-7.04080783 4.00041636 -7.04254356 1.99954746 -7 0 C-4.3333581 -1.33332095 -2.83319697 -0.67102033 0 0 Z " fill="#323233" transform="translate(25,18)"/>
<path d="M0 0 C0.33 0.99 0.66 1.98 1 3 C-1.31 4.32 -3.62 5.64 -6 7 C-6.66 5.68 -7.32 4.36 -8 3 C-3.375 0 -3.375 0 0 0 Z " fill="#41576F" transform="translate(33,24)"/>
<path d="M0 0 C0.99 0.33 1.98 0.66 3 1 C1.68 5.29 0.36 9.58 -1 14 C-1.33 14 -1.66 14 -2 14 C-2 9.71 -2 5.42 -2 1 C-1.34 0.67 -0.68 0.34 0 0 Z " fill="#476688" transform="translate(2,32)"/>
<path d="M0 0 C2.375 -0.125 2.375 -0.125 5 0 C7 2 7 2 7.125 5.625 C7.08375 6.73875 7.0425 7.8525 7 9 C5.35 9.33 3.7 9.66 2 10 C2.33 9.01 2.66 8.02 3 7 C3.66 7 4.32 7 5 7 C5 5.68 5 4.36 5 3 C3.68 3.33 2.36 3.66 1 4 C0.67 2.68 0.34 1.36 0 0 Z " fill="#F8F8F8" transform="translate(53,17)"/>
<path d="M0 0 C0.78375 0.04125 1.5675 0.0825 2.375 0.125 C1.42382866 1.2975131 0.46382991 2.46287015 -0.5 3.625 C-1.03367187 4.2746875 -1.56734375 4.924375 -2.1171875 5.59375 C-2.61476563 6.0990625 -3.11234375 6.604375 -3.625 7.125 C-4.285 7.125 -4.945 7.125 -5.625 7.125 C-4.53409091 0.21590909 -4.53409091 0.21590909 0 0 Z " fill="#2E4966" transform="translate(17.625,36.875)"/>
<path d="M0 0 C0.66 0.33 1.32 0.66 2 1 C1.6875 3.375 1.6875 3.375 1 6 C0.01 6.66 -0.98 7.32 -2 8 C-2.72382467 10.05925139 -2.72382467 10.05925139 -3 12 C-3.33 12 -3.66 12 -4 12 C-4.50423019 6.70558305 -3.18923033 4.18586481 0 0 Z " fill="#2E4865" transform="translate(4,15)"/>
<path d="M0 0 C2.375 0.25 2.375 0.25 5 1 C6.3125 3.0625 6.3125 3.0625 7 5 C5.02 5 3.04 5 1 5 C0.67 3.35 0.34 1.7 0 0 Z " fill="#3B5169" transform="translate(51,12)"/>
<path d="M0 0 C0.33 0 0.66 0 1 0 C1.36923077 5.53846154 1.36923077 5.53846154 -0.5 7.875 C-1.2425 8.431875 -1.2425 8.431875 -2 9 C-2.66 7.68 -3.32 6.36 -4 5 C-2.69254251 3.31295807 -1.35827971 1.64639965 0 0 Z " fill="#445A71" transform="translate(53,46)"/>
<path d="M0 0 C0.99 0.33 1.98 0.66 3 1 C2.67 2.65 2.34 4.3 2 6 C0.68 5.67 -0.64 5.34 -2 5 C-1.34 3.35 -0.68 1.7 0 0 Z " fill="#313235" transform="translate(56,19)"/>
<path d="M0 0 C0.99 0.33 1.98 0.66 3 1 C2.67 3.31 2.34 5.62 2 8 C1.34 8 0.68 8 0 8 C0 5.36 0 2.72 0 0 Z " fill="#2D4967" transform="translate(0,56)"/>
<path d="M0 0 C0.33 1.32 0.66 2.64 1 4 C-3.75 5.125 -3.75 5.125 -6 4 C-6 3.34 -6 2.68 -6 2 C-2.25 0 -2.25 0 0 0 Z " fill="#304861" transform="translate(16,9)"/>
</svg>
