<svg viewBox="0 0 25 25" fill="none" xmlns="http://www.w3.org/2000/svg">
<path d="M24.3696 12.5C24.3696 19.0556 19.0556 24.3696 12.5 24.3696C5.94435 24.3696 0.630432 19.0556 0.630432 12.5C0.630432 5.94435 5.94435 0.630432 12.5 0.630432C19.0556 0.630432 24.3696 5.94435 24.3696 12.5Z" fill="white" stroke="#383D51" stroke-width="0.5"/>
<path d="M9.03461 21.2652C13.5216 21.2652 13.5216 21.1985 14.2823 20.9731C15.2757 20.6778 11.4753 18.0466 9.03461 18.0466C6.59391 18.0466 4.61548 18.7666 4.61548 19.6557C4.61548 20.5447 6.59391 21.2652 9.03461 21.2652Z" fill="black"/>
<path d="M19.2226 7.57947L19.4287 7.80173L19.2482 8.04538C13.3974 15.957 10.0259 19.5393 8.59583 19.0588C7.72452 18.7661 6.85113 17.8859 5.97774 16.6082C5.67092 16.157 5.38471 15.6922 5.12 15.2151C4.9798 14.9654 4.8467 14.7117 4.72087 14.4544C4.64059 14.2973 4.58264 14.1298 4.5487 13.9567L4.54452 13.9363C4.53657 13.8923 4.527 13.8487 4.51583 13.8054C4.11401 12.2917 4.16661 10.6933 4.66707 9.20932C5.16753 7.72536 6.0937 6.42153 7.33014 5.46036C8.56657 4.4992 10.0586 3.92323 11.6201 3.80425C13.1817 3.68527 14.7437 4.02855 16.1115 4.79129L16.1417 4.81008C17.107 5.48208 18.1332 6.40503 19.2226 7.57947ZM15.739 5.42103C14.4962 4.73287 13.0785 4.42515 11.6623 4.53612C10.246 4.64709 8.89364 5.17186 7.77321 6.04519C6.65278 6.91852 5.81374 8.1019 5.36038 9.44821C4.90703 10.7945 4.85936 12.2444 5.22331 13.6176C5.23896 13.6776 5.24626 13.7115 5.26296 13.7976L5.26661 13.8153C5.28852 13.9285 5.32713 14.0381 5.38139 14.1403C5.45131 14.2869 5.59165 14.5593 5.75913 14.8593C6.01294 15.3167 6.2873 15.7624 6.58139 16.1949C7.37078 17.3501 8.15339 18.1384 8.82904 18.3654C9.72957 18.668 13.1203 15.0784 18.4786 7.85599C17.5061 6.82868 16.5925 6.01738 15.739 5.42103Z" fill="black"/>
<path d="M15.7384 5.42103C14.4957 4.73304 13.0781 4.42545 11.662 4.5365C10.2458 4.64755 8.89351 5.17234 7.77317 6.04564C6.65283 6.91894 5.81385 8.10224 5.3605 9.44846C4.90716 10.7947 4.85945 12.2444 5.22331 13.6176C5.23896 13.6776 5.24627 13.7115 5.26296 13.7976L5.26661 13.8153C5.28853 13.9285 5.32714 14.0381 5.3814 14.1398C5.45131 14.2869 5.59166 14.5588 5.75914 14.8593C6.01293 15.3167 6.2873 15.7624 6.5814 16.1949C7.37079 17.3496 8.1534 18.1384 8.82905 18.3654C9.72957 18.668 13.1204 15.0784 18.4786 7.85599C17.5056 6.82868 16.5925 6.01738 15.7384 5.42103Z" fill="#EC1C79"/>
<path d="M13.687 21.1922C12.6344 21.2007 11.5905 21.0007 10.6156 20.6038C9.64066 20.2069 8.75397 19.6209 8.00665 18.8796C7.25933 18.1383 6.66617 17.2564 6.26138 16.2847C5.8566 15.313 5.64819 14.2708 5.64819 13.2182C5.64819 12.1656 5.8566 11.1234 6.26138 10.1517C6.66617 9.18 7.25933 8.29808 8.00665 7.55678C8.75397 6.81548 9.64066 6.22947 10.6156 5.83255C11.5905 5.43564 12.6344 5.23567 13.687 5.24419C15.7906 5.2612 17.8023 6.10882 19.2839 7.60238C20.7654 9.09595 21.5967 11.1145 21.5967 13.2182C21.5967 15.3219 20.7654 17.3404 19.2839 18.834C17.8023 20.3276 15.7906 21.1752 13.687 21.1922ZM13.687 20.4612C15.6077 20.4612 17.4497 19.6982 18.8078 18.3401C20.166 16.982 20.929 15.1399 20.929 13.2192C20.929 11.2985 20.166 9.4565 18.8078 8.09836C17.4497 6.74023 15.6077 5.97723 13.687 5.97723C11.7663 5.97723 9.92436 6.7402 8.56627 8.09829C7.20818 9.45638 6.44522 11.2983 6.44522 13.219C6.44522 15.1396 7.20818 16.9816 8.56627 18.3397C9.92436 19.6977 11.7663 20.4612 13.687 20.4612Z" fill="black"/>
<path d="M13.6875 20.4607C15.6083 20.4607 17.4505 19.6976 18.8087 18.3394C20.1669 16.9812 20.93 15.139 20.93 13.2182C20.93 11.2973 20.1669 9.45517 18.8087 8.09693C17.4505 6.7387 15.6083 5.97565 13.6875 5.97565C11.7666 5.97565 9.92447 6.7387 8.56623 8.09693C7.208 9.45517 6.44495 11.2973 6.44495 13.2182C6.44495 15.139 7.208 16.9812 8.56623 18.3394C9.92447 19.6976 11.7666 20.4607 13.6875 20.4607Z" fill="white"/>
<path fill-rule="evenodd" clip-rule="evenodd" d="M8.26975 14.7017L7.31079 11.8139H8.15079L8.65062 13.473L9.20366 11.8055H9.88818L10.4412 13.473L10.9411 11.8139H11.7644L10.8054 14.7017H10.1131L9.53549 13.0509L8.96157 14.7017H8.26975ZM12.0795 14.6814V11.8139H14.3856V12.4895H12.8663V12.9242H14.2426V13.5508H12.8663V14.0057H14.4064V14.6814H12.0795ZM15.5125 14.6814V12.5104H14.6522V11.8139H17.1675V12.5104H16.3071V14.6814H15.5125ZM17.516 14.6814V11.8139H18.3106V12.8871H19.3306V11.8139H20.1252V14.6814H19.3306V13.592H18.3106V14.6814H17.516Z" fill="black"/>
<path d="M4.72504 10.9515C4.62783 10.9029 4.5539 10.8177 4.5195 10.7146C4.48511 10.6116 4.49308 10.499 4.54164 10.4018C4.59021 10.3046 4.67541 10.2307 4.77849 10.1963C4.88157 10.1619 4.99409 10.1699 5.0913 10.2184L6.26208 10.8038C6.31287 10.8263 6.35857 10.8588 6.39642 10.8994C6.43427 10.94 6.46347 10.9879 6.48227 11.0401C6.50106 11.0924 6.50905 11.1479 6.50575 11.2033C6.50245 11.2587 6.48794 11.3129 6.46308 11.3626C6.43822 11.4122 6.40354 11.4563 6.36114 11.4921C6.31874 11.528 6.26951 11.5548 6.21642 11.5711C6.16333 11.5873 6.10749 11.5926 6.05229 11.5867C5.9971 11.5807 5.94368 11.5636 5.8953 11.5363L4.72504 10.9515ZM4.59043 12.8918C4.49177 12.8463 4.41523 12.7634 4.37766 12.6615C4.34009 12.5595 4.34455 12.4468 4.39008 12.3482C4.4356 12.2495 4.51846 12.173 4.62041 12.1354C4.72237 12.0978 4.83507 12.1023 4.93373 12.1478L6.10451 12.6883C6.15609 12.7091 6.2029 12.7401 6.2421 12.7796C6.28131 12.819 6.31209 12.8659 6.33258 12.9176C6.35307 12.9693 6.36284 13.0246 6.36129 13.0802C6.35974 13.1358 6.34691 13.1904 6.32357 13.2409C6.30024 13.2914 6.26689 13.3365 6.22555 13.3737C6.18421 13.4109 6.13574 13.4393 6.08309 13.4571C6.03044 13.475 5.97472 13.4819 5.91929 13.4776C5.86387 13.4732 5.80991 13.4577 5.76069 13.4318L4.59043 12.8923V12.8918Z" fill="black"/>
</svg>
