<svg viewBox="0 0 500 500" fill="none" xmlns="http://www.w3.org/2000/svg">
    <g clip-path="url(#clip0_20_80)">
        <path d="M500 250C500 299.445 485.338 347.78 457.867 388.892C430.397 430.005 391.352 462.048 345.671 480.97C299.989 499.892 249.723 504.843 201.227 495.196C152.732 485.55 108.187 461.74 73.2234 426.777C38.2603 391.814 14.4501 347.268 4.80379 298.772C-4.84251 250.277 0.10832 200.011 19.0302 154.329C37.9521 108.648 69.9952 69.6029 111.108 42.1326C152.22 14.6622 200.555 0 250 0C316.304 0 379.893 26.3392 426.777 73.2233C473.661 120.107 500 183.696 500 250Z" fill="#F7931A"/>
        <path fill-rule="evenodd" clip-rule="evenodd" d="M177.5 114.739L234.956 130.12L247.82 82.2511L276.548 90.0437L264.184 135.913L287.593 142.206L299.935 95.8597L329.163 103.652L316.571 150.271C316.571 150.271 364.3 160.836 375.55 199.64C386.8 238.443 350.89 258.845 339.867 259.617C339.867 259.617 381.709 282.541 367.345 327.638C352.981 372.735 308.867 380.8 262.502 370.463L249.888 418.831L220.66 411.039L233.524 363.329L210.319 357.104L197.41 405.018L168.432 397.226L181.273 349.516L122.294 333.613L137.181 300.625C137.181 300.625 153.795 305.169 160.113 306.668C166.432 308.168 170.432 301.625 172.205 295.081C173.977 288.538 200.682 180.101 203.205 171.173C205.728 162.244 204.705 155.27 194.114 152.521C183.523 149.772 169.114 145.478 169.114 145.478L177.5 114.739ZM235.456 258.345L219.546 321.572C219.546 321.572 298.412 350.038 308.503 309.985C318.594 269.932 235.456 258.345 235.456 258.345ZM242.774 228.356L258.388 170.423C258.388 170.423 325.935 182.509 317.617 214.748C309.298 246.986 269.411 234.627 242.774 228.356Z" fill="white"/>
        <circle cx="414.502" cy="423.16" r="76.8398" fill="url(#paint0_linear_20_80)"/>
        <path d="M438.466 397.053C453.659 397.053 466.021 409.415 466.021 424.609C466.021 439.802 453.659 452.164 438.466 452.164C423.272 452.164 410.911 439.802 410.911 424.609C410.911 409.415 423.272 397.053 438.466 397.053ZM438.466 396.225C422.789 396.225 410.082 408.932 410.082 424.609C410.082 440.286 422.789 452.993 438.466 452.993C454.143 452.993 466.85 440.286 466.85 424.609C466.85 408.932 454.143 396.225 438.466 396.225Z" fill="white"/>
        <path d="M433.424 391.394C442.242 391.394 450.532 394.827 456.767 401.062C463.002 407.297 466.435 415.587 466.435 424.405C466.435 433.222 463.002 441.512 456.767 447.747C450.532 453.982 442.242 457.416 433.424 457.416C424.607 457.416 416.317 453.982 410.082 447.747C403.847 441.512 400.413 433.222 400.413 424.405C400.413 415.587 403.847 407.297 410.082 401.062C416.317 394.827 424.607 391.394 433.424 391.394ZM433.424 390.012C414.43 390.012 399.032 405.41 399.032 424.405C399.032 443.399 414.43 458.797 433.424 458.797C452.419 458.797 467.817 443.399 467.817 424.405C467.817 405.41 452.419 390.012 433.424 390.012Z" fill="white"/>
        <path d="M428.451 385.73C438.669 385.73 448.28 389.711 455.504 396.937C462.727 404.164 466.711 413.772 466.711 423.99C466.711 434.208 462.73 443.819 455.504 451.042C448.277 458.266 438.669 462.249 428.451 462.249C418.233 462.249 408.622 458.269 401.399 451.042C394.175 443.816 390.192 434.208 390.192 423.99C390.192 413.772 394.172 404.161 401.399 396.937C408.625 389.714 418.233 385.73 428.451 385.73ZM428.451 384.073C406.404 384.073 388.534 401.943 388.534 423.99C388.534 446.037 406.404 463.907 428.451 463.907C450.498 463.907 468.368 446.037 468.368 423.99C468.368 401.943 450.498 384.073 428.451 384.073Z" fill="white"/>
        <path d="M423.894 380.067C435.627 380.067 446.657 384.636 454.952 392.931C463.248 401.227 467.817 412.257 467.817 423.989C467.817 435.721 463.248 446.752 454.952 455.047C446.657 463.343 435.627 467.912 423.894 467.912C412.162 467.912 401.132 463.343 392.836 455.047C384.541 446.752 379.972 435.721 379.972 423.989C379.972 412.257 384.541 401.227 392.836 392.931C401.132 384.636 412.162 380.067 423.894 380.067ZM423.894 378.133C398.568 378.133 378.038 398.663 378.038 423.989C378.038 449.315 398.568 469.846 423.894 469.846C449.22 469.846 469.751 449.315 469.751 423.989C469.751 398.663 449.22 378.133 423.894 378.133Z" fill="white"/>
        <path d="M419.198 374.265C432.333 374.265 444.681 379.381 453.966 388.668C463.253 397.956 468.369 410.304 468.369 423.436C468.369 436.569 463.253 448.92 453.966 458.204C444.678 467.492 432.33 472.608 419.198 472.608C406.065 472.608 393.714 467.492 384.43 458.204C375.142 448.917 370.026 436.569 370.026 423.436C370.026 410.304 375.142 397.953 384.43 388.668C393.717 379.381 406.065 374.265 419.198 374.265ZM419.198 371.779C390.667 371.779 367.54 394.906 367.54 423.436C367.54 451.967 390.667 475.094 419.198 475.094C447.728 475.094 470.855 451.967 470.855 423.436C470.855 394.906 447.728 371.779 419.198 371.779Z" fill="white"/>
        <path d="M414.502 368.464C421.886 368.464 429.049 369.909 435.792 372.763C442.306 375.517 448.154 379.462 453.179 384.486C458.203 389.511 462.148 395.359 464.902 401.873C467.753 408.613 469.201 415.776 469.201 423.163C469.201 430.55 467.756 437.71 464.902 444.453C462.148 450.967 458.203 456.815 453.179 461.84C448.154 466.865 442.306 470.81 435.792 473.564C429.051 476.415 421.888 477.862 414.502 477.862C407.115 477.862 399.955 476.417 393.212 473.564C386.698 470.81 380.85 466.865 375.825 461.84C370.8 456.815 366.855 450.967 364.101 444.453C361.25 437.713 359.803 430.55 359.803 423.163C359.803 415.776 361.248 408.616 364.101 401.873C366.855 395.359 370.8 389.511 375.825 384.486C380.85 379.462 386.698 375.517 393.212 372.763C399.952 369.912 407.115 368.464 414.502 368.464ZM414.502 365.702C382.767 365.702 357.043 391.426 357.043 423.16C357.043 454.895 382.767 480.619 414.502 480.619C446.237 480.619 471.96 454.895 471.96 423.16C471.96 391.426 446.237 365.702 414.502 365.702Z" fill="white"/>
    </g>
    <defs>
        <linearGradient id="paint0_linear_20_80" x1="362.068" y1="368.522" x2="469.928" y2="476.381" gradientUnits="userSpaceOnUse">
            <stop stop-color="#EC324C"/>
            <stop offset="1" stop-color="#171540"/>
        </linearGradient>
        <clipPath id="clip0_20_80">
            <rect width="500" height="500" fill="white"/>
        </clipPath>
    </defs>
</svg>
