<svg viewBox="0 0 24 24" fill="none" xmlns="http://www.w3.org/2000/svg">
<path d="M24 12C24 18.6274 18.6274 24 12 24C5.37258 24 0 18.6274 0 12C0 5.37258 5.37258 0 12 0C18.6274 0 24 5.37258 24 12Z" fill="white"/>
<path fill-rule="evenodd" clip-rule="evenodd" d="M12 22C17.5228 22 22 17.5228 22 12C22 6.47715 17.5228 2 12 2C6.47715 2 2 6.47715 2 12C2 17.5228 6.47715 22 12 22ZM12 24C18.6274 24 24 18.6274 24 12C24 5.37258 18.6274 0 12 0C5.37258 0 0 5.37258 0 12C0 18.6274 5.37258 24 12 24Z" fill="#DF42AB"/>
<path fill-rule="evenodd" clip-rule="evenodd" d="M12 20C16.4183 20 20 16.4183 20 12C20 7.58172 16.4183 4 12 4C7.58172 4 4 7.58172 4 12C4 16.4183 7.58172 20 12 20ZM11.7801 11.4773L8.80369 8.50092C8.77394 8.47083 8.73594 8.45023 8.69448 8.44172C8.65302 8.43322 8.60996 8.43719 8.57076 8.45314C8.53156 8.46909 8.49796 8.49631 8.47422 8.53134C8.45048 8.56638 8.43766 8.60767 8.43737 8.64999V11.9471C8.43309 11.9641 8.4309 11.9816 8.4309 11.9992V15.3484C8.43069 15.3766 8.43608 15.4045 8.44677 15.4306C8.45745 15.4566 8.47321 15.4803 8.49313 15.5002C8.51305 15.5202 8.53674 15.5359 8.56281 15.5466C8.58885 15.5573 8.61674 15.5627 8.64488 15.5625H8.65135H12.0069C12.0349 15.5625 12.0627 15.557 12.0886 15.5462C12.1145 15.5354 12.138 15.5196 12.1577 15.4997C12.1775 15.4798 12.1931 15.4562 12.2037 15.4302C12.2143 15.4043 12.2196 15.3765 12.2194 15.3484V12.5207L15.1961 15.4975H15.1977C15.2184 15.5185 15.2431 15.5351 15.2703 15.5463C15.2976 15.5575 15.3269 15.563 15.3563 15.5625C15.3844 15.5625 15.4121 15.557 15.438 15.5462C15.4639 15.5354 15.4874 15.5196 15.5071 15.4997C15.5269 15.4798 15.5425 15.4562 15.5531 15.4302C15.5637 15.4043 15.569 15.3765 15.5688 15.3484V11.9992C15.5688 11.9904 15.5683 11.9816 15.5672 11.9729V8.65001C15.5672 8.62211 15.5617 8.59448 15.551 8.5687C15.5403 8.54291 15.5247 8.51949 15.5049 8.49976C15.4852 8.48002 15.4618 8.46437 15.436 8.45369C15.4124 8.4439 15.3872 8.43847 15.3616 8.43763C15.356 8.43735 15.3502 8.4373 15.3445 8.43749L15.3429 8.43753H11.9941C11.9661 8.43732 11.9383 8.44266 11.9123 8.45324C11.8864 8.46383 11.8628 8.47945 11.8429 8.4992C11.823 8.51895 11.8072 8.54245 11.7964 8.56834C11.7856 8.59422 11.7801 8.62198 11.7801 8.65002V11.4773Z" fill="#DF42AB"/>
</svg>
